/* XPM */
static char *_658930936786[] = {
/* columns rows colors chars-per-pixel */
"64 64 35 1 ",
"  c #0A0404",
". c #1B0B0B",
"X c #321414",
"o c #591B0D",
"O c #431B1B",
"+ c #700000",
"@ c #652E1E",
"# c #762512",
"$ c #702214",
"% c #7B271E",
"& c #4E2020",
"* c #5F2727",
"= c #6A2C2C",
"- c #702E2E",
"; c #763222",
": c #A30000",
"> c #982917",
", c #B9321E",
"< c #923E2E",
"1 c #813535",
"2 c #983E3E",
"3 c #FF1212",
"4 c #CA3E25",
"5 c #DA472C",
"6 c #E34F30",
"7 c #A94545",
"8 c #B44A4A",
"9 c #B74F4F",
"0 c #C06666",
"q c #C77777",
"w c #CC8282",
"e c #CE8888",
"r c #D39393",
"t c #E1B5B5",
"y c None",
/* pixels */
"yyyyyyyyyyyyyyyyyyyyyyyyyyyyyyyyyyyyyyyyyyyyyyyyyyyyyyyyyyyyyyyy",
"yyyyyyyyyyyyyyyyyyyyyyyyyyyyyyyyyyyyyyyyyyyyyyyyyyyyyyyyyyyyyyyy",
"yyyyyyyyyyyyyyyyyyyyyyyyyyyyyyyyyyyyyyyyyyyyyyyyyyyyyyyyyyyyyyyy",
"yyyyyyyyyyyyyyyyyyyyyyyyyyyyyyyyyyyyyyyyyyyyyyyyyyyyyyyyyyyyyyyy",
"yyyyyyyyyyyyyyyyyyyyyyyyyyyyy&=11=&yyyyyyyyyyyyyyyyyyyyyyyyyyyyy",
"yyyyyyyyyyyyyyyyyyyyyyyyyyyy=11<2<1&yyyyyyyyyyyyyyyyyyyyyyyyyyyy",
"yyyyyyyyyyyyyyyyyyyyyyyyyyy&112882<1=yyyyyyyyyyyyyyyyyyyyyyyyyyy",
"yyyyyyyyyyyyyyyyyyyyyyyyyyy=1<288821&yyyyyyyyyyyyyyyyyyyyyyyyyyy",
"yyyyyyyyyyyyyyyyyyyyyyyyyyy1<22<<22<=yyyyyyyyyyyyyyyyyyyyyyyyyyy",
"yyyyyyyyyyyyyyyyyyyyyyyyyyy=<<11=1<<=yyyyyyyyyyyyyyyyyyyyyyyyyyy",
"yyyyyyyyyyyyyyyyyyyyyyyyyyy=88211128=Xyyyyyyyy0yyyyyyyyyyyyyyyyy",
"yyyyyyyyyyyyyyyyyyyyyyyyyyX&&X*1**X&*Xyyyyyyyq7yyyyyyyyyyyyyyyyy",
"yyyyyyyyyyyyyyyyyyy2yyyyyyX*:3X&OX3:*=yyyyyyq0yyyyyyyyyyyyyyyyyy",
"yyyyyyyyyyyyyyyyyyyy2yyyyyX=X+&1=&+X=Xyyyy0eqyyyyyyyyyyyyyyyyyyy",
"yyyyyyyyyyyyyyyyyyyy92yyyyy&=1=XX=1=&.***2qr7yyyyyyyyyyyyyyyyyyy",
"yyyyyyyyyyyyyyyyyyyy452yy**Xo.>56,.&***@;=08yyyyyyyyyyyyyyyyyyyy",
"yyyyyyyyyyyyyyyyyyyyy45*=@*OXX    XXO*=1@@*Oyyyyyyyyyyyyyyyyyyyy",
"yyyyyyyyyyyyyyyyyyyyyy&=1=*XX&    &XX*===*&&yyyyyyyyyyyyyyyyyyyy",
"yyyyyyyyyyyyyyyyyyyyyy=11@@O X$45>&oX*1*&&&*O9qw9yyyyyyyyyyyyyyy",
"yyyyyyyyyyyyyyyyyyyyyy=@=**&  &**&XX&*@&OXO%*qtyyyyyyyyyyyyyyyyy",
"yyyyyyyyyyyyyyyyyyyyyy*@&&&OXX    X@*1&OX.,>%Oyyyyyyyyyyyyyyyyyy",
"yyyyyyyyyyyyyyyyyy=e2&oOXOO&&OX X&&1r,X.X%,>>Oyyyyyyyyyyyyyyyyyy",
"yyyyyyyyyyyyyyyyyyyyy&&o.XOo,&*XXXXO&X.XXO%>o*.yyyyyyyyyyyyyyyyy",
"yyyyyyyyyyyyyyyy*==y**@oX.XXXX&OXOooXOO..XOOO&Oyyyyyyyyyyyyyyyyy",
"yyyyyyyyyyyyyyyy**1==*@oX..OOoXOXOXXXXX&&yXXO&&.yyyyyyyyyyyyyyyy",
"yyyyyyyyyyyyy=**=O=8O&o.Xy.O.OOXXOOOOOOXXy.XO&&Oyyyyyyyyyyyyyyyy",
"yyyyyyyyyyyy*1=O*O*OOOoXyyyXXOOX....OOX...XO&&OOyyyyyyyyyyyyyyyy",
"yyyyyyyyyyyyy*1*OXO=O.oXyyyXXX..X..OXOXO&&*OO=1yyyyyyyyyyyyyyyyy",
"yyyyyyyyyyyyyy*8OX=1=..yyyyy...XXX#@--&**&OXX72yyyyyyyyyyyyyyyyy",
"yyyyyyyyyyyyyyyOXO881..yyyyy...XO#-&-&&OXX..yy7yyyyyyyyyyyyyyyyy",
"yyyyyyyyyyyyyyyyyXX...yyyyyyOX.XO@1*&OOX..yyyyyyyyyyyyyyyyyyyyyy",
"yyyyyyyyyyyyyyyyyyyXXyyyyyyX.OXXOo#-OOX&&yyyyyyyyyyyyyyyyyyyyyyy",
"yyyyyyyyyyyyyyyyyyyyyyyyyy.OXOXXXOo#&o&&*Xyyyyyyyyyyyyyyyyyyyyyy",
"yyyyyyyyyyyyyyyyyyyyyyyyyyO&OXOO&&Oo&&***&yyyyyyyyyyyyyyyyyyyyyy",
"yyyyyyyyyyyyyyyyyyyyyyyyyy&&&OXXOOXO&**==*yyyyyyyyyyyyyyyyyyyyyy",
"yyyyyyyyyyyyyyyyyyyyyyyyyX&&&&OXXXX&&*==;=Xyyyyyyyyyyyyyyyyyyyyy",
"yyyyyyyyyyyyyyyyyyyyyyyyyO&**&&.XXX&*=;11=&yyyyyyyyyyyyyyyyyyyyy",
"yyyyyyyyyyyyyyyyyyyyyyyyy&****&..yy&*=1211*yyyyyyyyyyyyyyyyyyyyy",
"yyyyyyyyyyyyyyyyyyyyyyyyy&*@=*&.Xyy&*11<1=*yyyyyyyyyyyyyyyyyyyyy",
"yyyyyyyyyyyyyyyyyyyyyyyyX&@@*&O.yyyX*=;1;=*yyyyyyyyyyyyyyyyyyyyy",
"yyyyyyyyyyyyyyyyyyyyyyyyO&***&O.yyyX&=;;=**yyyyyyyyyyyyyyyyyyyyy",
"yyyyyyyyyyyyyyyyyyyyyyyyO&**&OXXyyyy&*=;**&yyyyyyyyyyyyyyyyyyyyy",
"yyyyyyyyyyyyyyyyyyyyyyyyOO&&&X.XyyyyX&*=**&yyyyyyyyyyyyyyyyyyyyy",
"yyyyyyyyyyyyyyyyyyyyyyyyyXO&O..yyyyyX&&**&Xyyyyyyyyyyyyyyyyyyyyy",
"yyyyyyyyyyyyyyyyyyyyyyyyyXXOX..yyyyyXX&$&OXyyyyyyyyyyyyyyyyyyyyy",
"yyyyyyyyyyyyyyyyyyyyyyyyyX=qX..yyyyyyX=4$&Xyyyyyyyyyyyyyyyyyyyyy",
"yyyyyyyyyyyyyyyyyyyyyyyyyX=1O..yyyyyyX&,&XXyyyyyyyyyyyyyyyyyyyyy",
"yyyyyyyyyyyyyyyyyyyyyyyyyXXO...yyyyyyXO&&XXyyyyyyyyyyyyyyyyyyyyy",
"yyyyyyyyyyyyyyyyyyyyyyyyyXXXX..yyyyyy*X&OOXyyyyyyyyyyyyyyyyyyyyy",
"yyyyyyyyyyyyyyyyyyyyyyyyyyXX..Xyyyyyy&OXO&Xyyyyyyyyyyyyyyyyyyyyy",
"yyyyyyyyyyyyyyyyyyyyyyyyyyXX..XyyyyyyOOO*&Oyyyyyyyyyyyyyyyyyyyyy",
"yyyyyyyyyyyyyyyyyyyyyyyyyyXX..XyyyyyyXXO*&Oyyyyyyyyyyyyyyyyyyyyy",
"yyyyyyyyyyyyyyyyyyyyyyyyyy*X..XyyyyyyXXO*&&yyyyyyyyyyyyyyyyyyyyy",
"yyyyyyyyyyyyyyyyyyyyyyyyyy*O..XyyyyyyyXO*&yyyyyyyyyyyyyyyyyyyyyy",
"yyyyyyyyyyyyyyyyyyyyyyyyyy*OO.XyyyyyyyXO&&yyyyyyyyyyyyyyyyyyyyyy",
"yyyyyyyyyyyyyyyyyyyyyyyyy&*.&OyyyyyyyyXO&&yyyyyyyyyyyyyyyyyyyyyy",
"yyyyyyyyyyyyyyyyyyyyyyyyye*ye*yyyyyyyy&&&&&yyyyyyyyyyyyyyyyyyyyy",
"yyyyyyyyyyyyyyyyyyyyyyyyyyyyyyyyyyyyy&&==*&yyyyyyyyyyyyyyyyyyyyy",
"yyyyyyyyyyyyyyyyyyyyyyyyyyyyyyyyyyyyy&***=**yyyyyyyyyyyyyyyyyyyy",
"yyyyyyyyyyyyyyyyyyyyyyyyyyyyyyyyyyyy&==*y&==*yyyyyyyyyyyyyyyyyyy",
"yyyyyyyyyyyyyyyyyyyyyyyyyyyyyyyyyyyy&&r&yOOr*yyyyyyyyyyyyyyyyyyy",
"yyyyyyyyyyyyyyyyyyyyyyyyyyyyyyyyyyyyyyyyyyyyyyyyyyyyyyyyyyyyyyyy",
"yyyyyyyyyyyyyyyyyyyyyyyyyyyyyyyyyyyyyyyyyyyyyyyyyyyyyyyyyyyyyyyy",
"yyyyyyyyyyyyyyyyyyyyyyyyyyyyyyyyyyyyyyyyyyyyyyyyyyyyyyyyyyyyyyyy"
};
