/* XPM */
static char *_659846801152[] = {
/* columns rows colors chars-per-pixel */
"64 64 194 2 ",
"   c #808790",
".  c #818556",
"X  c #66684C",
"o  c #44402F",
"O  c #4F4C3F",
"+  c #373C2C",
"@  c #1C1C1B",
"#  c #322E1D",
"$  c #979578",
"%  c #536265",
"&  c #889C9E",
"*  c #62797E",
"=  c #464D4F",
"-  c #383F40",
";  c #242A2B",
":  c #191B1D",
">  c #141413",
",  c #0C3A00",
"<  c #238F00",
"1  c #382B2F",
"2  c #AE260B",
"3  c #BD541F",
"4  c #792429",
"5  c #66A916",
"6  c #146836",
"7  c #818994",
"8  c #7D848C",
"9  c #65686C",
"0  c #6E6E6F",
"q  c #6A6A6A",
"w  c #555655",
"e  c #585858",
"r  c #828A95",
"t  c #818A94",
"y  c #818B96",
"u  c #808791",
"i  c #82878A",
"p  c #80878E",
"a  c #7B8189",
"s  c #777777",
"d  c #727272",
"f  c gray33",
"g  c #535351",
"h  c #444D11",
"j  c #3C4700",
"k  c #3C4800",
"l  c #3D4900",
"z  c #384F02",
"x  c #546C41",
"c  c #80878A",
"v  c #65676A",
"b  c #515151",
"n  c #4C4C4C",
"m  c #4A4C44",
"M  c #353F00",
"N  c #343E00",
"B  c #333D00",
"V  c #364000",
"C  c #2F3C00",
"Z  c #2F480B",
"A  c #81878A",
"S  c #80878F",
"D  c #7D8483",
"F  c #7B7F74",
"G  c #656B4A",
"H  c #333C00",
"J  c #303900",
"K  c #2F3800",
"L  c #313A00",
"P  c #3B4600",
"I  c #414E00",
"U  c #7D8289",
"Y  c #545554",
"T  c #484848",
"R  c #494A48",
"E  c #313B00",
"W  c #202600",
"Q  c #383F14",
"!  c #545648",
"~  c #505343",
"^  c #4E5141",
"/  c #4A6447",
"(  c #273C02",
")  c #374300",
"_  c #3A4500",
"`  c #323C00",
"'  c #404C00",
"]  c #424C0D",
"[  c gray29",
"{  c #494949",
"}  c gray30",
"|  c #454837",
" . c #2D3600",
".. c #293100",
"X. c #4B4D3D",
"o. c #4C4F3E",
"O. c #525545",
"+. c #3B3B3A",
"@. c #35362F",
"#. c #292D11",
"$. c #323B00",
"%. c #2B3300",
"&. c #1F2500",
"*. c #272D03",
"=. c #4F5241",
"-. c #4B4E3F",
";. c #4D503F",
":. c #444B22",
">. c #3F4037",
",. c #333330",
"<. c #353530",
"1. c #32332A",
"2. c #2E2E2A",
"3. c #303227",
"4. c #2E3028",
"5. c #354000",
"6. c #222900",
"7. c #373B25",
"8. c #454838",
"9. c #464938",
"0. c #474A38",
"q. c #434636",
"w. c #384300",
"e. c #303800",
"r. c #272F00",
"t. c #232900",
"y. c #484B3A",
"u. c #424535",
"i. c #283000",
"p. c #34381F",
"a. c #484B38",
"s. c #4A4D3B",
"d. c #3E4132",
"f. c #444737",
"g. c #494C3B",
"h. c #474A39",
"j. c #3F4233",
"k. c #474A3A",
"l. c #464939",
"z. c #414434",
"x. c #404333",
"c. c #444735",
"v. c #252B00",
"b. c #252C00",
"n. c #2C3400",
"m. c #2E3700",
"M. c #2D3212",
"N. c #434635",
"B. c #464937",
"V. c #444736",
"C. c #414435",
"Z. c #262D00",
"A. c #303518",
"S. c #484B39",
"D. c #494C3A",
"F. c #232A00",
"G. c #383B26",
"H. c #2E3600",
"J. c #272E00",
"K. c #3E4030",
"L. c #36392A",
"P. c #3E402F",
"I. c #3D4031",
"U. c #414433",
"Y. c #2C3500",
"T. c #3D402C",
"R. c #383B2D",
"E. c #373A2B",
"W. c #404334",
"Q. c #40442A",
"!. c #3E412E",
"~. c #3E4131",
"^. c #3A3D2F",
"/. c #404231",
"(. c #293000",
"). c #222800",
"_. c #3F4234",
"`. c #393C2E",
"'. c #4B4E3B",
"]. c #4A4D3A",
"[. c #242B00",
"{. c #343E02",
"}. c #3C402A",
"|. c #383B2B",
" X c #3D4032",
".X c #3F4232",
"XX c #3F4231",
"oX c #363F06",
"OX c #3A3D2C",
"+X c #3A3D2E",
"@X c #393C2D",
"#X c #393C2C",
"$X c #3A3D2D",
"%X c #353829",
/* pixels */
"                                            . . . X . X . . . . X . X . . . . . . . X . X . X X X X X X X . . . . . X . X o X o ",
"                                            . O O O O O O . O O O O O O O O + O + O O O + O O O O O O + O O + O + O O O + O O o ",
"                                            . O O @ @ # @ . O O @ @ # @ # # # @ # # # # # # # @ # @ @ # # # # @ # # # # # O + # ",
"                                            . O @         . O @                                                           + O o ",
"                                            . O #         . O #                                                           . + # ",
"                                            . O O . . X . . O O . . X . . . X . . . . . X $ . . $ . . . . . X . . . . . X O O o ",
"                                            . O O O o X O . O O O o X O X + O O O O O o X O O O O O O + O + O O O O O o X X O # ",
"                                            . O O o X + O . O O o X + O O . o O O O + X + O O O O O + O O . o O O O + X + O O # ",
"                                            . O O # @ # # . O O # @ # # # @ + # # @ # @ # # + @ # @ @ @ # @ + # # @ # @ # O O # ",
"                                            . O #         . O #                                                           X O # ",
"                                            . O #         . O #                                                           . O # ",
"                                            . + O + . . . . + O + . . . . . . . X . X . . $ O . X $ . . . . . . X . X . . O O # ",
"                                            X O O O O O O X O O O O O O O O O + + + X O O O X o O O O O O O O + + + X O O O O # ",
"                                            . O O O X + O . O O O X + O O O + X + X O O O O O X + O O O O O + X + X O O O O O # ",
"                                            X O O # # + @ X O O # # + @ # @ + # # # # # @ # @ # + # # # # @ + # # # # # @ O + # ",
"                                            . O #         . O #                                                           X O # ",
"                                            X O #         X O #                                                           . O # ",
"                                            X O + . . . . X O + . . . . . . . X . . . X $ . . . . X $ . . . . X . . . X $ O O # ",
"                                            X + O + O O O X + O + O O O O O + O O O o X O O O O + X O O O O + O O O o X O O O # ",
"                                            X O + O O O O X O + O O O O O + O O O + X O O O O + + + O O O + O O O + X O O O O # ",
"                                            X O O # # # # X O O # # # # @ # # # @ # # # # # @ # @ + # # # # # # @ # # # # O O # ",
"                                            X O #         X O #                                                           X O # ",
"                                            X O #         X O #                                                           . O # ",
"                                            X O O . X $ X X O O . X $ X . X $ . . . . X $ . . . . O $ . . X $ . . . . X $ O O # ",
"                                            o O O + X + O o O O + X + O o X O O O O o X O O O O o X O O O X O O O O o X O O + # ",
"                                            X O O X + O O X O O X + O O X O O O O + X O O O O o X O O O o O O O O + X O O + O # ",
"                                            o O O # # # # o O O # # # # + # # # + # + # # # @ # # # + # % & & * * * % % = + O # ",
"                                            X O #         X O #                                         & = = = = = = = - X O # ",
"                                            o O +         o O +                                         & = ; : : > : = - . O # ",
"                                            X O X . . X . X O X . . X . X $ . . . . . . . . . . . . . . * = : : , < > = - O O # ",
"                                            o O O O O + O o O O O O + O O O O O + O O O O O O + O O O O * = : > > > : = - O O @ ",
"                                            o o o # o # o o o o # o # o # # # # # # # # # # # # # # # # * = = = = = = = 1 # @ @ ",
"                                            . . . X . X . . . . X . X . . . . . . . X . X . X X X X X X % = 2 = 2 = 3 = - o X o ",
"                                            . O O O O O O . O O O O O O O O + O + O O O + O O O O O O + * = = = = = = = 1 O O o ",
"                                            . O O @ @ # @ . O O @ @ # @ # # # @ # # # # # # # @ # @ @ # % = 4 = 5 = 6 = 1 O + # ",
"                                            . O @         . O @                                         % = = = = = = = 1 + O o ",
"                                            . O #         . O #                                         = - - 1 1 1 1 1 - . + # ",
"                                            . O O . . X . . O O . . X . . . X . . . . . X $ . . $ . . . . . X . . . . . X O O o ",
"                                            . O O O o X O . O O O o X O X + O O O O O o X O O O O O O + O + O O O O O o X X O # ",
"                                            . O O o X + O . O O o X + O O . o O O O + X + O O O O O + O O . o O O O + X + O O # ",
"                                            . O O # @ # # . O O # @ # # # @ + # # @ # @ # # + @ # @ @ @ # @ + # # @ # @ # O O # ",
"                                            . O #         . O #                                                           X O # ",
"                                            . O #         . O #                                                           . O # ",
"                                            . + O + . . . . + O + . . . . . . . X . X . . $ O . X $ . . . . . . X . X . . O O # ",
"                  7                         X O O O O O O X O O O O O O O O O + + + X O O O X o O O O O O O O + + + X O O O O # ",
"    8 9 0 q w e   r t y u i p     7         . O O O X + O . O O O X + O O O + X + X O O O O O X + O O O O O + X + X O O O O O # ",
"  a s d f f f f g h j j k l z x c p         X O O # # + @ X O O # # + @ # @ + # # # # # @ # @ # + # # # # @ + # # # # # @ O + # ",
"  v f f f f f b n m M N B B B V C Z A S     . O #         . O #                                         D F G H J K L P I X O # ",
"U Y f f f f f n T R V N M N V B E W Q ! ~ ^ X O #         X O #                                       / ( ) _ ` L _ ' ] H . O # ",
"g [ { } n [ [ { { | H H H H H  ...W X.o.O.o.X O + . . . . X O + . . . . . . . X . . . X $ . . . . X $ . . . . X . . . X $ O O # ",
"+.T T { T T T { @.#.H H H H $.%.&.*.=.-.^ ;.X + O + O O O X + O + O O O O O + O O O o X O O O O + X O O O O + O O O o X O O O # ",
":.>.,.<.1.2.3.4.5.H H H H $.E 6.&.7.8.9.0.q.X O + O O O O X O + O O O O O + O O O + X O O O O + + + O O O + O O O + X O O O O # ",
"j j w.H H H H H H H H H H e.r.&.t.y.9.| 9.u.X O O # # # # X O O # # # # @ # # # @ # # # # # @ # @ + # # # # # # @ # # # # O O # ",
"_ B H H H H H H H H H H L i.&.W p.a.s.d.u.f.X O # g.u.h.g.X O # d.j.k.g.| g.l.d.h.z.g.x.c.v.v.b...n.H H H H H H H H H H H X O # ",
"H H H H H H H H H H J m.W &.W M.N.h.u.9.s.B.X O # g.q.V.g.X O # C.u.k.y.g.g.d.q.g.8.q.9.Z.v.v.b.n.E H H H H H H H H H H H . O # ",
"H H H H H H H H H $.J &.&.W A.z.N.h.S.g.D.9.X O O . X $ X X O O . X $ X . X $ . . . . X $ . . . . O $ . . X $ . . . . X $ O O # ",
"H H H H H H H $.E K &.&.F.G.d.d.C.| h.9.S.N.o O O + X + O o O O + X + O o X O O O O o X O O O O o X O O O X O O O O o X O O + # ",
"H H H H H H ` H H.&.&.J.K.h.h.j.L.d.z.z.z.V.X O O X + O O X O O X + O O X O O O O + X O O O O o X O O O o O O O O + X O O + O # ",
"H H H H L H H n.&.&...P.| g.S.d.d.0.q.I.U.l.o O O # # # # o O O # # # # + # # # + # + # # # @ # # # + # # # # # + # + # # + O # ",
"H H H ` ` L &.&.W Y.T.V.s.8.u.R.u.u.E.j.| | X O # g.g.C.j.X O # g.g.j.u.C.z.W.8.h.Q.v.v.b.n. .H H H H H H H H H H H H H H X O # ",
"H $.H ` %.6.&.W  .!.D.h.D.D.g.u.y.~.^.B.9.d.o O + g.g.h.g.o O + g.q.| g.y.j.W.W./.J.v.b. .n.L H H H H H H H H H H H H H H . O # ",
"$.H L %.(.&.).$.!.x.h._.`.| q.S.'.].D.s.g.z.X O X . . X . X O X . . X . X $ . . . . . . . . . . . . . . . $ . . . . . . . O O # ",
"H K H.[.&.[.{.}.C.| |.d. Xz.0..XXXP.B.9.d.x.o O O O O + O o O O O O + O O O O O + O O O O O O + O O O O O O O O + O O O O O O @ ",
"m.(.W W %.oXOX+X@XR.#X$XL.L.L.L.L.L.%X%XL.E.o o o # o # o o o o # o # o # # # # # # # # # # # # # # # # # # # # # # # # # # @ @ "
};
