/* XPM */
static char *_659391703727[] = {
/* columns rows colors chars-per-pixel */
"64 64 28 1 ",
"  c black",
". c #4F4C3F",
"X c #464D4F",
"o c #28221F",
"O c #373C2C",
"+ c #141413",
"@ c #536265",
"# c #382B2F",
"$ c #322E1D",
"% c #818556",
"& c #62797E",
"* c #889C9E",
"= c #383F40",
"- c #66684C",
"; c #292A28",
": c #334043",
"> c #242A2B",
", c #191B1D",
"< c #1C1C1B",
"1 c #238F00",
"2 c #35AE00",
"3 c #0C3A00",
"4 c #246200",
"5 c #353929",
"6 c #28271F",
"7 c #1E1E17",
"8 c #181817",
"9 c #28261F",
/* pixels */
"                                                                ",
" ....... ......................XXo...O.O..........O.OOO+..O.OOO+",
" .OOOOOO .OOOOOOOOOOOOOOOOOOOO.OOoOOOOOOOOOOOOOOOOOOOOO+OOOOOOO+",
" .OOOOOO .OOOOOOOOOOOOOOOOOOOO@OO#OOOOOOOOOOOOOOOOOOOOO+OOOOOOO+",
" .O$%.OO .O$%.OOOOOOOOOOOOOOOO.OOoOOOOOOOOOOOOOOO$%.OOO+O$%.OOO+",
" .O$..OO .O$..OOOOOOOOOOOOOOOO@OO#OOOOOOOOOOOOOOO$..OOO+O$..OOO+",
" .O$$OOO .O$$OOOOOOOOOOOOOOOOO@OO#OOOOOOOOOOOOOOO$$OOOO+O$$OOOO+",
" .OOOOOO .OOOOOOOOOOOOOOOOOOOO@OO#OOOOOOOOOOOOOOOOOOOOO+OOOOOOO+",
"+%......+%....................&XXO.....................o.......o",
" .OOOOOO XOOOOOOOOOOOOOOOOOOOO@OO#OOOOOOOOOOOOOOOOOOOOO+OOOOOOO+",
"+%......+%....................&XXO.....................o.......o",
" %...... %....................&XXO.....................+.......+",
"+%......+%....................&XXO.....................o.......o",
"+%......+%...$.*****&*&&&&&&&&XXXX@&&&&&@&@@@@@@@......o.......o",
"+%......+%....*XXXXXXXXXXXXXXXXXXXXXXXXXXXXXXXXXXX.....o.......o",
"+%......+%...*X&XXXXXXXXXXXXXXXXXXXXXXXXXXXXXXXX&X=....o.......o",
"+%......+-...*#XX=#########=#=#=======X=X=XXXXX#XX=....+.......o",
"+%......+%...*XX=+++++++++++++++++++++++++++++;XXX=....o.......+",
"+%......+@...*XX#+&:>>>>>,>,,,,+,+,++++++++++++XXX=....+.......o",
"+%......+%...*XX#+:>,,,,,,,,+,+,+++++++++++++++@XX=....o.......+",
"+%......+-...&XX#+>,,,,,,+,+,++++++++++++++++++@XX=....+.......o",
"+%......+-...*XX#+>,,,+,+,++++++++++++++++++++ @XX=....o.......+",
"+%......+-...&XX#+>,,+,++++++++++++++++++++++++@XX=....<.......o",
"+%......+-...&XX#+,,+,++++++++++++++++++++++++ @XX=....<.......+",
"+%......<-...&XX#+>,,+++++++++++++++++++++++++ &XX=....<.......+",
"+%......+-...&XX#+,,++++++++++++++++++++++++++ @XX=....<.......+",
"+%......<-...&XX#+,+++++++++++++++++++++++++++ &XX=....+.......+",
"+%......+-...&XX=++,++++++++++++++++++++++++++ &XX=....<.......+",
"+%......+-...&XX#+,+++++++++++++++++++++++++++ &XX=....+.......+",
"+%......+-...@XX=++,++++++++++++++++++++++++++ &XX=....+.......+",
"+%......o-...&XX=+,+++++++++++++++++++++++++++ &XX=....+.......+",
"o%......+-...@XX=+++++++++++++++++++++++++++++ &XX#....o.......+",
"+%......o-...@XX=+,+++++++++++++++++++++++++++ *XX=....+.......o",
"o-......+-...@XX=+++++++++++++++++++++++++++++ &XX#....o.......+",
"+%......o-...@XXX++1+231+2+32+24+1+314+3+2++++ *XX#....+.......o",
"o-......o-...@XX=++2+314+3+24+21+1+4+2+131++++ &XX#....o.......+",
"o%......o-...@XXX+++++++++++++++++++++++++++++ *XX#....o.......o",
"o-......+-...@XXX++2+13+2+31+4+2+2++++++++++++ *XX#....+.......+",
"         -...@XXX++3421+1+41+213+1++++++++++++ *XX#....++       ",
"         -...@XXX++++++++++++++++++++++++++++  *XX#....+;       ",
"<+ +<++++-...@XXX;+++++ +                     ;&XX#....+++ +<+++",
";+ ;;<+;+-...@XXXXX@X@X@@@@@@@@@@&@&&&&&&*****&XXX#....+;+ ;;<+;",
";+ ;;<<;<-...@X&XXXXXXXXXXXXXXXXXXXXXXXXXXXXXXXX&X#....+;+ ;;<<;",
";+ ;;<<;+-....#XXXXXXXXXXXXXXXXXXXXXXXXXXXXXXXX#X#.....+;+ ;;<<;",
";<+;;<<;<%.....==========#=#=####################.$....+;<+;;<<;",
";+ ;;<<;<-............................................. ;+ ;;<<;",
";<+;;<<;<-.............................................+;<+;;<<;",
";< ;;<<;<%............................................. ;< ;;<<;",
";<+;;<<;<%%%%%%%%X%X%X%%%%%%%%%%%%%%%%%%%X%X%%%%%%X%XXX ;<+;;<<;",
";<+;;<<;<                                               ;<+;;<<;",
";++;;<<;<+ +<+++<+ +<+++<+ +<+++<+ +<+++<+ +<+++<+ +<+++;++;;<<;",
";<+;;<<;;+ ;;<+;;+ ;;<+;;+ ;;<+;;+ ;;<+;;+ ;;<+;;+ ;;<+;;<+;;<<;",
"<+ ;<<<;;+ ;;<<;;+ ;;<<;;+ ;;<<;;+ ;;<<;;+ ;;<<;;+ ;;<<;<+ ;<<<;",
";++<;<<;;+ ;;<<;;+ ;;<<;;+ ;;<<;;+ ;;<<;;+ ;;<<;;+ ;;<<;;++<;<<;",
"<+ ;<<+;<+ ;<<+;<+ ;<<+;<+ ;<<+;<+ ;<<+;<+ ;<<+;<+ ;<<+;<+ ;<<+;",
"<  <<+ <<  <<+ <<  <<+ <<  <<+ <<  <<+ <<  <<+ <<  <<+ <<  <<+ <",
"5555555556555565656565666666565656555555555555555555555556555565",
"7777777787777777777777777877777787777777877777778787777787777777",
"7877777877777777777777788777777777777779997777777877777877777777",
"8775+7777775+7777775+7787795+7777775+7979775+7778775+7777775+777",
"778 +777778 +777778 +787878 +778778 +779778 +778778 +777778 +778",
"8788777777887777778877787788977777887797778877887788777777887787",
"7777777777777777777777877779977777777977777777877777777777777878",
"+888888+8+8+++++++8+8+ + +    + ++++++++8+8++8+8+888888+8+8+++++"
};
