/* XPM */
static char *_659537437210[] = {
/* columns rows colors chars-per-pixel */
"64 64 49 1 ",
"  c #0A0404",
". c #1B0B0B",
"X c #321414",
"o c #003607",
"O c #00360F",
"+ c #591B0D",
"@ c #431B1B",
"# c #700000",
"$ c #652E1E",
"% c #702214",
"& c #7B271E",
"* c #4E2020",
"= c #5F2727",
"- c #6A2C2C",
"; c #763222",
": c #00440B",
"> c #004E11",
", c #005819",
"< c #31520D",
"1 c #317C23",
"2 c #736411",
"3 c #A30000",
"4 c #982917",
"5 c #B92704",
"6 c #B9321E",
"7 c #923E2E",
"8 c #813535",
"9 c #983E3E",
"0 c #CA3E25",
"q c #957C15",
"w c #DA472C",
"e c #E34F30",
"r c #B44A4A",
"t c #538A27",
"y c #69942A",
"u c #6F9E2D",
"i c #B58E19",
"p c #81CC3A",
"a c #FFF000",
"s c #8FEE43",
"d c #99FF4C",
"f c #9DFF54",
"g c #A7FF64",
"h c #CE8888",
"j c #D39393",
"k c #C3FF95",
"l c #CBFFA5",
"z c #D5FFB6",
"x c None",
/* pixels */
"xxxxxxxxxxxxxxxxxxxxxxxxxxxxxxxxxxxxxxxxxxxxxxxxxxxxxxxxxxxxxxxx",
"xxxxxxxxxxxxxxxxxxxxxxxxxxxxxxxxxxxxxxxxxxxxxxxxxxxxxxxxxxxxxxxx",
"xxxxxxxxxxxxxxxxxxxxxxx*-88-*xxxxxxxxxxxxxxxxxxxxxxxxxxxxxxxxxxx",
"xxxxxxxxxxxxxxxxxxxxxx-87978-=xxxxxxxxxxxxxxxxxxxxxxxxxxxxxxxxxx",
"xxxxxxxxxxxxxxxxxxxxxX879rr98- xxxxxxxxxxxxxxxxxxxxxxxxxxxxxxxxx",
"xxxxxxxxxxxxxxxxxxxxx*89rrr978*xxxxxxxxxxxxxxxxxxxxxxxxxxxxxxxxx",
"xxxxxxxxxxxxxxxxxxxxx-79977997= xxxxxxxxxxxxxxxxxxxxxxxxxxxxxxxx",
"xxxxxxxxxxxxxxxxxxxxX9r98889r9=Xxxxxxxxxtxxxxxxxxxxxxxxxxxxxxxxx",
"xxxxxxxxxxxxxxxxxxxx8*X==8=X*$*@xxxxxxxxuxxxxxxxxxxxxxxxxxxxxxxx",
"xxxxxxxxxxxxxxxxxxxx=3aX@*Xa3==@xxxxxxxtpxxxxxxxxxxxxxxxxxxxxxxx",
"xxxxxxxxxxxxxxxxxxxx=X#*-8*#X-8Xxxxxxxxusxxxxxxxxxxxxxxxxxxxxxxx",
"xxxxxxxxxxxxxxxxxxxxx-8-@@-8--*=X@@ xxtpfxxxxxxxxxxxxxxxxxxxxxxx",
"xxxxxxxxxxxxxxxxxxxxx*@6ew4.+@*****=8=1sgxxxxxxxxxxxxxxxxxxxxxxx",
"xxxxxxxxxxxxxx1pxxxxxxX    X* @**==-88-tyxxxxxxxxxxxxxxxxxxxxxxx",
"xxxxxxxxxxxxxxxqfuxx*=*    *X X@*-=-$;8=*xxxxxxxxxxxxxxxxxxxxxxx",
"xxxxxxxxxxxxxxxxqi9=-$=    =X .*=8--$$-==*xxxxxxxxxxxxxxxxxxxxxx",
"xxxxxxxxxxxxxxxxxq888-@45w0=*X@=8-=-===**=@xxxxxxxxxxxxxxxxxxxxx",
"xxxxxxxxxxxxxxxxxx-8-$=X*==*XX*-=--==***=-&-usdu1xxxxxxxxxxxxxxx",
"xxxxxxxxxxxxxxxxxx-$$==@X    XX=-8=**@X@><2-skpxxxxxxxxxxxxxxxxx",
"xxxxxxxxxxxxxxsfl@===***@X  X@=$=g**@X.X@>2--xxxxxxxxxxxxxxxxxxx",
"xxxxxxxxxxxxxxxxx+*+@X@@@**@@@@**2X@X.X@X+&-==xxxxxxxxxxxxxxxxxx",
"xxxxxxxxxxxxxxxxx*=>+.X*2@@*=XXXX@*X.XX@.X+==*@xxxxxxxxxxxxxxxxx",
"xxxxxxxxxxxxxxxxx=-o+x.XX+*@*@X@++X@@X.X*=-7-=**xxxxxxxxxxxxxxxx",
"xxxxxxxxxxxxxxxx.-=O.xx..@@+XXXX@@@@+.X=-8898=**xxxxxxxxxxxxxxxx",
"xxxxxxxxxxxxxxxx*=*@.xxx.@.X@@XXXXX@@Xx++*=-=*=*xxxxxxxxxxxxxxxx",
"xxxxxxxxxxxxxxx@++@@xxxxx.X@@X....X@X.xx*=-98=8xxxxxxxxxxxxxxxxx",
"xxxxxxxxxxxxxx*=+XXXxxxxxx.XX..X...X..x*=88--8xxxxxxxxxxxxxxxxxx",
"xxxxxxxxxxxxx*-=@@XXxxxxxxx...XX@@X..X.xx***z1xxxxxxxxxxxxxxxxxx",
"xxxxxxxxxxxx*-=***@.xxxxxxx...XX@@X.@@@.xxxxxg,xxxxxxxxxxxxxxxxx",
"xxxxx.X*xxx-==**@X.xxxxxxxx@X.XXXXX.@@X@@xxxxxtxxxxxxxxxxxxxxxxx",
"xxxxxx.X**==*@X..xxxxxxxxx.X@XXXXXXX@X@**xxxxxxxxxxxxxxxxxxxxxxx",
"xxxxxxxX=***@X.xxxxxxxxxxx.@X@XXX@XXX@**=Xxxxxxxxxxxxxxxxxxxxxxx",
"xxxxxxxX=*=@Xxxxxxxxxxxxxx@*@X@@**@X@*===*xxxxxxxxxxxxxxxxxxxxxx",
"xxxxx.X+*=@Xxxxxxxxxxxxxx.***@XX@@X@*==--=xxxxxxxxxxxxxxxxxxxxxx",
"xxxx.X===@XxxxxxxxxxxxxxxX****@XXXX**=--;-Xxxxxxxxxxxxxxxxxxxxxx",
"xxxxxxxx@Xxxxxxxxxxxxxxxx@*==**.XXX*=-;88-*xxxxxxxxxxxxxxxxxxxxx",
"xxxxxxxxX.xxxxxxxxxxxxxxx*====*..xx*=-8988=xxxxxxxxxxxxxxxxxxxxx",
"xxxxxxx..xxxxxxxxxxxxxxx.*=$-=*.xxx*=8878-=xxxxxxxxxxxxxxxxxxxxx",
"xxxxxxxxxxxxxxxxxxxxxxxxX*$$=*@.xxxX=-;8;-=xxxxxxxxxxxxxxxxxxxxx",
"xxxxxxxxxxxxxxxxxxxxxxxx@*===*@.xxxX*-;;-==xxxxxxxxxxxxxxxxxxxxx",
"xxxxxxxxxxxxxxxxxxxxxxxx@*==*@Xxxxxx*=-;==*xxxxxxxxxxxxxxxxxxxxx",
"xxxxxxxxxxxxxxxxxxxxxxxx@@***X.xxxxxX*=-==*xxxxxxxxxxxxxxxxxxxxx",
"xxxxxxxxxxxxxxxxxxxxxxxx@X@*@..xxxxxX**==*Xxxxxxxxxxxxxxxxxxxxxx",
"xxxxxxxxxxxxxxxxxxxxxxxxxXXXX...xxxxXX*%*@Xxxxxxxxxxxxxxxxxxxxxx",
"xxxxxxxxxxxxxxxxxxxxxxxxx,sXX...xxxxxX-q%*Xxxxxxxxxxxxxxxxxxxxxx",
"xxxxxxxxxxxxxxxxxxxxxxxxxp*@X...xxxxxX*2*XXxxxxxxxxxxxxxxxxxxxxx",
"xxxxxxxxxxxxxxxxxxxxxxxxyxX@....xxxxxX@:*XXxxxxxxxxxxxxxxxxxxxxx",
"xxxxxxxxxxxxxxxxxxxxxxxxxxXXX...=xxxx=X*@@X=xxxxxxxxxxxxxxxxxxxx",
"xxxxxxxxxxxxxxxxxxxxxxxxxxxXX...*xxxx*@X@*X=xxxxxxxxxxxxxxxxxxxx",
"xxxxxxxxxxxxxxxxxxxxxxxxxxxXX...*xxxx@@@=*@*xxxxxxxxxxxxxxxxxxxx",
"xxxxxxxxxxxxxxxxxxxxxxxxxxxxXX..@xxxxXX@=*@*xxxxxxxxxxxxxxxxxxxx",
"xxxxxxxxxxxxxxxxxxxxxxxxxxxx=X...xxxxxX@=***xxxxxxxxxxxxxxxxxxxx",
"xxxxxxxxxxxxxxxxxxxxxxxxxxxx=@..XxxxxxX@=**xxxxxxxxxxxxxxxxxxxxx",
"xxxxxxxxxxxxxxxxxxxxxxxxxxxx=@@.XxxxxxX@**xxxxxxxxxxxxxxxxxxxxxx",
"xxxxxxxxxxxxxxxxxxxxxxxxxxx*=x*@@xxxxxX@**xxxxxxxxxxxxxxxxxxxxxx",
"xxxxxxxxxxxxxxxxxxxxxxxxxxx*hx=hxxxxxxXX@@xxxxxxxxxxxxxxxxxxxxxx",
"xxxxxxxxxxxxxxxxxxxxxxxxxxxxxxxxxxxxxx@@*@xxxxxxxxxxxxxxxxxxxxxx",
"xxxxxxxxxxxxxxxxxxxxxxxxxxxxxxxxxxxxxx*****xxxxxxxxxxxxxxxxxxxxx",
"xxxxxxxxxxxxxxxxxxxxxxxxxxxxxxxxxxxxx**--=*xxxxxxxxxxxxxxxxxxxxx",
"xxxxxxxxxxxxxxxxxxxxxxxxxxxxxxxxxxxxx*===-==xxxxxxxxxxxxxxxxxxxx",
"xxxxxxxxxxxxxxxxxxxxxxxxxxxxxxxxxxxx*--=x*--=xxxxxxxxxxxxxxxxxxx",
"xxxxxxxxxxxxxxxxxxxxxxxxxxxxxxxxxxxx**j*x@@j=xxxxxxxxxxxxxxxxxxx",
"xxxxxxxxxxxxxxxxxxxxxxxxxxxxxxxxxxxxxxxxxxxxxxxxxxxxxxxxxxxxxxxx",
"xxxxxxxxxxxxxxxxxxxxxxxxxxxxxxxxxxxxxxxxxxxxxxxxxxxxxxxxxxxxxxxx"
};
