/* XPM */
static char *_659294853511[] = {
/* columns rows colors chars-per-pixel */
"64 64 46 1 ",
"  c #0A0404",
". c #1B0B0B",
"X c #321414",
"o c #591B0D",
"O c #431B1B",
"+ c #700000",
"@ c #652E1E",
"# c #762512",
"$ c #702214",
"% c #7B271E",
"& c #4E2020",
"* c #5F2727",
"= c #6A2C2C",
"- c #702E2E",
"; c #763222",
": c #004E11",
"> c #005819",
", c #31520D",
"< c #036A1E",
"1 c #317C23",
"2 c #736411",
"3 c #A30000",
"4 c #982917",
"5 c #B9321E",
"6 c #923E2E",
"7 c #813535",
"8 c #983E3E",
"9 c #CA3E25",
"0 c #957C15",
"q c #DA472C",
"w c #E34F30",
"e c #B44A4A",
"r c #538A27",
"t c #69942A",
"y c #6F9E2D",
"u c #B58E19",
"i c #81CC3A",
"p c #FFF000",
"a c #8FEE43",
"s c #99FF4C",
"d c #9DFF54",
"f c #A7FF64",
"g c #CE8888",
"h c #D39393",
"j c #C3FF95",
"k c None",
/* pixels */
"kkkkkkkkkkkkkkkkkkkkkkkkkkkkkkkkkkkkkkkkkkkkkkkkkkkkkkkkkkkkkkkk",
"kkkkkkkkkkkkkkkkkkkkkkkkkkkkkkkkkkkkkkkkkkkkkkkkkkkkkkkkkkkkkkkk",
"kkkkkkkkkkkkkkkkkkkkkkkkkkkkkkkkkkkkkkkkkkkkkkkkkkkkkkkkkkkkkkkk",
"kkkkkkkkkkkkkkkkkkkkkkkkkkkkkkkkkkkkkkkkkkkkkkkkkkkkkkkkkkkkkkkk",
"kkkkkkkkkkkkkkkkkkkkkkkkkkkkkkkkkkkkkkkkkkkkkkkkkkkkkkkkkkkkkkkk",
"kkkkkkkkkkkkkkkkkkkkkkkkkkkkk&=77=&kkkkkkkkkkkkkkkkkkkkkkkkkkkkk",
"kkkkkkkkkkkkkkkkkkkkkkkkkkkk=776867&kkkkkkkkkkkkkkkkkkkkkkkkkkkk",
"kkkkkkkkkkkkkkkkkkkkkkkkkkk&778ee867=kkkkkkkkkkkkkkkkkkkkkkkkkkk",
"kkkkkkkkkkkkkkkkkkkkkkkkkkk=768eee87&kkkkkkkkkkkkkkkkkkkkkkkkkkk",
"kkkkkkkkkkkkkkkkkkkkkkkkkkk768866886=kkkkkkkkkkkkkkkkkkkkkkkkkkk",
"kkkkkkkkkkkkkkkkkkkkkkkkkkk=6677=766=kkkkkkkkkkkkkkkkkkkkkkkkkkk",
"kkkkkkkkkkkkkkkkkkkkkkkkkkk=ee87778e=Xkkkkkkkkikkkkkkkkkkkkkkkkk",
"kkkkkkkkkkkkkkkkkkkkkkkkkkX&&X*7**X&*Xkkkkkkkarkkkkkkkkkkkkkkkkk",
"kkkkkkkkkkkkkkkkkkk1kkkkkkX*3pX&OXp3*=kkkkkkaikkkkkkkkkkkkkkkkkk",
"kkkkkkkkkkkkkkkkkkkk1kkkkkX=X+&7=&+X=Xkkkkidakkkkkkkkkkkkkkkkkkk",
"kkkkkkkkkkkkkkkkkkkky1kkkkk&=7=XX=7=&.***1afrkkkkkkkkkkkkkkkkkkk",
"kkkkkkkkkkkkkkkkkkkk0u1kk**Xo.4qw5.&***@;=itkkkkkkkkkkkkkkkkkkkk",
"kkkkkkkkkkkkkkkkkkkkk0u*=@*OXX    XXO*=7@@*Okkkkkkkkkkkkkkkkkkkk",
"kkkkkkkkkkkkkkkkkkkkkk&=7=*XX&    &XX*===*&&kkkkkkkkkkkkkkkkkkkk",
"kkkkkkkkkkkkkkkkkkkkkk=77@@O X$9q4&oX*7*&&&*Oyasykkkkkkkkkkkkkkk",
"kkkkkkkkkkkkkkkkkkkkkk=@=**&  &**&XX&*@&OXO%*ajkkkkkkkkkkkkkkkkk",
"kkkkkkkkkkkkkkkkkkkkkk*@&&&OXX    X@*7&OX.24%Okkkkkkkkkkkkkkkkkk",
"kkkkkkkkkkkkkkkkkk>d1&oOXOO&&OX X&&7f2X.X%2,,Okkkkkkkkkkkkkkkkkk",
"kkkkkkkkkkkkkkkkkkkkk&&o.XOo2&*XXXXO&X.XXO:,o*.kkkkkkkkkkkkkkkkk",
"kkkkkkkkkkkkkkkk*==k**@oX.XXXX&OXOooXOO..XOOO&Okkkkkkkkkkkkkkkkk",
"kkkkkkkkkkkkkkkk**7==*@oX..OOoXOXOXXXXX&&kXXO&&.kkkkkkkkkkkkkkkk",
"kkkkkkkkkkkkk=**=O=eO&o.Xk.O.OOXXOOOOOOXXk.XO&&Okkkkkkkkkkkkkkkk",
"kkkkkkkkkkkk*7=O*O*OOOoXkkkXXOOX....OOX...XO&&OOkkkkkkkkkkkkkkkk",
"kkkkkkkkkkkkk*7*OXO=O.oXkkkXXX..X..OXOXO&&*OO><kkkkkkkkkkkkkkkkk",
"kkkkkkkkkkkkkk*eOX=7=..kkkkk...XXX#@--&**&OXXr1kkkkkkkkkkkkkkkkk",
"kkkkkkkkkkkkkkkOXOee7..kkkkk...XO#-&-&&OXX..kkrkkkkkkkkkkkkkkkkk",
"kkkkkkkkkkkkkkkkkXX...kkkkkkOX.XO@7*&OOX..kkkkkkkkkkkkkkkkkkkkkk",
"kkkkkkkkkkkkkkkkkkkXXkkkkkkX.OXXOo#-OOX&&kkkkkkkkkkkkkkkkkkkkkkk",
"kkkkkkkkkkkkkkkkkkkkkkkkkk.OXOXXXOo#&o&&*Xkkkkkkkkkkkkkkkkkkkkkk",
"kkkkkkkkkkkkkkkkkkkkkkkkkkO&OXOO&&Oo&&***&kkkkkkkkkkkkkkkkkkkkkk",
"kkkkkkkkkkkkkkkkkkkkkkkkkk&&&OXXOOXO&**==*kkkkkkkkkkkkkkkkkkkkkk",
"kkkkkkkkkkkkkkkkkkkkkkkkkX&&&&OXXXX&&*==;=Xkkkkkkkkkkkkkkkkkkkkk",
"kkkkkkkkkkkkkkkkkkkkkkkkkO&**&&.XXX&*=;77=&kkkkkkkkkkkkkkkkkkkkk",
"kkkkkkkkkkkkkkkkkkkkkkkkk&****&..kk&*=7877*kkkkkkkkkkkkkkkkkkkkk",
"kkkkkkkkkkkkkkkkkkkkkkkkk&*@=*&.Xkk&*7767=*kkkkkkkkkkkkkkkkkkkkk",
"kkkkkkkkkkkkkkkkkkkkkkkkX&@@*&O.kkkX*=;7;=*kkkkkkkkkkkkkkkkkkkkk",
"kkkkkkkkkkkkkkkkkkkkkkkkO&***&O.kkkX&=;;=**kkkkkkkkkkkkkkkkkkkkk",
"kkkkkkkkkkkkkkkkkkkkkkkkO&**&OXXkkkk&*=;**&kkkkkkkkkkkkkkkkkkkkk",
"kkkkkkkkkkkkkkkkkkkkkkkkOO&&&X.XkkkkX&*=**&kkkkkkkkkkkkkkkkkkkkk",
"kkkkkkkkkkkkkkkkkkkkkkkkkXO&O..kkkkkX&&**&Xkkkkkkkkkkkkkkkkkkkkk",
"kkkkkkkkkkkkkkkkkkkkkkkkkXXOX..kkkkkXX&$&OXkkkkkkkkkkkkkkkkkkkkk",
"kkkkkkkkkkkkkkkkkkkkkkkkkX>aX..kkkkkkX=0$&Xkkkkkkkkkkkkkkkkkkkkk",
"kkkkkkkkkkkkkkkkkkkkkkkkkX><O..kkkkkkX&2&XXkkkkkkkkkkkkkkkkkkkkk",
"kkkkkkkkkkkkkkkkkkkkkkkkkXXO...kkkkkkXO&&XXkkkkkkkkkkkkkkkkkkkkk",
"kkkkkkkkkkkkkkkkkkkkkkkkkXXXX..kkkkkk*X&OOXkkkkkkkkkkkkkkkkkkkkk",
"kkkkkkkkkkkkkkkkkkkkkkkkkkXX..Xkkkkkk&OXO&Xkkkkkkkkkkkkkkkkkkkkk",
"kkkkkkkkkkkkkkkkkkkkkkkkkkXX..XkkkkkkOOO*&Okkkkkkkkkkkkkkkkkkkkk",
"kkkkkkkkkkkkkkkkkkkkkkkkkkXX..XkkkkkkXXO*&Okkkkkkkkkkkkkkkkkkkkk",
"kkkkkkkkkkkkkkkkkkkkkkkkkk*X..XkkkkkkXXO*&&kkkkkkkkkkkkkkkkkkkkk",
"kkkkkkkkkkkkkkkkkkkkkkkkkk*O..XkkkkkkkXO*&kkkkkkkkkkkkkkkkkkkkkk",
"kkkkkkkkkkkkkkkkkkkkkkkkkk*OO.XkkkkkkkXO&&kkkkkkkkkkkkkkkkkkkkkk",
"kkkkkkkkkkkkkkkkkkkkkkkkk&*.&OkkkkkkkkXO&&kkkkkkkkkkkkkkkkkkkkkk",
"kkkkkkkkkkkkkkkkkkkkkkkkkg*kg*kkkkkkkk&&&&&kkkkkkkkkkkkkkkkkkkkk",
"kkkkkkkkkkkkkkkkkkkkkkkkkkkkkkkkkkkkk&&==*&kkkkkkkkkkkkkkkkkkkkk",
"kkkkkkkkkkkkkkkkkkkkkkkkkkkkkkkkkkkkk&***=**kkkkkkkkkkkkkkkkkkkk",
"kkkkkkkkkkkkkkkkkkkkkkkkkkkkkkkkkkkk&==*k&==*kkkkkkkkkkkkkkkkkkk",
"kkkkkkkkkkkkkkkkkkkkkkkkkkkkkkkkkkkk&&h&kOOh*kkkkkkkkkkkkkkkkkkk",
"kkkkkkkkkkkkkkkkkkkkkkkkkkkkkkkkkkkkkkkkkkkkkkkkkkkkkkkkkkkkkkkk",
"kkkkkkkkkkkkkkkkkkkkkkkkkkkkkkkkkkkkkkkkkkkkkkkkkkkkkkkkkkkkkkkk"
};
