/* XPM */
static char *_659537456001[] = {
/* columns rows colors chars-per-pixel */
"64 64 55 1 ",
"  c #030101",
". c #0A0404",
"X c #0D0505",
"o c #1A0A0A",
"O c #1B0B0B",
"+ c #261010",
"@ c #301414",
"# c #321414",
"$ c #3D1919",
"% c #003607",
"& c #591B0D",
"* c #431B1B",
"= c #481E1E",
"- c #700000",
"; c #652E1E",
": c #702214",
"> c #4E2020",
", c #552323",
"< c #5F2727",
"1 c #692B2B",
"2 c #6A2C2C",
"3 c #702E2E",
"4 c #763222",
"5 c #00440B",
"6 c #004E11",
"7 c #005819",
"8 c #1B7220",
"9 c #317C23",
"0 c #736411",
"q c #A30000",
"w c #982917",
"e c #B9321E",
"r c #923E2E",
"t c #813535",
"y c #8D3939",
"u c #983E3E",
"i c #CA3E25",
"p c #957C15",
"a c #DA472C",
"s c #E34F30",
"d c #9E4040",
"f c #B44A4A",
"g c #538A27",
"h c #69942A",
"j c #6F9E2D",
"k c #C79E1B",
"l c #81CC3A",
"z c #FFF000",
"x c #8FEE43",
"c c #99FF4C",
"v c #A7FF64",
"b c #CE8888",
"n c #DEAFAF",
"m c #D5FFB6",
"M c None",
/* pixels */
"MMMMMMMMMMMMMMMMMMMMMMMMMMMMMMMMMMMMMMMMMMMMMMMMMMMMMMMMMMMMMMMM",
"MMMMMMMMMMMMMMMMMMMMMMMMMMMMMMMMMMMMMMMMMMMMMMMMMMMMMMMMMMMMMMMM",
"MMMMMMMMMMMMMMMMMMMMMMMMMMMMMMMMMMMMMMMMMMMMMMMMMMMMMMMMMMMMMMMM",
"MMMMMMMMMMMMMMMMMMMMMMMMMMMMMMMMMMMMMMMMMMMMMMMMMMMMMMMMMMMMMMMM",
"MMMMMMMMMMMMMMMMMMMMMMMMMMMMMMMMMMMMMMMMMMMMMMMMMMMMMMMMMMMMMMMM",
"MMMMMMMMMMMMMMMMMMMMMMMMMMMMMMMMMMMMMMMMMMMMMMMMMMMMMMMMMMMMMMMM",
"MMMMMMMMMMMMMMMMMMMMMMMMMMMMMMMMMMMMM>2tt2>MMMMMMMMMMMMMMMMMMMMM",
"MMMMMMMMMMMMMMMMMMMMMMMMMMMMMMMMMMMM2trurtt2MMMMMMMMMMMMMMMMMMMM",
"MMMMMMMMMMMMMMMMMMMMMMMMMMMMMMMMMMM#truffuttMMMMMMMMMMMMMMMMMMMM",
"MMMMMMMMMMMMMMMMMMMMMMMMMMMMMMMMMMM>tufffurt>MMMMMMMMMMMMMMMMMMM",
"MMMMMMMMMMMMMMMMMMMMMMMMMMMMMMMMMMM2ruurruurtMMMMMMMMMMMMMMMMMMM",
"MMMMMMMMMMMMMMMMMMMMMMMMMMMMMMMMMM#ufutttuffuMMMMMMMMMMMMMMMMMMM",
"MMMMMMMMMMMMMMMMMMMMMMMMMMMMMMMMMM#<>#<<t<#>>#MMMMMMMMMMMMMMMMMM",
"MMMMMMMMMMMMMMMMMMMMMMMMM0hMMMMMyMt<qz#*>#zq<#MMMMMMMMMMMMMMMMMM",
"MMMMMMMMMMMMMMMMMMMMMMMMMM0k8MM;.*#t#->2t>-#tMMMMMMMMMMMMMMMMMMM",
"MMMMMMMMMMMMMMMMMMMMMMMMMMM0mht3<>>>2t2##2t2>MMMMMMMMMMMMMMMMMMM",
"MMMMMMMMMMMMMMMMMMMMMMMMMMMM0<d<2<2<>OesawO&><MMMMgjMMMMMMMMMMMM",
"MMMMMMMMMMMMMMMMMMMMMMMMMMM;3tt>2<>*##....#>*><>McxMMMMMMMMMMMMM",
"MMMMMMMMMMMMMMMMMMMMMMMMMMM<33t<22t.#<....<##*;2mxMMMMMMMMMMMMMM",
"MMMMMMMMMMMMMMMMMMMMMMMMMM*#<;33222t&>wai:>##*2t;2MMMMMMMMMMMMMM",
"MMMMMMMMMMMMMMMMMMMMMMMMMM*&**<<+tu<.#><<>###>;2t2MMMMMMMMMMMMMM",
"MMMMMMMMMMMMMMMMMMMMMMMM9<&&#uu=$tu2<##...O#*><;;2MMMMMMMMMMMMMM",
"MMMMMMMMMMMMMMMMMMMMMMMMMO<<=2u+t2n<;<*#..#*>>><<<*MMMMMMMMMMMMM",
"MMMMMMMMMMMMMMMMMMMMMMMMM<21#2uO2Xd+>****>>***#*&>&MMMMMMMMMMMMM",
"MMMMMMMMMMMMMMMMMMMMMMMMO&<$$<nXX  .O##<>**ve#O%6<>MMMMMMMMMMMMM",
"MMMMMMMMMMMMMMMMMMMMMMMM>&1u1+d   O#+X*=*>&##OM%&2<79xMMMMMMMMMM",
"MMMMMMMMMMMMMMMMMMMMMMM><,12,$XXO  XXX##&**OOMMO*<2OMMMMMMMMMMMM",
"MMMMMMMMMMMMMMMMMMMMMMM4t,<,@+XO #####**#O*OMMMO*><>MMMMMMMMMMMM",
"MMMMMMMMMMMMMMMMMMMMMMM>3,=@+OX#*#OOOO#**#OMMMMMO>&#>MMMMMMMMMMM",
"MMMMMMMMMMMMMMMMMMMMMMMO<+@OOMOO#OOO#OO##OMMMMMMO##*>MMMMMMMMMMM",
"MMMMMMMMMMMMMMMMMMMMMMMM>+X  M#OO#**##OOOOMMMMMMM*##><MMMMMMMMMM",
"MMMMMMMMMMMMMMMMMMMMMMMMMMMMMM**O#**##OOOOMMMMMMM*>#><MMMMMMMMMM",
"MMMMMMMMMMMMMMMMMMMMMMMMMMMMMMO#O##***##OOMMMMMMMO1@<>MMMMMMMMMM",
"MMMMMMMMMMMMMMMMMMMMMMMMMMMMM####O#*,*###*MMMMMMMM==<>MMMMMMMMMM",
"MMMMMMMMMMMMMMMMMMMMMMMMMMMMM#**#OO***#*=*#MMMMMMM#,<OMMMMMMMMMM",
"MMMMMMMMMMMMMMMMMMMMMMMMMMMMO#***##****=,=*MMMMMMM@1<OMMMMMMMMMM",
"MMMMMMMMMMMMMMMMMMMMMMMMMMMMO**>**>>**,=1<=@MMMMM*>>>MMMMMMMMMMM",
"MMMMMMMMMMMMMMMMMMMMMMMMMMMM#***#***#*,=;;1*MMMMM****MMMMMMMMMMM",
"MMMMMMMMMMMMMMMMMMMMMMMMMMMM#*>*####**=,;41=MMMMM****MMMMMMMMMMM",
"MMMMMMMMMMMMMMMMMMMMMMMMMMMO#*>*#OOO#>>=3;;,MMMMM****MMMMMMMMMMM",
"MMMMMMMMMMMMMMMMMMMMMMMMMMMO*>>*##OO#*1,1241MMMMMMMMMMMMMMMMMMMM",
"MMMMMMMMMMMMMMMMMMMMMMMMMMMO*>>*##OMO#==1;;<MMMMMMMMMMMMMMMMMMMM",
"MMMMMMMMMMMMMMMMMMMMMMMMMMMO*>>*#OOMM#*=<1;;MMMMMMMMMMMMMMMMMMMM",
"MMMMMMMMMMMMMMMMMMMMMMMMMMM#*>>*#OMMM##,<<1<MMMMMMMMMMMMMMMMMMMM",
"MMMMMMMMMMMMMMMMMMMMMMMMMMM##**#OOMMMO#*=1=>MMMMMMMMMMMMMMMMMMMM",
"MMMMMMMMMMMMMMMMMMMMMMMMMMM#*>**OOMMMM##***#MMMMMMMMMMMMMMMMMMMM",
"MMMMMMMMMMMMMMMMMMMMMMMMMMM#*>>*OOMMMM#*#@@*MMMMMMMMMMMMMMMMMMMM",
"MMMMMMMMMMMMMMMMMMMMMMMMMMMO>v>>OOMMMMO#=1=#MMMMMMMMMMMMMMMMMMMM",
"MMMMMMMMMMMMMMMMMMMMMMMMMMMM*l**OO<MMM##5k0OMMMMMMMMMMMMMMMMMMMM",
"MMMMMMMMMMMMMMMMMMMMMMMMMMMMO##OOO>MMM**<p5*MMMMMMMMMMMMMMMMMMMM",
"MMMMMMMMMMMMMMMMMMMMMMMMMMMMMOOOOO*>MM<*>5>*tMMMMMMMMMMMMMMMMMMM",
"MMMMMMMMMMMMMMMMMMMMMMMMMMMMMMOOOOO>MM<*>>>*<MMMMMMMMMMMMMMMMMMM",
"MMMMMMMMMMMMMMMMMMMMMMMMMMMMMMOOOOO*MM>*><>*>MMMMMMMMMMMMMMMMMMM",
"MMMMMMMMMMMMMMMMMMMMMMMMMMMMMM#OOOOMMM>*><>*>MMMMMMMMMMMMMMMMMMM",
"MMMMMMMMMMMMMMMMMMMMMMMMMMMMMM#OO##MMM**><>*MMMMMMMMMMMMMMMMMMMM",
"MMMMMMMMMMMMMMMMMMMMMMMMMMMMMM#>>##MMM#*><>*MMMMMMMMMMMMMMMMMMMM",
"MMMMMMMMMMMMMMMMMMMMMMMMMMMMMM>>>*OMMMM#><>MMMMMMMMMMMMMMMMMMMMM",
"MMMMMMMMMMMMMMMMMMMMMMMMMMMMM>>>>>*MMMM*><>MMMMMMMMMMMMMMMMMMMMM",
"MMMMMMMMMMMMMMMMMMMMMMMMMMMMM>>M>*>MMMM><2<>MMMMMMMMMMMMMMMMMMMM",
"MMMMMMMMMMMMMMMMMMMMMMMMMMMMMb*M*b>MMM><<<2<MMMMMMMMMMMMMMMMMMMM",
"MMMMMMMMMMMMMMMMMMMMMMMMMMMMMMMMMMMMM>22<>>22MMMMMMMMMMMMMMMMMMM",
"MMMMMMMMMMMMMMMMMMMMMMMMMMMMMMMMMMMMM>b2>M>b>MMMMMMMMMMMMMMMMMMM",
"MMMMMMMMMMMMMMMMMMMMMMMMMMMMMMMMMMMMMMMMMMMMMMMMMMMMMMMMMMMMMMMM",
"MMMMMMMMMMMMMMMMMMMMMMMMMMMMMMMMMMMMMMMMMMMMMMMMMMMMMMMMMMMMMMMM"
};
