/* XPM */
static char *_659537469740[] = {
/* columns rows colors chars-per-pixel */
"64 64 56 1 ",
"  c #0A0404",
". c #1B0B0B",
"X c #3D1409",
"o c #291111",
"O c #321414",
"+ c #3D1919",
"@ c #5F0000",
"# c #591B0D",
"$ c #431B1B",
"% c #481E1E",
"& c #700000",
"* c #6A2010",
"= c #652E1E",
"- c #762512",
"; c #4E2020",
": c #5F2727",
"> c #682A2A",
", c #6A2C2C",
"< c #702E2E",
"1 c #763222",
"2 c #004E11",
"3 c #005819",
"4 c #31520D",
"5 c #036A1E",
"6 c #317C23",
"7 c #734E02",
"8 c #536E19",
"9 c #736411",
"0 c #810000",
"q c #920000",
"w c #A30000",
"e c #B40000",
"r c #982917",
"t c #B92704",
"y c #B9321E",
"u c #9E3227",
"i c #923E2E",
"p c #813535",
"a c #843636",
"s c #983E3E",
"d c #CC0000",
"f c #E10000",
"g c #CA3E25",
"h c #957C15",
"j c #E34F30",
"k c #A04242",
"l c #B44A4A",
"z c #BC5A5A",
"x c #69942A",
"c c #6F9E2D",
"v c #C79E1B",
"b c #FFF000",
"n c #8FEE43",
"m c #9DFF54",
"M c #A7FF64",
"N c None",
/* pixels */
"NNNNNNNNNNNNNNNNNNNNNNNNNNNNNNNNNNNNNNNNNNNNNNNNNNNNNNNNNNNNNNNN",
"NNNNNNNNNNNNNNNNNNNNNNNNNNNNNNNNNNNNNNNNNNNNNNNNNNNNNNNNNNNNNNNN",
"NNNNNNNNNNNNNNNNNNNNNNNNNNNNNNNNNNNNNNNNNNNNNNNNNNNNNNNNNNNNNNNN",
"NNNNNNNNNNNNNNNNNNNNNNNNNNNNNNNNNNfNNNNNNNNNNNNNNNNNNNNNNNNNNNNN",
"NNNNNNNNNNNNNNNNNNNNNNNNNNNNNNNNNNNNNNNNNNNNNNNNNNNNNNNNNNNNNNNN",
"NNNNNNNNNNNNNNNNNNNNNNNNNNNNNNNNNfNNfNNNNNNNNNNNNNNNNNNNNNNNNNNN",
"NNNNNNNNNNNNNNNNNNNNNNNNNNNNNNNNNNNfNNNNNNNNNNNNNNNNNNNNNNNNNNNN",
"NNNNNNNNNNNNNNNNNNNNNNNNNNNNNNNNNpfdip,NNNNNNNNNNNNNNNNNNNNNNNNN",
"NNNNNNNNNNNNNNNNNNNNNNNNNNNNNNNNpisllsp,NNNNNNNNNNNNNNNNNNNNNNNN",
"NNNNNNNNNNNNNNNNNNNNNNNNNNNNNNN;peakksap;NNNNNNNNNNNNNNNNNNNNNNN",
"NNNNNNNNNNNNNNNNNNNNNNNNNNNNNNN,e&0aksaa:NNNNNNNNNNNNNNNNNNNNNNN",
"NNNNNNNNNNNNNNNNNNNNNNNNNNNNNNO%e0p>aka::ONNNNNNNNNNNNNNNNNNNNNN",
"NNNNNNNNNNNNNNNNNNNNNNNNNNNNNN%>oo:%o%>%;$NNNNNNNNNNNNNNNNNNNNNN",
"NNNNNNNNNNNNNNNNNNNNNNNNNNNNNN%obw++ bw>:$NNNNNNNNNNNNNNNNNNNNNN",
"NNNNNNNNNNNNNNNNNNNNNNNNNNNNNN: w%a>+wo>+NNNNNNNNNNNNNNNNNNNNNNN",
"NNNNNNNNNNNNNNNNNNNNNNNNNNNNNNN%>+ %>>%+.NNNNNNNNNNNNNNNNNNNNNNN",
"NNNNNNNNNNNNNNNNNNNNNNNNNNNNNNN;ygjrX+o$NNNNNNNcNNNNNNNNNNNNNNNN",
"NNNNNNNNNNNNNNNNNNNNNNNNNNNNNNNN      oONNNNNNNnNNNNNNNNNNNNNNNN",
"NNNNNNNNNNNNNNNNNNNNNNNNNNNNNNNN#     O NNNNNNcmNNNNNNNNNNNNNNNN",
"NNNNNNNNNNNNNNNNNNNNNNNN9hNN;.:$rgt*##O;;,,;;NnMNNNNNNNNNNNNNNNN",
"NNNNNNNNNNNNNNNNNNNNNNNNN9hvp=:;Ouu>%+;;,ppp,;;xNNNNNNNNNNNNNNNN",
"NNNNNNNNNNNNNNNNNNNNNNNNNN57=pp:;X . O;:=p8==,:ONNNNNNNNNNNNNNNN",
"NNNNNNNNNNNNNNNNNNNNNNNNNNO=,,,:O    ;,p,,:::,,:NNNNNNNNNNNNNNNN",
"NNNNNNNNNNNNNNNNNNNNNNNNNN$::=:O.    XX;:;$;::::NNNNNNNNNNNNNNNN",
"NNNNNNNNNNNNNNNNNNNNNNNNNN$;:h9XX    .$$::$OO;;;cNNNNNNNNNNNNNNN",
"NNNNNNNNNNNNNNNNNNNNNNNNNN$$$XO$O.  X$;;;$O..O22ncNNNNNNNNNNNNNN",
"NNNNNNNNNNNNNNNNNNNNNNNNNNO;OO$O.O.OO.O;$$O..O;:ONNNNNNNNNNNNNNN",
"NNNNNNNNNNNNNNNNNNNNNNNNNN.$X$$$;$O;$O.OXOO..O;;:NNNNNNNNNNNNNNN",
"NNNNNNNNNNNNNNNNNNNNNNNNNN.O.$O;$O OX$$$$O...;-;.NNNNNNNNNNNNNNN",
"NNNNNNNNNNNNNNNNNNNNNNNN.;#X.O;$X @..OXO...$;#;OONNNNNNNNNNNNNNN",
"NNNNNNNNNNNNNNNNNNNNNNN;:;X..O$X.@qq@..$$O$<p<<:ONNNNNNNNNNNNNNN",
"NNNNNNNNNNNNNNNNNNNNN;::8:;...O.@qOO$$$$O$<:<<p<;NNNNNNNNNNNNNNN",
"NNNNNNNNNNNNNNNNNN.:,p,4#OO.....@$;;:<::;;;$$;::;NNNNNNNNNNNNNNN",
"NNNNNNNNNNNNNNN$;:,,,:;##OO..NNNOz;pp<::::OOOOONNNNNNNNNNNNNNNNN",
"NNNNNNNNNNNNNN$;OO$;:;.O..NNNNN.O$:<:$$$$;ONNNNNNNNNNNNNNNNNNNNN",
"NNNNNNNNNNNNNNNN...:;.NNNNNNNN.OOz:;OO..OOONNNNNNNNNNNNNNNNNNNNN",
"NNNNNNNNNNNNNNNO.ONO;NNNNNNNN.;$O$$;$OOO;;ONNNNNNNNNNNNNNNNNNNNN",
"NNNNNNNNNNNNNNN.NNNOONNNNNNNN;:;O$$$OOO;::O.NNNNNNNNNNNNNNNNNNNN",
"NNNNNNNNNNNNNNNNNNNONNNNNNNN.:,:$O$OOO;::=;.NNNNNNNNNNNNNNNNNNNN",
"NNNNNNNNNNNNNNNNNNNNNNNNNNNN;,,=;OO..O::1p:.NNNNNNNNNNNNNNNNNNNN",
"NNNNNNNNNNNNNNNNNNNNNNNNNNNN:181:O..O$:=p1,.NNNNNNNNNNNNNNNNNNNN",
"NNNNNNNNNNNNNNNNNNNNNNNNNNN.,88,:O..O;:,pp1;NNNNNNNNNNNNNNNNNNNN",
"NNNNNNNNNNNNNNNNNNNNNNNNNNN;,p=,;..NO;::18,;NNNNNNNNNNNNNNNNNNNN",
"NNNNNNNNNNNNNNNNNNNNNNNNNNN;1p,:O..N.;;:11,;NNNNNNNNNNNNNNNNNNNN",
"NNNNNNNNNNNNNNNNNNNNNNNNNNN:1,:;O.NNN$$::,:;NNNNNNNNNNNNNNNNNNNN",
"NNNNNNNNNNNNNNNNNNNNNNNNNNN:,:;OO.NNNO;;:,:;NNNNNNNNNNNNNNNNNNNN",
"NNNNNNNNNNNNNNNNNNNNNNNNNNN;::;$..NNNO$;2h:$NNNNNNNNNNNNNNNNNNNN",
"NNNNNNNNNNNNNNNNNNNNNNNNNNN$;;;$...NNN$$;9;$NNNNNNNNNNNNNNNNNNNN",
"NNNNNNNNNNNNNNNNNNNNNNNNNNN36;$O....NNN$O$;$NNNNNNNNNNNNNNNNNNNN",
"NNNNNNNNNNNNNNNNNNNNNNNNNNNm3$;$OO...N.OOOOONNNNNNNNNNNNNNNNNNNN",
"NNNNNNNNNNNNNNNNNNNNNNNNNNNNO.OOOOO..NO$;::$NNNNNNNNNNNNNNNNNNNN",
"NNNNNNNNNNNNNNNNNNNNNNNNNNNNN.....OO.N.O$;$ONNNNNNNNNNNNNNNNNNNN",
"NNNNNNNNNNNNNNNNNNNNNNNNNNNNNNNN..OO.N.O$$O.NNNNNNNNNNNNNNNNNNNN",
"NNNNNNNNNNNNNNNNNNNNNNNNNNNNNNNN..$O.N.OOOO.NNNNNNNNNNNNNNNNNNNN",
"NNNNNNNNNNNNNNNNNNNNNNNNNNNNNNN..O$..NN.OO..NNNNNNNNNNNNNNNNNNNN",
"NNNNNNNNNNNNNNNNNNNNNNNNNNNNNN...O$..NN....NNNNNNNNNNNNNNNNNNNNN",
"NNNNNNNNNNNNNNNNNNNNNNNNNNNNN....OO.NN.OOOONNNNNNNNNNNNNNNNNNNNN",
"NNNNNNNNNNNNNNNNNNNNNNNNNNNNNNNNN..NNN;$$;;.NNNNNNNNNNNNNNNNNNNN",
"NNNNNNNNNNNNNNNNNNNNNNNNNNNNNNNNNNNNNO$.N.;$NNNNNNNNNNNNNNNNNNNN",
"NNNNNNNNNNNNNNNNNNNNNNNNNNNNNNNNNNNNN..NNNO.NNNNNNNNNNNNNNNNNNNN",
"NNNNNNNNNNNNNNNNNNNNNNNNNNNNNNNNNNNNNNNNNNNNNNNNNNNNNNNNNNNNNNNN",
"NNNNNNNNNNNNNNNNNNNNNNNNNNNNNNNNNNNNNNNNNNNNNNNNNNNNNNNNNNNNNNNN",
"NNNNNNNNNNNNNNNNNNNNNNNNNNNNNNNNNNNNNNNNNNNNNNNNNNNNNNNNNNNNNNNN",
"NNNNNNNNNNNNNNNNNNNNNNNNNNNNNNNNNNNNNNNNNNNNNNNNNNNNNNNNNNNNNNNN"
};
