/* XPM */
static char *_659537476641[] = {
/* columns rows colors chars-per-pixel */
"64 64 56 1 ",
"  c black",
". c #1B0B0B",
"X c #3D1409",
"o c #321414",
"O c #00280B",
"+ c #003607",
"@ c #5F0000",
"# c #591B0D",
"$ c #431B1B",
"% c #700000",
"& c #652E1E",
"* c #7B271E",
"= c #4E2020",
"- c #5F2727",
"; c #702E2E",
": c #763222",
"> c #004E11",
", c #31520D",
"< c #734E02",
"1 c #736411",
"2 c #810000",
"3 c #920000",
"4 c #A30000",
"5 c #B40000",
"6 c #BC0000",
"7 c #982917",
"8 c #B92704",
"9 c #813535",
"0 c #C50000",
"q c #CC0000",
"w c #D30000",
"e c #DA0000",
"r c #E10000",
"t c #E80000",
"y c #EF0000",
"u c #FF1212",
"i c #CA3E25",
"p c #FF2525",
"a c #FF3737",
"s c #957C15",
"d c #DA472C",
"f c #9E4040",
"g c #B44A4A",
"h c #3D8024",
"j c #69942A",
"k c #6F9E2D",
"l c #C79E1B",
"z c #81CC3A",
"x c #8FEE43",
"c c #99FF4C",
"v c #9DFF54",
"b c #ABFF6D",
"n c #D59999",
"m c #CBFFA5",
"M c #D9FFBE",
"N c None",
/* pixels */
"NNNNNNNNNNNNNNNNNNNNNNNNNNNNNNNNNNNNNNNNNNNNNNNNNNNNNNNNNNNNNNNN",
"NNNNNNNNNNNNNNNNNNNNNNNNNNNNNNNNNNNNNrNNNNNNNNNNNNNNNNNNNNNNNNNN",
"NNNNNNNNNNNNNNNNNNNNNNNNNNNNNNNNNNNrNNNNNNNNNNNNNNNNNNNNNNNNNNNN",
"NNNNNNNNNNNNNNNNNNNNNNNNNNNNNNNNNNNNNrNNNNNNNNNNNNNNNNNNNNNNNNNN",
"NNNNNNNNNNNNNNNNNNNNNNNNNNNNNNNNNNNr-9r9-oNNNNNNNNNNNNNNNNNNNNNN",
"NNNNNNNNNNNNNNNNNNNNNNNNNNNNNNNNNNrgq9-9g9oNNNNNNNNNNNNNNNNNNNNN",
"NNNNNNNNNNNNNNNNNNNNNNNNNNNNNNNNNN0r3ree49-NNNNNNNNNNNNNNNNNNNNN",
"NNNNNNNNNNNNNNNNNNNNNNNNNNNNNNNNNq%3rg93u49oNNNNNNNNNNNNNNNNNNNN",
"NNNNNNNNNNNNNNNNNNNNNNNNNNNNNNNNN=-0eooy9;9-NNNNNNNNNNNNNNNNNNNN",
"NNNNNNNNNNNNNNNNNNNNNNNNNNNNNNNNN=0#iqd##==oNNNNNNNNNNNNNNNNNNNN",
"NNNNNNNNNNNNNNNNNNNNNNNNNNNNNNNqNo67id8#3;  NNNNNNNNNNNNNNNNNNNN",
"NNNNNNNNNNNNNNNNNNNNNNNNNNNNNNNNNo#3ff9-##ooNNkNNNNNNNNNNNNNNNNN",
"NNNNNNNNNNNNNNNNNNNNNNNNNNNNNNNNNN=6;;==o NNNNzNNNNNNNNNNNNNNNNN",
"NNNNNNNNNNNNNNNNNNNNNNNNNNNNNNNNNNoo$=$   NNNkxNNNNNNNNNNNNNNNNN",
"NNNNNNNNNNNNNNNNNNNNNNNNNNNNNNNNN$o $$oo=oNNNzvNNNNNNNNNNNNNNNNN",
"NNNNNNNNNNNNNNNNNNNNNNN1zNNNN=.-$   $oo===;&=xbNNNNNNNNNNNNNNNNN",
"NNNNNNNNNNNNNNNNNNNNNNNN1ssf&9&-=o  $ o==&999hj=NNNNNNNNNNNNNNNN",
"NNNNNNNNNNNNNNNNNNNNNNNNN1l99&9--=o oo=-&999&&;-oNNNNNNNNNNNNNNN",
"NNNNNNNNNNNNNNNNNNNNNNNNNN<O&;;;-;$o$--9;;----;;-NNNNNNNNNNNNNNN",
"NNNNNNNNNNNNNNNNNNNNNNNNNNN$--s1-=$o==c1-=$==----NNNNNNNNNNNNNNN",
"NNNNNNNNNNNNNNNNNNNNNNNNNNN-=-=====$------$ooo===kNNNNNNNNNNNNNN",
"NNNNNNNNNNNNNNNNNNNNNNNxvm.-.oo$$o-=o====$oo..#*=xkNNNNNNNNNNNNN",
"NNNNNNNNNNNNNNNNNNNNNNNNNNo-oo$o=$=$$=-=$$o...,,oNNNNNNNNNNNNNNN",
"NNNNNNNNNNNNNNNNNNNNNNNNNNo$X$$$=r$=-$=-;=o..+>,.NNNNNNNNNNNNNNN",
"NNNNNNNNNNNNNNNNNNNNNNNNNN$o.$r=o..ow=;g;-o.o$>=.NNNNNNNNNNNNNNN",
"NNNNNNNNNNNNNNNNNNNNNNNNN.#X.$=o6w6.$$f-==-=oo-=.NNNNNNNNNNNNNNN",
"NNNNNNNNNNNNNNNNNNNNNNNN.#X..$r6.6w36$=-=-=;9-;-=NNNNNNNNNNNNNNN",
"NNNNNNNNNNNNNNNNNNNNNNN.9-...5o.pa0%%$;=o=;9;-9;=NNNNNNNNNNNNNNN",
"NNNNNNNNNNNNNNNNNNNNNN;9-oo.. .t62p0=;f-.=g;-==-oNNNNNNNNNNNNNNN",
"NNNNNNNNNNNNNNNNNNNNN--$ooo.N  3@@65o=9g=o==ooooNNNNNNNNNNNNNNNN",
"NNNNNNNNNNNNNNNNNNN-;-$o$$oNN ..2246@.===o$$$$$NNNNNNNNNNNNNNNNN",
"NNNNNNNNNNNNNNNNNo-=-=$o.NNNN.=oo$$$o...o$oNNNNNNNNNNNNNNNNNNNNN",
"NNNNNNNNNNNNNNNN=-$o==oNNNNNN$-$o$$=$ooo===NNNNNNNNNNNNNNNNNNNNN",
"NNNNNNNNNNNNNNN==o..=$NNNNNN$&-=o$$$ooo=--$.NNNNNNNNNNNNNNNNNNNN",
"NNNNNNNNNNNNNNo=...o-=NNNNNN&:;=$o$ooo=-&&=.NNNNNNNNNNNNNNNNNNNN",
"NNNNNNNNNNNNNN=N..NN=oNNNNN$&:;-$oo..$-&:9-.NNNNNNNNNNNNNNNNNNNN",
"NNNNNNNNNNNNNNNN.NNNoNNNNNN-::;-$o..$$-&9:;.NNNNNNNNNNNNNNNNNNNN",
"NNNNNNNNNNNNNNNNNNNNNNNNNNN-9;;=oo..$$-;99-.NNNNNNNNNNNNNNNNNNNN",
"NNNNNNNNNNNNNNNNNNNNNNNNNN$;9;&=o..N$=-;:9-.NNNNNNNNNNNNNNNNNNNN",
"NNNNNNNNNNNNNNNNNNNNNNNNNN-;99-$o.NN.=-&:;$.NNNNNNNNNNNNNNNNNNNN",
"NNNNNNNNNNNNNNNNNNNNNNNNNN-;9;=ooNNN.$-&&-$.NNNNNNNNNNNNNNNNNNNN",
"NNNNNNNNNNNNNNNNNNNNNNNNNN=-;-=ooNNN.$---==NNNNNNNNNNNNNNNNNNNNN",
"NNNNNNNNNNNNNNNNNNNNNNNNNN$=-==$NNNNN$=$$=.NNNNNNNNNNNNNNNNNNNNN",
"NNNNNNNNNNNNNNNNNNNNNNNNNN$$===$NNNNN$$$=$.NNNNNNNNNNNNNNNNNNNNN",
"NNNNNNNNNNNNNNNNNNNNNNNNNN$$O$$o.NNNN.$o$$.NNNNNNNNNNNNNNNNNNNNN",
"NNNNNNNNNNNNNNNNNNNNNNNNNNNM$$==o.NNN.ooo..NNNNNNNNNNNNNNNNNNNNN",
"NNNNNNNNNNNNNNNNNNNNNNNNNNNNo===$.$NNo$=$.NNNNNNNNNNNNNNNNNNNNNN",
"NNNNNNNNNNNNNNNNNNNNNNNNNNNNo$==$.$Noo=>=.NNNNNNNNNNNNNNNNNNNNNN",
"NNNNNNNNNNNNNNNNNNNNNNNNNNNNNoooo.$ooo>s>$NNNNNNNNNNNNNNNNNNNNNN",
"NNNNNNNNNNNNNNNNNNNNNNNNNNNNNN....$o$$=1$$NNNNNNNNNNNNNNNNNNNNNN",
"NNNNNNNNNNNNNNNNNNNNNNNNNNNNNN....$$=$oooNNNNNNNNNNNNNNNNNNNNNNN",
"NNNNNNNNNNNNNNNNNNNNNNNNNNNNNo$$..$o$ooooNNNNNNNNNNNNNNNNNNNNNNN",
"NNNNNNNNNNNNNNNNNNNNNNNNNNNN$$==$.$NooooNNNNNNNNNNNNNNNNNNNNNNNN",
"NNNNNNNNNNNNNNNNNNNNNNNNNNN$$====.$No==$NNNNNNNNNNNNNNNNNNNNNNNN",
"NNNNNNNNNNNNNNNNNNNNNNNNNN$$$====$$N=--=NNNNNNNNNNNNNNNNNNNNNNNN",
"NNNNNNNNNNNNNNNNNNNNNNNNNNn$N=n$$NNN-;-=NNNNNNNNNNNNNNNNNNNNNNNN",
"NNNNNNNNNNNNNNNNNNNNNNNNNNNNNNNNNNN=-;;-=NNNNNNNNNNNNNNNNNNNNNNN",
"NNNNNNNNNNNNNNNNNNNNNNNNNNNNNNNNNNN=---;--NNNNNNNNNNNNNNNNNNNNNN",
"NNNNNNNNNNNNNNNNNNNNNNNNNNNNNNNNNN=;;-N=;;-NNNNNNNNNNNNNNNNNNNNN",
"NNNNNNNNNNNNNNNNNNNNNNNNNNNNNNNNNN==n=N$$n-NNNNNNNNNNNNNNNNNNNNN",
"NNNNNNNNNNNNNNNNNNNNNNNNNNNNNNNNNNNNNNNNNNNNNNNNNNNNNNNNNNNNNNNN",
"NNNNNNNNNNNNNNNNNNNNNNNNNNNNNNNNNNNNNNNNNNNNNNNNNNNNNNNNNNNNNNNN",
"NNNNNNNNNNNNNNNNNNNNNNNNNNNNNNNNNNNNNNNNNNNNNNNNNNNNNNNNNNNNNNNN",
"NNNNNNNNNNNNNNNNNNNNNNNNNNNNNNNNNNNNNNNNNNNNNNNNNNNNNNNNNNNNNNNN"
};
