/* XPM */
static char *_659537485139[] = {
/* columns rows colors chars-per-pixel */
"64 64 64 1 ",
"  c black",
". c #0A0404",
"X c #100606",
"o c #120808",
"O c #1A0A0A",
"+ c #1B0B0B",
"@ c #1E0C0C",
"# c #001606",
"$ c #210904",
"% c #250F0F",
"& c #3D1409",
"* c #261010",
"= c #2D1313",
"- c #321414",
"; c #361616",
": c #3E1A1A",
"> c #002C0C",
", c #00340F",
"< c #5F0000",
"1 c #591B0D",
"2 c #431B1B",
"3 c #461C1C",
"4 c #4D1F1F",
"5 c #700000",
"6 c #652E1E",
"7 c #7B271E",
"8 c #4E2020",
"9 c #542222",
"0 c #592525",
"q c #5F2727",
"w c #622828",
"e c #6A2C2C",
"r c #763222",
"t c #004E11",
"y c #036A1E",
"u c #736411",
"i c #810000",
"p c #920000",
"a c #A30000",
"s c #B40000",
"d c #BC0000",
"f c #982917",
"g c #B92704",
"h c #813535",
"j c #8F3B3B",
"k c #A9372C",
"l c #C50000",
"z c #CC0000",
"x c #D30000",
"c c #DA0000",
"v c #E10000",
"b c #FF1212",
"n c #CA3E25",
"m c #957C15",
"M c #9E4040",
"N c #B74F4F",
"B c #6F9E2D",
"V c #81CC3A",
"C c #99FF4C",
"Z c #9DFF54",
"A c #D39393",
"S c #DEAFAF",
"D c #CBFFA5",
"F c None",
/* pixels */
"FFFFFFFFFFFFFFFFFFFFFFFFFFFFFFFFFFFFFFFFFFFFFFFFFFFFFFFFFFFFFFFF",
"FFFFFFFFFFFFFFFFFFFFFFFFFFFFFFFFFFFFFFFFFFFFFFFFFFFFFFFFFFFFFFFF",
"FFFFFFFFFFFFFFFFFFFFFFFFFFFFFFFFFFFFFFFFFFFFFFFFFFFFFFFFFFFFFFFF",
"FFFFFFFFFFFFFFFFFFFFFFFFFFFFFFFFFFFFFFFFFFFFFFFFFFFFFFFFFFFFFFFF",
"FFFFFFFFFFFFFFFFFFFFFFFFFFFFFFFFFFFFFFFFFFFFFFFFFFFFFFFFFFFFFFFF",
"FFFFFFFFFFFFFFFFFFFFFFFFFFFFFFFFFFFFFFFFFFFFFFFFFFFFFFFFFFFFFFFF",
"FFFFFFFFFFFFFFFFFFFFFFFFFFFFFFFFFFFFFFFFFFFFFFFFFFFFFFFFFFFFFFFF",
"FFFFFFFFFFFFFFFFFFFFFFFFFFFFFFFFFFFFFsFFFFFFFFFFFFFFFFFFFFFFFFFF",
"FFFFFFFFFFFFFFFFFFFFFFFFFFFFFFFFFFFzFFFFFFFFFFFFFFFFFFFFFFFFFFFF",
"FFFFFFFFFFFFFFFFFFFFFFFFFFFFFFFFFFFFFFFFFFFFFFFFFFFFFFFFFFFFFFFF",
"FFFFFFFFFFFFFFFFFFFFFFFFFFFFFFFFFFzFFFsFFFFFFFFFFFFFFFFFFFFFFFFF",
"FFFFFFFFFFFFFFFFFFFFFFFFFFFFFFFFFFFFsFFFFFFFFFFFFFFFFFFFFFFFFFFF",
"FFFFFFFFFFFFFFFFFFFFFFFFFFFFFFFFFFFFFFFFFFFFFFFFFFFFFFFFFFFFFFFF",
"FFFFFFFFFFFFFFFFFFFFFFFFFFFFFFFFFFFFFsFFFFFFFFFFFFFFFFFFFFFFFFFF",
"FFFFFFFFFFFFFFFFFFFFFFFFFFFFFFFFFFFFzxFsFFFFFFFFFFFFFFFFFFFFFFFF",
"FFFFFFFFFFFFFFFFFFFFFFFFFFFFFFFFFFxFFsdXzxe8FFFFFFFFFFFFFFFFFFFF",
"FFFFFFFFFFFFFFFFFFFFFFFFFFFFFFFFFFFFFdscehcaaFFFFFFFFFFFFFFFFFFF",
"FFFFFFFFFFFFFFFFFFFFFFFFFFFFFFFFFFFFXi5gdn18bXFFFFFFFFFFFFFFFFFF",
"FFFFFFFFFFFFFFFFFFFFFFFFFFFFFFFFFFFFaalcgf722XFFFFFFFFFFFFFFFFFF",
"FFFFFFFFFFFFFFFFFFFFFFFFFFFFFFFFFFx<al-9z882--FFFFFFFFFFFFFFFFFF",
"FFFFFFFFFFFFFFFFFFFFFFFFFFFuVFFFxF<Xii.i%a2---FFFBFFFFFFFFFFFFFF",
"FFFFFFFFFFFFFFFFFFFFFFFFFFFFummFF<xXi%*a%=i+-X<>VFFFFFFFFFFFFFFF",
"FFFFFFFFFFFFFFFFFFFFFFFFFFFFFu;333xawww24 heO%;:4FFFFFFFFFFFFFFF",
"FFFFFFFFFFFFFFFFFFFFFFFFFFFFF;332x3wx43Cu*he%=hh3BFFFFFFFFFFFFFF",
"FFFFFFFFFFFFFFFFFFFFFFFFFFFF34=243za:30ww%j:wOhw;:FFFFFFFFFFFFFF",
"FFFFFFFFFFFFFFFFFFFFFFFFFZD,:%+;;zaxp=3w3+M%;Xhw+3;FFFFFFFFFFFFF",
"FFFFFFFFFFFFFFFFFFFFFFFFFF313%O*%szpa-43o+++++M:*%%FFFFFFFFFFFFF",
"FFFFFFFFFFFFFFFFFFFFFFFFF:1&;*+-zsNSw0-=++o ++M+3:%FFFFFFFFFFFFF",
"FFFFFFFFFFFFFFFFFFFFFFFFF1&;%OF-%vxvO+=;-+   +O*;2=FFFFFFFFFFFFF",
"FFFFFFFFFFFFFFFFFFFFFFFF40%%OFFFvd<hpdxhoo++  +O++OFFFFFFFFFFFFF",
"FFFFFFFFFFFFFFFFFFFFFFFF30;OFFF+dd4xp%;=3oo++++++OFFFFFFFFFFFFFF",
"FFFFFFFFFFFFFFFFFFFFFFF:003%FFO+pp<p*** $o++++++FFFFFFFFFFFFFFFF",
"FFFFFFFFFFFFFFFFFFFFFFF0f3wjF-***p5*O1XXX ++FFFFFFFFFFFFFFFFFFFF",
"FFFFFFFFFFFFFFFFFFFFFF:0j*3w+---22**----X +FFFFFFFFFFFFFFFFFFFFF",
"FFFFFFFFFFFFFFFFFFFFFF:30F*M22992222299--XX+FFFFFFFFFFFFFFFFFFFF",
"FFFFFFFFFFFFFFFFFFFFFF:3;2999992--22239992-+FFFFFFFFFFFFFFFFFFFF",
"FFFFFFFFFFFFFFFFFFFFFFMF-9kre92----;--29779-FFFFFFFFFFFFFFFFFFFF",
"FFFFFFFFFFFFFFFFFFFFFFF-ekr6q2--*+O+*--29kk7-FFFFFFFFFFFFFFFFFFF",
"FFFFFFFFFFFFFFFFFFFFFF-ekr7q9-+++....+*-29rr7#uFFFFFFFFFFFFFFFFF",
"FFFFFFFFFFFFFFFFFFFFF-ehe772-+++XFFFX.*--29eymtFFFFFFFFFFFFFFFFF",
"FFFFFFFFFFFFFFFFFFFF-9e6q92-**.FFFFFFXX*--38utFFFFFFFFFFFFFFFFFF",
"FFFFFFFFFFFFFFFFFFF*26q92--*XFFFFFFFFF.**--8q8FFFFFFFFFFFFFFFFFF",
"FFFFFFFFFFFFFFFFFFF-qq2--*++FFFFFFFFFFFX.*-8q8FFFFFFFFFFFFFFFFFF",
"FFFFFFFFFFFFFFFFFF*222-*++.FFFFFFFFFFFFX3O-8qrFFFFFFFFFFFFFFFFFF",
"FFFFFFFFFFFFFFFFFVZV--*O+.FFFFFFFFFFFFFX-*-8qqFFFFFFFFFFFFFFFFFF",
"FFFFFFFFFFFFFFFFFF+2--*-.FFFFFFFFFFFFFFF--*2q8FFFFFFFFFFFFFFFFFF",
"FFFFFFFFFFFFFFFFFFO88---.FFFFFFFFFFFFFFF+-*288FFFFFFFFFFFFFFFFFF",
"FFFFFFFFFFFFFFFFFF-q83---FFFFFFFFFFFFFFFF-*322--FFFFFFFFFFFFFFFF",
"FFFFFFFFFFFFFFFFFF-qq2--FFFFFFFFFFFFFFFFF+22-+A.FFFFFFFFFFFFFFFF",
"FFFFFFFFFFFFFFFFFF2qq2--FFFFFFFFFFFFFFFFF+--+...F.AFFFFFFFFFFFFF",
"FFFFFFFFFFFFFFFFFF288--XFFFFFFFFFFFFFFFFFX-X.......FFFFFFFFFFFFF",
"FFFFFFFFFFFFFFFFFF282--FFFFFFFFFFFFFFFFFF++X......FFFFFFFFFFFFFF",
"FFFFFFFFFFFFFFFFFF222-XFFFFFFFFFFFFFFFFFF*X......FFFFFFFFFFFFFFF",
"FFFFFFFFFFFFFFFFFF-22+XFFFFFFFFFFFFFFFFFFX......FFFFFFFFFFFFFFFF",
"FFFFFFFFFFFFFFFFFF-2-+XFFFFFFFFFFFFFFFFFF......FFFFFFFFFFFFFFFFF",
"FFFFFFFFFFFFFFFFFF-2++XFFFFFFFFFFFFFFFFFFF....FFFFFFFFFFFFFFFFFF",
"FFFFFFFFFFFFFFFFF282-+XFFFFFFFFFFFFFFFFFFFFFFFFFFFFFFFFFFFFFFFFF",
"FFFFFFFFFFFFFFF-88882-XFFFFFFFFFFFFFFFFFFFFFFFFFFFFFFFFFFFFFFFFF",
"FFFFFFFFFFFFFX28-882-XXFFFFFFFFFFFFFFFFFFFFFFFFFFFFFFFFFFFFFFFFF",
"FFFFFFFFFFFFFA-.XA-X..FFFFFFFFFFFFFFFFFFFFFFFFFFFFFFFFFFFFFFFFFF",
"FFFFFFFFFFFFFFFFFFFFFFFFFFFFFFFFFFFFFFFFFFFFFFFFFFFFFFFFFFFFFFFF",
"FFFFFFFFFFFFFFFFFFFFFFFFFFFFFFFFFFFFFFFFFFFFFFFFFFFFFFFFFFFFFFFF",
"FFFFFFFFFFFFFFFFFFFFFFFFFFFFFFFFFFFFFFFFFFFFFFFFFFFFFFFFFFFFFFFF",
"FFFFFFFFFFFFFFFFFFFFFFFFFFFFFFFFFFFFFFFFFFFFFFFFFFFFFFFFFFFFFFFF"
};
