/* XPM */
static char *_659537492385[] = {
/* columns rows colors chars-per-pixel */
"64 64 48 1 ",
"  c black",
". c #070303",
"X c #0A0404",
"o c #0D0505",
"O c #110707",
"+ c #180A0A",
"@ c #1B0B0B",
"# c #1F0D0D",
"$ c #250F0F",
"% c #3D1409",
"& c #2F1313",
"* c #391717",
"= c #5F0000",
"- c #591B0D",
"; c #431B1B",
": c #4B1F1F",
"> c #700000",
", c #652E1E",
"< c #7B271E",
"1 c #542222",
"2 c #5C2626",
"3 c #692B2B",
"4 c #732F2F",
"5 c #763222",
"6 c #7E3434",
"7 c #536E19",
"8 c #736411",
"9 c #810000",
"0 c #920000",
"q c #A30000",
"w c #B40000",
"e c #BC0000",
"r c #873737",
"t c #963E3E",
"y c #A9372C",
"u c #C50000",
"i c #CC0000",
"p c #DA0000",
"a c #E10000",
"s c #957C15",
"d c #9E4040",
"f c #A54343",
"g c #B95353",
"h c #6F9E2D",
"j c #81CC3A",
"k c #99FF4C",
"l c #9DFF54",
"z c None",
/* pixels */
"zzzzzzzzzzzzzzzzzzzzzzzzzzzzzzzzzzzzzzzzzzzzzzzzzzzzzzzzzzzzzzzz",
"zzzzzzzzzzzzzzzzzzzzzzzzzzzzzzzzzzzzzzzzzzzzzzzzzzzzzzzzzzzzzzzz",
"zzzzzzzzzzzzzzzzzzzzzzzzzzzzzzzzzzzzzzzzzzzzzzzzzzzzzzzzzzzzzzzz",
"zzzzzzzzzzzzzzzzzzzzzzzzzzzzzzzzzzzzzzzzzzzzzzzzzzzzzzzzzzzzzzzz",
"zzzzzzzzzzzzzzzzzzzzzzzzzzzzzzzzzzzzzzzzzzzzzzzzzzzzzzzzzzzzzzzz",
"zzzzzzzzzzzzzzzzzzzzzzzzzzzzzzzzzzzzzzzzzzzzzzzzzzzzzzzzzzzzzzzz",
"zzzzzzzzzzzzzzzzzzzzzzzzzzzzzzzzzzzzzzzzzzzzzzzzzzzzzzzzzzzzzzzz",
"zzzzzzzzzzzzzzzzzzzzzzzzzzzzzzzzzzzzzzzzzzzzzzzzzzzzzzzzzzzzzzzz",
"zzzzzzzzzzzzzzzzzzzzzzzzzzzzzzzzzzzzzzzzzzzzzzzzzzzzzzzzzzzzzzzz",
"zzzzzzzzzzzzzzzzzzzzzzzzzzzzzzzzzzzzzzzzzzzzzzzzzzzzzzzzzzzzzzzz",
"zzzzzzzzzzzzzzzzzzzzzzzzzzzzzzzzzzzzzzzzzzzzzzzzzzzzzzzzzzzzzzzz",
"zzzzzzzzzzzzzzzzzzzzzzzzzzzzzzzzzzzzzzzzzzzzzzzzzzzzzzzzzzzzzzzz",
"zzzzzzzzzzzzzzzzzzzzzzzzzzzzzzzzzzzzzzzzzzzzzzzzzzzzzzzzzzzzzzzz",
"zzzzzzzzzzzzzzzzzzzzzzzzzzzzzzzzzzzwzzzzzzzzzzzzzzzzzzzzzzzzzzzz",
"zzzzzzzzzzzzzzzzzzzzzzzzzzzzzzzzzzzzzzzzzzzzzzzzzzzzzzzzzzzzzzzz",
"zzzzzzzzzzzzzzzzzzzzzzzzzzzzzzzzzzzzzzzzzzzzzzzzzzzzzzzzzzzzzzzz",
"zzzzzzzzzzzzzzzzzzzzzzzzzzzzzzzzzzzzwzzzzzzzzzzzzzzzzzzzzzzzzzzz",
"zzzzzzzzzzzzzzzzzzzzzzzzzzzzzzzzzzzwzzzzzzzzzzzzzzzzzzzzzzzzzzzz",
"zzzzzzzzzzzzzzzzzzzzzzzzzzzzzzzzzzazzazzzzzzzzzzzzzzzzzzzzzzzzzz",
"zzzzzzzzzzzzzzzzzzzzzzzzzzzzzzzzzzzzwzzzzzzzzzzzzzzzzzzzzzzzzzzz",
"zzzzzzzzzzzzzzzzzzzzzzzzzzzzzzzzzzzzzzazzzzzzzzzzzzzzzzzzzzzzzzz",
"zzzzzzzzzzzzzzzzzzzzzzzzzzzzzzzzzzzwazzzzzzzzzzzzzzzzzzzzzzzzzzz",
"zzzzzzzzzzzzzzzzzzzzzzzzzzzzzzzzzzzawe1e19zzzzzzzzzzzzzzzzzzzzzz",
"zzzzzzzzzzzzzzzzzzzzzzzzzzzzzzzzzzzw=+9ie;9zzzzzzzzzzzzzzzzzzzzz",
"zzzzzzzzzzzzzzzzzzzzzzzzzzzzzzzzzzz==#>#&0*zzzzzzzzzzzzzzzzzzzzz",
"zzzzzzzzzzzzzzzzzzzzzzzzzzzzzzzzzz+=+0#=#90&zzzzzzzzzzzzzzzzzzzz",
"zzzzzzzzzzzzzzzzzzzzzzzzzzzzzzzzzz+=+&&#+>9&zzzzzzzzzzzzzzzzzzzz",
"zzzzzzzzzzzzzzzzzzzzzzzzzzzzzzzzzz+#&0+#+&9&zzzhzzzzzzzzzzzzzzzz",
"zzzzzzzzzzzzzzzzzzzzzzzzzzzz8j;121i6*w666k6311jzzzzzzzzzzzzzzzzz",
"zzzzzzzzzzzzzzzzzzzzzzzzzzzzz;:&222&#0;6kh321;;;zzzzzzzzzzzzzzzz",
"zzzzzzzzzzzzzzzzzzzzzzzzzzzzz&$$&&p##0q$****;&;:1zzzzzzzzzzzzzzz",
"zzzzzzzzzzzzzzzzzzzzzzzzzzzzz$##&Oi  >qO####+$&r6:hzzzzzzzzzzzzz",
"zzzzzzzzzzzzzzzzzzzzzzzzzzzz13-++eqpq>q #&#O++$2r1:zzzzzzzzzzzzz",
"zzzzzzzzzzzzzzzzzzzzzzzzzzzl1-%+Otgqq>u  #&#OO++2422zzzzzzzzzzzz",
"zzzzzzzzzzzzzzzzzzzzzzzzzzzz$%O$qw>&q&ri O$$++@@*34:zzzzzzzzzzzz",
"zzzzzzzzzzzzzzzzzzzzzzzzzzz$$O@$eO=9q#;u9+#++zz*$461zzzzzzzzzzzz",
"zzzzzzzzzzzzzzzzzzzzzzzzzzz$O+@+9=91q;>q9=#+zzzz&3f3zzzzzzzzzzzz",
"zzzzzzzzzzzzzzzzzzzzzzzzzz$&#+@=>=4*e4009=++zzzzf1fg3zzzzzzzzzzz",
"zzzzzzzzzzzzzzzzzzzzzzzzz&#&**0=9o9i*>>911$+*zzz41;f3:zzzzzzzzzz",
"zzzzzzzzzzzzzzzzzzzzzzzz$12y542*$9&*0wwqu24:*zzz1z&31:zzzzzzzzzz",
"zzzzzzzzzzzzzzzzzzzzzjlj2y5,32*&>$>0;qqq:u5y:*zzdzzd1:zzzzzzzzzz",
"zzzzzzzzzzzzzzzzzzzzzz;jy5,<;&$$=+#*0&&&*&,5y:*s<zzzz*zzzzzzzzzz",
"zzzzzzzzzzzzzzzzzzzz241751<&&$##OOO>$$$$$$$15,8<zzzzzdzzzzzzzzzz",
"zzzzzzzzzzzzzzzzzzz6rr52;&$$$#++OzzzOOO##$$*;27;;zzzzzzzzzzzzzzz",
"zzzzzzzzzzzzzzzzzz6r5;;&$$##++OOzzzzzzOOO++**:;;;zzzzzzzzzzzzzzz",
"zzzzzzzzzzzzzzzzzz22*&$$##+OOOOzzzzzzzzzOOO$#;<::;z:dzzzzzzzzzzz",
"zzzzzzzzzzzzzzzzzz::&#OOoooozzzzzzzzzzzzzzz#$*::3:&+Xzzzzzzzzzzz",
"zzzzzzzzzzzzzzzzz*;&$#Oooozzzzzzzzzzzzzzzzzz#&*<:&+XXzXdzzzzzzzz",
"zzzzzzzzzzzzzzzzz::$$++Ozzzzzzzzzzzzzzzzzzzzz#$$&$XXXXXXzzzzzzzz",
"zzzzzzzzzd:::zzz*:$&++zzzzzzzzzzzzzzzzzzzzzzzz+##+XXXXXXzzzzzzzz",
"zzzzzzzzzXX$*::*;*&$+%zzzzzzzzzzzzzzzzzzzzzzzzz$#+XXXXXzzzzzzzzz",
"zzzzzzzzdXXXX*;*&&$+%zzzzzzzzzzzzzzzzzzzzzzzzzz+#X..XXzzzzzzzzzz",
"zzzzzzzzXXXXXX$*;#+zzzzzzzzzzzzzzzzzzzzzzzzzzzzz#XXXX.zzzzzzzzzz",
"zzzzzzzzzXXXXX#;;&$zzzzzzzzzzzzzzzzzzzzzzzzzzzzz+XXXX.zzzzzzzzzz",
"zzzzzzzzzzX.XX+#;*zzzzzzzzzzzzzzzzzzzzzzzzzzzzzzz....zzzzzzzzzzz",
"zzzzzzzzzzz.XXXX#&zzzzzzzzzzzzzzzzzzzzzzzzzzzzzzzzzzzzzzzzzzzzzz",
"zzzzzzzzzzzz.XXX++zzzzzzzzzzzzzzzzzzzzzzzzzzzzzzzzzzzzzzzzzzzzzz",
"zzzzzzzzzzzzz...+zzzzzzzzzzzzzzzzzzzzzzzzzzzzzzzzzzzzzzzzzzzzzzz",
"zzzzzzzzzzzzzzzzzzzzzzzzzzzzzzzzzzzzzzzzzzzzzzzzzzzzzzzzzzzzzzzz",
"zzzzzzzzzzzzzzzzzzzzzzzzzzzzzzzzzzzzzzzzzzzzzzzzzzzzzzzzzzzzzzzz",
"zzzzzzzzzzzzzzzzzzzzzzzzzzzzzzzzzzzzzzzzzzzzzzzzzzzzzzzzzzzzzzzz",
"zzzzzzzzzzzzzzzzzzzzzzzzzzzzzzzzzzzzzzzzzzzzzzzzzzzzzzzzzzzzzzzz",
"zzzzzzzzzzzzzzzzzzzzzzzzzzzzzzzzzzzzzzzzzzzzzzzzzzzzzzzzzzzzzzzz",
"zzzzzzzzzzzzzzzzzzzzzzzzzzzzzzzzzzzzzzzzzzzzzzzzzzzzzzzzzzzzzzzz"
};
