/* XPM */
static char *_659537499509[] = {
/* columns rows colors chars-per-pixel */
"64 64 44 1 ",
"  c black",
". c #070303",
"X c #0D0505",
"o c #110707",
"O c #180A0A",
"+ c #1B0B0B",
"@ c #1F0D0D",
"# c #250F0F",
"$ c #2F1313",
"% c #391717",
"& c #5F0000",
"* c #431B1B",
"= c #4B1F1F",
"- c #700000",
"; c #652E1E",
": c #7B271E",
"> c #542222",
", c #5C2626",
"< c #692B2B",
"1 c #732F2F",
"2 c #763222",
"3 c #7E3434",
"4 c #810000",
"5 c #920000",
"6 c #A30000",
"7 c #B40000",
"8 c #BC0000",
"9 c #873737",
"0 c #963E3E",
"q c #A9372C",
"w c #C50000",
"e c #CC0000",
"r c #D30000",
"t c #DA0000",
"y c #9E4040",
"u c #B74F4F",
"i c #C06666",
"p c #3D8024",
"a c #6F9E2D",
"s c #81CC3A",
"d c #99FF4C",
"f c #9DFF54",
"g c #CE8888",
"h c None",
/* pixels */
"hhhhhhhhhhhhhhhhhhhhhhhhhhhhhhhhhhhhhhhhhhhhhhhhhhhhhhhhhhhhhhhh",
"hhhhhhhhhhhhhhhhhhhhhhhhhhhhhhhhhhhhhhhhhhhhhhhhhhhhhhhhhhhhhhhh",
"hhhhhhhhhhhhhhhhhhhhhhhhhhhhhhhhhhhhhhhhhhhhhhhhhhhhhhhhhhhhhhhh",
"hhhhhhhhhhhhhhhhhhhhhhhhhhhhhhhhhhhhhhhhhhhhhhhhhhhhhhhhhhhhhhhh",
"hhhhhhhhhhhhhhhhhhhhhhhhhhhhhhhhhhhhhhhhhhhhhhhhhhhhhhhhhhhhhhhh",
"hhhhhhhhhhhhhhhhhhhhhhhhhhhhhhhhhhhhhhhhhhhhhhhhhhhhhhhhhhhhhhhh",
"hhhhhhhhhhhhhhhhhhhhhhhhhhhhhhhhhhhhhhhhhhhhhhhhhhhhhhhhhhhhhhhh",
"hhhhhhhhhhhhhhhhhhhhhhhhhhhhhhhhhhhhhhhhhhhhhhhhhhhhhhhhhhhhhhhh",
"hhhhhhhhhhhhhhhhhhhhhhhhhhhhhhhhhhhhhhhhhhhhhhhhhhhhhhhhhhhhhhhh",
"hhhhhhhhhhhhhhhhhhhhhhhhhhhhhhhhhhhhhhhhhhhhhhhhhhhhhhhhhhhhhhhh",
"hhhhhhhhhhhhhhhhhhhhhhhhhhhhhhhhhhhhhhhhhhhhhhhhhhhhhhhhhhhhhhhh",
"hhhhhhhhhhhhhhhhhhhhhhhhhhhhhhhhhhhhhhhhhhhhhhhhhhhhhhhhhhhhhhhh",
"hhhhhhhhhhhhhhhhhhhhhhhhhhhhhhhhhhhhhhhhhhhhhhhhhhhhhhhhhhhhhhhh",
"hhhhhhhhhhhhhhhhhhhhhhhhhhhhhhhhhhhhhhhhhhhhhhhhhhhhhhhhhhhhhhhh",
"hhhhhhhhhhhhhhhhhhhhhhhhhhhhhhhhhhhhhhhhhhhhhhhhhhhhhhhhhhhhhhhh",
"hhhhhhhhhhhhhhhhhhhhhhhhhhhhhhhhhhhhhhhhhhhhhhhhhhhhhhhhhhhhhhhh",
"hhhhhhhhhhhhhhhhhhhhhhhhhhhhhhhhhhhhhhhhhhhhhhhhhhhhhhhhhhhhhhhh",
"hhhhhhhhhhhhhhhhhhhhhhhhhhhhhhhhhhhhhhhhhhhhhhhhhhhhhhhhhhhhhhhh",
"hhhhhhhhhhhhhhhhhhhhhhhhhhhhhhhhhhhhhhhhhhhhhhhhhhhhhhhhhhhhhhhh",
"hhhhhhhhhhhhhhhhhhhhhhhhhhhhhhhhhhhhhhhhhhhhhhhhhhhhhhhhhhhhhhhh",
"hhhhhhhhhhhhhhhhhhhhhhhhhhhhhhhhhhhhhhhhhhhhhhhhhhhhhhhhhhhhhhhh",
"hhhhhhhhhhhhhhhhhhhhhhhhhhhhhhhhhhhhhhhhhhhhhhhhhhhhhhhhhhhhhhhh",
"hhhhhhhhhhhhhhhhhhhhhhhhhhhhhhhhhhhhhhhhhhhhhhhhhhhhhhhhhhhhhhhh",
"hhhhhhhhhhhhhhhhhhhhhhhhhhhhhhhhhhhhhhhhhhhhhhhhhhhhhhhhhhhhhhhh",
"hhhhhhhhhhhhhhhhhhhhhhhhhhhhhhhhhhhhhhhhhhhhhhhhhhhhhhhhhhhhhhhh",
"hhhhhhhhhhhhhhhhhhhhhhhhhhhhhhhhhhhhhhhhhhhhhhhhhhhhhhhhhhhhhhhh",
"hhhhhhhhhhhhhhhhhhhhhhhhhhhhhhhhhhhhhhhhhhhhhhhhhhhhhhhhhhhhhhhh",
"hhhhhhhhhhhhhhhhhhhhhhhhhhhhhhhhhhhhhhhhhhhhhhhhhhhhhhhhhhhhhhhh",
"hhhhhhhhhhhhhhhhhhhhhhhhhhhhhhhhhhhhhhhhhhhhhhhhhhhhhhhhhhhhhhhh",
"hhhhhhhhhhhhhhhhhhhhhhhhhhhhhhhhhhhhhhhhhhhhhhhhhhhhhhhhhhhhhhhh",
"hhhhhhhhhhhhhhhhhhhhhhhhhhhhhhhhhhhhhhhhhhhhhhhhhhhhhhhhhhhhhhhh",
"hhhhhhhhhhhhhhhhhhhhhhhhhhhhhhhhhhhhhhhhhhhhhhhhhhhhhhhhhhhhhhhh",
"hhhhhhhhhhhhhhhhhhhhhhhhhhhhhhhhhhhhhhhhhhhhhhhhhhhhhhhhhhhhhhhh",
"hhhhhhhhhhhhhhhhhhhhhhhhhhhhhhhhhhhhhhhhhhhhhhhhhhhhhhhhhhhhhhhh",
"hhhhhhhhhhhhhhhhhhhhhhhhhhhhhhhhhhhhhhhhhhhhhhhhhhhhhhhhhhhhhhhh",
"hhhhhhhhhhhhhhhhhhhhhhhhhhhhhhhhhhhhhhhhhhhhhhhhhhhhhhhhhhhhhhhh",
"hhhhhhhhhhhhhhhhhhhhhhhhhhhhhhhhhhhhhhhhhhhhhhhhhhhhhhhhhhhhhhhh",
"hhhhhhhhhhhhhhhhhhhhhhhhhhhhhhhhhhhhhhhhhhhhhhhhhhhhhhhhhhhhhhhh",
"hhhhhhhhhhhhhhhhhhhhhhhhhhhhhhhhhhhhhhhhhhhhhhhhhhhhhhhhhhhhhhhh",
"hhhhhhhhhhhhhhhhhhhhhhhhhhhhhhhhhhhhhh&&&-w3hhhhhhhhhhhhhhhhhhhh",
"hhhhhhhhhhhhhhhhhhhhhhhhhhhhhhhhhhhh66&---4t9hhhhhhhhhhhhhhhhhhh",
"hhhhhhhhhhhhhhhhhhhhhhhhhhhhhhhdhh56@@@d-4&#wwhhhhhhhhhhhhhhhhhh",
"hhhhhhhhhhhhhhhhhhhhhhhhhhhhh%@a45#@$>du8ww=<=hhhhhhhhhhhhhhhhhh",
"hhhhhhhhhhhhhhhhhhhhhhhhhhh#@5%-4>6*w-$=*8%4#7=#hhhhhhhhhhhhhhhh",
"hhhhhhhhhhhhhhhhhhhhhhhhh%#@++681%8164++#%@4#=8$#hhhhhhhhhhhhhhh",
"hhhhhhhhhhhhhhhhhhhhhhh*$o+o468rr88r874++O@@4%5@@#hhhhhhhhhhhhhh",
"hhhhhhhhhhhhhhhhhhhhhh>*#O58weew<w<werw7@+O+#--#$@hhhhhhhhhhhhhh",
"hhhhhhhhhhhhhhhhhhhs>,=%>w885%4--%8%7w3<w<++@4$>=+ahhhhhhhhhhhhh",
"hhhhhhhhhhhhhhhhhh*f#<qe2ee*5--OoO-48,888qi8O4@#@o+hhhhhhhhhhhhh",
"hhhhhhhhhhhhhhhhh<0eq228;*55#@+++o@4$-##$6g$6=+oOXoo+hhhhhhhhhhh",
"hhhhhhy#=hhhhhh%=q2<8%;;%5-#@+X  o+-#&O&O@44=q<XoopX%p#hhhhhhhhh",
"hhhyXhXX%=hhhh%#$*=$#-@#@@-@O+   X&X+&+&oO&$:$$=XoXX#XX,,,,hhhhh",
"hhhXoXoo@%=hh*===>*#@+Xo+O&ooo&&&&&XX&o&o&#O$$*,$XOOXXX>=%hhhhhh",
"hhhX+o@#@%,>*=>*>,,%@oX&oX&4456666544&X&O&$=*>,*#X@@OOX%%><,,hhh",
"hhhhX@#@+#*=%#*=,>%#XX66688wwweeeww876666&@$*==$@XOO@@X>,,,%#hhh",
"hhhho#OXOO$****%%##+ohhhhhwwwwwwwhhhhhhhhhoO@#$@+XXXOO%###%%hhhh",
"hhhhhXXX@OO%%$$##ohhhhhhhhhhhhhhhhhhhhhhhhhXo++@X....Xhhhhhhhhhh",
"hhhhhho@OXX###@ohhhhhhhhhhhhhhhhhhhhhhhhhhhhhXXO.X+X.ohhhhhhhhhh",
"hhhhhhhoXXX+#+hhhhhhhhhhhhhhhhhhhhhhhhhhhhhhhhXX.XXXohhhhhhhhhhh",
"hhhhhhhhXXX+#hhhhhhhhhhhhhhhhhhhhhhhhhhhhhhhhhh+....ohhhhhhhhhhh",
"hhhhhhhhhhhhhhhhhhhhhhhhhhhhhhhhhhhhhhhhhhhhhhhhhhhhhhhhhhhhhhhh",
"hhhhhhhhhhhhhhhhhhhhhhhhhhhhhhhhhhhhhhhhhhhhhhhhhhhhhhhhhhhhhhhh",
"hhhhhhhhhhhhhhhhhhhhhhhhhhhhhhhhhhhhhhhhhhhhhhhhhhhhhhhhhhhhhhhh",
"hhhhhhhhhhhhhhhhhhhhhhhhhhhhhhhhhhhhhhhhhhhhhhhhhhhhhhhhhhhhhhhh"
};
