/* XPM */
static char *_659141656590[] = {
/* columns rows colors chars-per-pixel */
"76 79 246 2 ",
"   c #010101",
".  c #0A0707",
"X  c #040C00",
"o  c #090C05",
"O  c #0C0C0B",
"+  c #130D0C",
"@  c #1A0F0E",
"#  c #0C1104",
"$  c #0E120A",
"%  c #121503",
"&  c #1D1B03",
"*  c #12150C",
"=  c #19120D",
"-  c #161A09",
";  c #1D1A0C",
":  c #141211",
">  c #1E1414",
",  c #161914",
"<  c #1C1A12",
"1  c #1C1B1B",
"2  c #201605",
"3  c #211A02",
"4  c #2B1A02",
"5  c #21140B",
"6  c #251C0B",
"7  c #291B0A",
"8  c #291709",
"9  c #311A00",
"0  c #211212",
"q  c #291616",
"w  c #241A15",
"e  c #2B1B15",
"r  c #231B1B",
"t  c #2B1A19",
"y  c #341B18",
"u  c #102010",
"i  c #182214",
"p  c #1E220B",
"a  c #2A220B",
"s  c #282407",
"d  c #342100",
"f  c #352A02",
"g  c #33230C",
"h  c #342A08",
"j  c #3A2C0B",
"k  c #3B2A06",
"l  c #3C320C",
"z  c #242312",
"x  c #2C2114",
"c  c #25211D",
"v  c #2D221D",
"b  c #2B2916",
"n  c #332414",
"m  c #352C12",
"M  c #31251D",
"N  c #342B1D",
"B  c #3B2C1C",
"V  c #3B2E13",
"C  c #29301E",
"Z  c #3B3314",
"A  c #3C3B15",
"S  c #3C331A",
"D  c #393717",
"F  c #212020",
"G  c #2C2521",
"H  c #2C2923",
"J  c #2E2E2A",
"K  c #322622",
"L  c #312920",
"P  c #3B2C22",
"I  c #382926",
"U  c #393021",
"Y  c #3A332C",
"T  c #3D3B2C",
"R  c #353327",
"E  c #343131",
"W  c #3D3934",
"Q  c gray22",
"!  c #393632",
"~  c #2F3722",
"^  c #412808",
"/  c #483804",
"(  c #44350C",
")  c #48390A",
"_  c #482B14",
"`  c #432A1A",
"'  c #413413",
"]  c #453B13",
"[  c #493D14",
"{  c #493D1D",
"}  c #43391A",
"|  c #423425",
" . c #443C22",
".. c #4B3D25",
"X. c #443A2C",
"o. c #493A2A",
"O. c #42362B",
"+. c #423A31",
"@. c #483830",
"#. c #36561C",
"$. c #1D6A15",
"%. c #25671A",
"&. c #207E1A",
"*. c #3C432B",
"=. c #3D4536",
"-. c #33552C",
";. c #346926",
":. c #35752C",
">. c #3B6836",
",. c #337633",
"<. c #297025",
"1. c #52440D",
"2. c #594A0B",
"3. c #504006",
"4. c #4E4213",
"5. c #4D421B",
"6. c #49491C",
"7. c #554B1C",
"8. c #5B4E1A",
"9. c #554915",
"0. c #5D5014",
"q. c #5B551D",
"w. c #55511D",
"e. c #4F400D",
"r. c #64591B",
"t. c #685818",
"y. c #795B1F",
"u. c #705C12",
"i. c #6E611D",
"p. c #7A681A",
"a. c #77661D",
"s. c #4D412E",
"d. c #4B4425",
"f. c #534B24",
"g. c #554927",
"h. c #565222",
"j. c #5D5424",
"k. c #5D5926",
"l. c #454035",
"z. c #4D4434",
"x. c #45433C",
"c. c #4C453A",
"v. c #4C493E",
"b. c #4E4835",
"n. c #544834",
"m. c #534B3C",
"M. c #5B4D3C",
"N. c #564736",
"B. c #495539",
"V. c #5D513F",
"C. c #545537",
"Z. c #445C2C",
"A. c #615222",
"S. c #645D25",
"D. c #685B29",
"F. c #63513D",
"G. c #685038",
"H. c #695937",
"J. c #6D5228",
"K. c #49633B",
"L. c #5A6B3B",
"P. c #4C7B3C",
"I. c #53622F",
"U. c #626124",
"Y. c #6B6425",
"T. c #6C6629",
"R. c #746424",
"E. c #746823",
"W. c #7A6923",
"Q. c #766728",
"!. c #7D6628",
"~. c #706828",
"^. c #796727",
"/. c #707820",
"(. c #717124",
"). c #6F6B2F",
"_. c #444441",
"`. c #4D4A42",
"'. c #4D4C4A",
"]. c #524E43",
"[. c #5A4E41",
"{. c #5B4B45",
"}. c #4D5641",
"|. c #545145",
" X c #5B5243",
".X c #5A5C44",
"XX c #505048",
"oX c #5A544B",
"OX c #545947",
"+X c #545453",
"@X c #5B5753",
"#X c #5D5A53",
"$X c #635443",
"%X c #6B5945",
"&X c #635649",
"*X c #625A4C",
"=X c #695C4D",
"-X c #655943",
";X c #765D45",
":X c #645B52",
">X c #6A5E51",
",X c #625E59",
"<X c #4A6742",
"1X c #5C6547",
"2X c #5B7547",
"3X c #4E7447",
"4X c #65654B",
"5X c #6C644D",
"6X c #62694A",
"7X c #6E6450",
"8X c #6B6C52",
"9X c #68695A",
"0X c #706050",
"qX c #7B6857",
"wX c #6A7553",
"eX c #727554",
"rX c #6B6E4D",
"tX c #6E6C60",
"yX c #707467",
"uX c #846528",
"iX c #896626",
"pX c #897629",
"aX c #88684C",
"sX c #887162",
"dX c #0C9C0C",
"fX c #129C0E",
"gX c #148F12",
"hX c #198B15",
"jX c #149814",
"kX c #169013",
"lX c #24841C",
"zX c #00A400",
"xX c #08A306",
"cX c #19A916",
"vX c #208620",
"bX c #2C9724",
"nX c #38882E",
"mX c #2BA425",
"MX c #478238",
"NX c #588B47",
"BX c #63804D",
"VX c #749059",
"CX c #5FB855",
"ZX c #64E464",
"AX c #4BD44B",
"SX c #97802E",
/* pixels */
"b.n.n.'.=X=X>X5X>XoXXX].n.n.B.v.b.o.W X.m.XX].m.m.n.m.|.|.n.].XXXX`.n.n.m.|.F.F.=X#XM.n.n.{.{.|.n.n.m.].m.].=X#XoX[.'.o.z.n.m.|.XXm.m.XXXXF.F.V.].| + . ",
"=.B.n.|.XXXXoX:X+X>XoXXXXXXXn.`.m.n.n.Q z.m.XXXXXXm.].|.G.|.n.].|.n.XXm.n.m.XXXXXXoXF.XXn.].V.G.XXn.n.m.].n.XX=X:X+XXXn.n.n.n.XXXXm.].XX'.XXXXOXM.Q @ + ",
"v.;.lXgXkXgXkXbXNX0X0X{.W o.Q b.l.Q Q o.U | X.W o.U Y Q Q o.U B U Q U L H N N S U U S P H N L Y Q o.U U P U P P | o.| U v.v.b.&.gXgXgXgXgX2XM.m.n.O.+ . ",
"|.:.jXzXzXzXzXcX2X>X$X| g 7 g x x n q 7 c x 7 g e a w q 6 a c r q r s 0 r r w q q r r r r r > : r : c c r i w q e v e c H I I ~ zXzXzXzXzX2X<XB.s.P 1 O ",
"`.<.dXzXzXzXxXbXOX$X| y 4 5 4 5 8 8 5 5 6 7 8 9 0 = @ 5 5 5 0 0 0 0 = 0 > > > 0 > > 1 1 w : : @ 0 = : w > > 0 > > > > > r v H K $.zXzXzXxXMX3XK.s.U 1 O ",
"R %.xXzXzXfXbXBXXX..e 8 4 0 & 5 = 5 3 0 4 4 5 9 0 5 0 0 @ 0 0 0 0 @ 0 @ = w 1 @ 1 > > 1 > , < 0 1 > 0 0 1 0 0 0 1 w 1 > < r c N S hXdXzXzXbXL.-Xb.P + . ",
"| %.jXzXzXMX2XOXXXd 5 8 8 q @ 2 ; r 9 0 2 3 & 2 q 0 0 0 0 0 0 0 @ . 0 + : 1 0 . @ > 1 0 1 0 > 1 0 1 0 0 > 1 0 @ > 1 0 1 > + * N U T vXzXzXVX).I.v.U 0 . ",
"X.$.xXzXAXP.}.l.3 0 @ 0 8 9 0 0 0 0 5 3 q r r 9 r 0 > 1 @ - @ + + 0 . @ 0 > 1 0 1 > 0 1 0 0 > 1 0 @ 1 > 0 1 0 1 > > 1 1 o X , 1 W U <.jXzXBX2X1X`.| 1 O ",
"O.$.dX&.NXC.O.e 4 0 2 2 2 8 2 5 5 & @ 2 8 > > 5 0 : : @ + $ + @ @ + @ @ + : 1 0 1 1 1 0 1 > > > 1 0 > > > 1 0 1 1 r r O O = r 1 F H R -.zXnX2X4XoX+.0 + ",
"O.-.,.C.n.| e 2 4 8 5 2 3 8 5 5 2 ; 0 5 0 > > 0 > O @ 0 : O + + + + + @ O + 1 0 0 > 0 @ w 1 1 0 > > 5 > 1 > > 1 1 w = . + > r r 1 r H Y d.K.4X7X&XQ 0 . ",
"l.x.+XXXf.n 7 s 4 f 7 7 d g 8 4 7 q w q r r w w , , @ 0 0 : > > : 0 + > > @ q > 0 q w 0 0 r w w q r r w r 0 1 1 > = X : > 1 r > 1 1 c L m.=X5X0X&XQ 0 . ",
"m.M.G.XX/ S ' / / / S ' ( B k / Z U B B U P F 1 L q r 1 t 1 q t t F q 1 r t H 1 G G G F t v t v P H P N t 0 1 1 : X O F 1 > q i 0 r 1 v XXXXF.G.M.... . ",
"n.].XXn.B ` ^ f / ` ( / ( U / S U U S y M v t q q r r t t t r F G q K F r t K t v v q t 1 q v M M H N U U U = o + > F 0 r F 1 @ F 0 + - o.XXXXXXm.| O . ",
"n.n.m.n.( ( ` V k B ( ' S N S N L M t K K v v q t r t t t t v t q r y t t K t 1 v v r t G t v P U U U N P N + , @ > F 1 1 r r r 1 0 + * W *X*X*X{.o.O . ",
"n.z.x.s./ ( _ m j P ' ` P L N H G M M F v t v q r q t r r q K t q r t t G r y 1 r r r t M t L P P U U L G r + r r r r 1 F r r r 1 > + * Q 0X0X0X&XW O . ",
"].l.Q f./ _ j j S U ` B N M H N v t v c t t t r r > > r 1 q v r r q r v r r t r > 1 r t q M L K K U U H 1 : e G G r > 1 1 r 1 0 1 > * * W =X0X0X&XQ O   ",
"m.].|.n./ / _ _ / U U L v t L L c r t M K v 1 > t r r r 1 1 1 1 r q t t r r q q r r t M q M M H L P N z : t S U L G F 1 q r F 1 @ 1 * * | XX+XoXN.U 1 + ",
"_.M.G.n./ _ j h U B L L L L q v t r 1 t v c 1 1 1 q t q 1 t t t q K t r r q t 0 1 r t t L t M P L L : , c o.P U N U N 0 1 < > F 0 > * , Q G.|.XXc.U O . ",
"`.|. Xn. .S B B P P L G v t r c G v r G c q r q 1 v c r r K r r t L r r y v r q q q q v t v M M t : @ r L U U U U U U N F 0 0 1 0 > * * Q ;X&XoX_.U + . ",
"XXoX].n.| U U P L I L L K v r G v v y v r r q t F v c r y t G v v v F v v c r r r q r v v L N c = : r M N H U U U R U U F 1 > 1 > > * * Q >X0X>X].U > + ",
"&X5X-Xn.N L B P M L H L G M t v v r L t r r t y G t t r t t v G v t K v G r t r r r q q L K v r # c K L B L P N K H Y P r > > 1 1 > + * Q =X>X:X].O.r + ",
"oX8XwX].K t v v t L N t t t L L c c L L t t t K 1 G v t K t t r r t H L K G H t r r t t K r > O 0 H P P P K K L L N N L e w 1 1 1 > + % o.XXXXXX`.Q @ . ",
"oX4X7Xo.X X o : H U L L B K q  .N w v U y M G t 5 o X X X X S h.Y.iXaXQ.~.~.S.aX) & o 0 1 > w c X 1 G U d.N.N.S.).;Xd.E. .' j 0 X X X * Q G.].].v.Q 0 + ",
"@X:X0Xe X X * v h.U L n h t q P }  .z.L t r r : o X X X X 6.k.Y.~.Q.!.Q.^.!.T.T.a o o 0 + * < r 0 * ; } Y.!.D.D.!.).D.uXf.Z 3 o X X X * Q oX*X&Xv.d.O . ",
":X:X:Xe X - N f.T.d.5.[ ' M r V B U P L r r : o X X X # < Y.~.~.~.~.E.E.Q.^.~.D * X X * O O + : r % Z h.Q.iX~.R.E.(.R.uXA ; # X X X X * +.+X>X>X].s.O   ",
":X:XoXU - S A.Q.~.U.t.r.d.' v j x r t G r : O X X X % z  .~.~.E.R.~.~.E.~.Y.h.. X X X X o O o * w h S.(.Q.uX~.E.Q.~.Y.t.& X X X X o X * O.oX:X:X].O.O . ",
"#X%XG.P d.Y.!.uX~.p.E.~.Y.2.d.e q t L 1 0 0 @ X X O D U.~.~.R.R.y.~.~.uXR.6.X X X X X X X O + 6 f E.~.(././.~.p.E.~.~.0 o o O O . O X * S G.XX@X%Xo.O . ",
"|.oXoXn.p.Q.~.~.p.~.~.!.uXE.3 o o : 1 X o o o @ X D k.~.E.y.S.h.g.k.U.0.s X X X X X X X X . r N d./ 5. .S / N U S N d F : + > O 0 5 + * U XX$X$X].W O . ",
"XXXXXXqXY.H.D.U.A.H.g.j.N.` < : : 1 q @ : : + o 1.q.Y.~.~.R.U.S.g.f.f.s % X X X X X X X X 3 ' h.t.q.u.S.h.q.4.1.m = # : o o o O O O O $ H XXV.N._.U + . ",
"XX|.|.aXY.D.U.k.A.H.j.} v = * $ * * * + * = w D i.i.Y.~.~.Y.U.k.A.d.b $ X X o o X X X X s [ q.Y.t.D.a.Y.Y.Y.r.( 6 X X o X X X O O O o $ H ].m.m.c.U : . ",
"*X XG.0X/.i.U.U.u.~.0.h o X X X X X X X o ; } S.~.W.W.~.Y.k.k.k.h.S O X X X O O o X # % 1.t.R.~.Q.y.^.E.~.~.w.z o X X X X X X X O , $ - R |.m.n.z.L 1 O ",
".X>X0XaXU.i.a.(.~.~.p X X X X X X X X X O A ~.~.~.uX!.Y.U.U.f.d.S X O o X o O 0 + o % / E.R.R.^.iX~.uX!.~.E.X X X X X X X X X X $ M ; * Q G.|.`.s.R O . ",
"oX9XwXaX~.~.~.~.Y.X X o O O X X X X X O h.R.y.~.~.~.~.S.d.d.U r O O O o o + > t 0 e K G P U ] 0.U.~.~.~.h.X O X X X X O X . O O N h & * Q +XF.F.v.P = + ",
"1X8XrXeX1.f.7.) n @ @ @ @ w , = @ @ @ h.i.E.R.~.p.iXQ.T.k.o.z * O o X o o * P 0 g / 1.0.1.1.0.i.i.E.Y.6.< o @ o X X X O O + = 7 L s & $ R >X4X4X`.| w . ",
"1X7X0X1X' 4.l 6 + @ 0 > r 0 1 > w e ( i.p.a.E.E.E.W.E.Y.9.z $ o o X X X o = I j 9.r.t.i.r.r.i.E.E.k.D p o o : o X X X O O ; e f P l & - U oX8X7XoXO.> O ",
"0X>X0X.XA h & O O O @ : : @ , 0 n { t.u.a.W.E.p.E.(.Y.8.f X X X X X X X o : n 2.U.~.~.E.Y.E.a.a.r.D * X X X O X X X X * = w N h S l s % S XX*X0X&XQ @ + ",
"*X:X+X~.2.% X X X X X X X X X c 5.u.~.~.~.E.p.~.p.E.d.0 X X X X X X X X o ; 2.S.U.Y.Y.p.~.p.W.r./ X X X X X X X X X X e ( ( P N / S < % U XX+XoXM.Q 0 . ",
"XXXXXXG.X X X X X X X X X X d w.Y.^.iX~.p.E.~.~.E.1.s X O X X X X X X X A ~.~.~.~.E.p.~.p.Y.9.f X X X X X X X X X % o.uX{ Z / / U ) s $ P +X$XF.XX..O . ",
"|.m.].R X X X X X X X X $ z t.Y.Q.uX^.pXW.E.R.p.n & # X o @ o X X X O D k.R.y.~.~.E.R.y.E.e.d # X X X X X X X X s ) 0.u.1.D D f U h & * S +X=X$X].o.O X ",
"].M.N.C X X X X X X X - m 9.a.^.!.!.~.iXW.Y.k.] * o X X o + o X # # A r.Y.R.R.!.E.E.R.R.D s # X X X o o o X o & l 9.q.0.l s s z j a ; > U +X&X%X{.| : . ",
"XXv.n.U X X X X X X * D j.p.~.uX!.Q.~.uX~.k.A O X X X X X X X X % f E.W.E.~.~.uXQ.E.a.r.O o X X X X O . O o i ] 9.f.f.f.m s a v f ; : 6 P +XF.F.&XU 1 O ",
"m.XXXXS X X X X X X S r.p.R.~.E.uXuX~.~.~.A O X X X X X X X X + m p.~.iX!.~.~.~.~.~.q.f O X X X X X X X X X U.T.W.p.~.~.h.[ ) d.f # X * N XX=X5X&XP O . ",
"m.oXF.Q 0 0 > @ O / S [ 9.d.2.S.~.~./.U.p o X X X X X o O X N A.a.~.p.R.E.p.~.~.R.{ @ X O @ + X O O O o - d.p.i.i.p.~.p.{ ' ( U X X X * U XXM.V.v.B @ . ",
"m.XXoXO.0 = > c S S ( ' Z ) 7.f.w.0.h.n > : , O X o + : @ / j.Y.R.u.h.0.0.7.1.{ N e @ @ @ 0 @ @ @ @ 1 i m ) 5.4.4.5.1.5.n w 6 , + $ o * ! m.m.n.z.| 1 + ",
"].oX#Xs.+ + 7 } A.8.8.8.8.0.r.j.7.4.z + + * $ X X + > q w r.Y.E.a.t.r.r.q.7.3.i * + + + 0 > > > + > m S ] 3. .} ] ' [ ] z $ $ O + O o $ Q ].N.N.n.X.1 O ",
" X*X>Xz.X ; ] t.~.p.~.W.W.~.a.Y.f.b X X X X X X o < r t N ~.~.R.W.~.p.~.U.q.) X X X X X 0 > > > : G 4.w.7.0.f.f.9.4.f.2.s $ o O X o o - W @X].m.`.Q 0 + ",
"XX:X0XQ X w.!.iX/.~.~.!.iX~.~.f.b X X X X X . O 5 t v N / E.U.Y.E.~.~.Y.U.6.O X X X o O 1 0 r c L d.k.U.U.~.U.k.U.k.U.2.; O o X X X X * o.0X@XoXM.Q @ . ",
"[.=X0XQ d.S.~.Q.iX~.uX!.~.~.d.- X X X O X o > I X + x  .U.p.Q.pXSX~.~.t.Z O X O O + 5 0 > 1 q y L t N ] 0.~.U.J.S.h.U O X X X X X X X , Q 2X7X=X$X..+ . ",
"&X&XoX;XU 4.7.f.d.....4.1.d.- O o X X O + + = t O , r x  ./ 7.8.2.1...s % X X o O O . + + $ @ = $ = 1 M Z 1. .d.S ; : o X X X X O O X * U 5X0X0X&Xo.O . ",
"oXoX].%XN S } U P S U S B L = , < , * O q r c N w c t e N 7 N m m j t = @ * = = > = : < , , 0 q = : w t M B w N v < > = o o o o : O o * U 0X>X4X-Xo.O . ",
"].m.n.n.U U L L N U U L N K e N L c 1 : v L U N U P v t K 0 t r r r 0 0 w t r t e t t y 1 v v t q c v y t G : > e M t r + : O + : + o % U =X#X#X<XX.O   ",
"c.m.n.n.U S U U H S U L G L U L F , . L H M M H H t t t M t t t w , q 0 r 1 1 L L L G L L t r r q L v v t t L q q t L 1 0 + + 0 O O o $ U XX=X>X'.Q O . ",
"x.m.|.n.U L N U U U U N P K e r , : G L M K N H N H M t K 1 H v 1 t 1 > q t q H t t K t L L H L L t 1 r t L 1 v G 1 t t + @ @ O O @ + * Q |.m.M.`.Y O . ",
"x.m.m.n.L L H N N U U P L L 0 O = e N L v M G M t M v t L 1 r q e 0 q t t r r r t M v t t K N G H r v v r r > t t t 1 0 : O : @ O 0 + * X.XX|.].c.| + . ",
"c.m.n.l.L M M P U U U P K c + = w v L P v v L K v v M v t F r q r 1 t v v v r r t M M v t v v N t r v r 1 r r t t t > > @ + O @ @ + O - W oX*XoX`.o.> + ",
"s.z.n.+.H t M P H U P M c < o w M H v U L M G L M t t M q r r r 1 r q r v v t t v v K M L M t c t t t r r r r r G t 0 1 > : O O 0 + o * Q 0X7X*X`.o.1 O ",
"m.XXXXn.L L L H M H M r = O t M H M t K M v t L K t t G 1 t 1 > 0 q t M r r q L y K v t K K r q K 1 t t t 1 q 1 r q 1 q @ @ @ O > 0 + * Q >XoXoXoXP 1 + ",
"XX&X>XQ K t t y H M q @ : L t v K L K q v c r t L t t t 1 1 0 q v 1 1 r t y H 1 r t t L @ 1 v G q 1 r r 1 0 1 t t q t 1 > : + 0 1 1 * * o.XX|.'.v.X.O . ",
"].oX%X;Xr G r r t c $ * r L M t q v L q t v v t L r r q t r w r r 1 q r r t c G y r r t 1 q r r t 0 0 0 r > t r t t K q : : > @ : , : - W +X[.[.v.| O . ",
"m.M.V.$Xr v q r r * * q M H y v v v t t r v t r M r r t t r r r t r 6 r r q r G r c v t r r q > r > q q r r 0 r r r v v > : > > + 1 $ * Y :X=X%X|.Y + . ",
"n.m.XXn.t q r w < o q M M L t v K t q G G r q 1 t q r r t 1 q r 1 q 2 @ q q q K r G v t r r r 0 r 1 q r r r 0 q r r t M q 0 > , > , : - Y =X0X0X&XQ = + ",
"m.n.n.n.q r , O X t v t t K L t v G t 1 G v r 1 1 1 r t q 1 > q w u 1 q r 1 1 q K M t K 1 t r r t 1 r q > r 1 t M L K t 1 > 0 0 1 # O t n.XX|.oX&XQ . . ",
"XXXXXXn.Q r + # 1 q K M t t L r r t F t q r r q q t r 1 1 0 1 1 r t 0 1 r q 0 t r 1 r t 1 t t t t K r r t q t L K K K H 1 1 1 1 O O N n.n.n.z.m.v.o.1 O ",
":X4X6X,Xz.P e : > r r q r t F 1 r q r t r 0 > r t r r 0 1 0 > > > r q q r w 0 t r t r 0 G r F y t t G t r r M t v v t G q 1 1 O O ! v.V.B.K.B.B.`.Q : . ",
"7X6X3X9X1XoXl.L q r r r G r r r r r r r r r w r r r r w r > q 0 r r r q q r > t r t t r H v v v v t M t t c v y v v M t r < : > W '. XH.,.,.K.B.`.W + . ",
"#X:.dXMXVXeX>X[.K q r r v r t q r r K r q r r r r q r r r r r r r r > > q r r t G r M K N H G L L t v M v L t L M M B t 1 : > I =X{.K.MXzXbX2X*Xn.| 1 O ",
"|.$.zXzXVXBXeXqXn.K r r q t 1 t r r t t 1 r q 1 q 0 q q 1 t 1 > > 1 @ 1 r t K t v M M t M t t N L L t x M G L P L H K L : + v +XG.|.vXzXzXVX3X<Xx.P 5 . ",
"`.<.dXzXmXCXCX0X7Xn.U K L H t M N G K M L L L U K L N K L K K t y B t K K v H S L K M K U U | o.U L P Y | U H U P v q 1 : J ].G.].:.dXzXzXBXI.C.`.| r O ",
"=.%.jXzXzXcXmX2XoXXXz.z.o.| o.T +.X.| E O. .| | | Y T  .| | | O.X.! o.| | | | s.W +.z.o.&Xn.s.s. .o.s.M.$Xo.s.s.s.X.E > E c.m.|.kXxXzXzXzXbXP.L.N...0 + ",
"=.$.dXzXzXzXfXP.OXOX].m.m.s.].].@X7X%X].V.m.c.c.M.|.OX-XM.M.M.$X X{.$X$Xm.m.M.].v.n.m.m.5X&XoXoXM.$X$X=X5X1X$X-X-X.X}.@.[..Xv.>.zXzXzXzXzXcXP.6XM.o.0 + ",
"T $.xXzXzXzXzXfXMX<XOXoX Xn.|.oX9XyXqX=X=XoX].XX>X8X9XtX>X=X=X=X=X*X=X=X@XoX=X].V. X].].=X=X:X,X0X>X=X=X7XrX7XwX9XqXeXrX0X=X>.zXzXzXzXzXcXjXL.&Xv.| , O ",
"E %.jXzXzXzXzXxXjX0X=X0X:XXXn.`.XXXXXXXXXXm.m.|.+X>X0X0X0XXXXXXXXXXXXX'.].N.XXn.].m.n.n.n.].].oX0X+X$X X@X0X7XrXwXyXsXwX5XwXMXzXzXzXzXzXZXjXZ.z.s.P X X ",
"R ~ #.-.#.;.<.-.I.0X=X:X5X*X XM.n.m.n.m.m.m.m.n.|.>X0X0X0X+X X[.].m.].V.V.`.m.].|.v.n.n.n.m.m.n.oX+XoXoX$X;X0X7XqXsXyXwX8X=X=.;.>.>.;.#.NXK.B.m.z.S @ . ",
"o.c._.+.m.l.l.+.N.V.M.V.M.V.B.'.[.M.].=X=XoX].].m.oX:X0X@X>X=XoXXX].XX|.oX=X].XXm.m.m.|.|.n.m.].m.+XXX].$X@X6X7XqX0X#X8XtXtX5X2X=X4X4X2X5X].|.XX`.'.N = ",
"l.l.l.l.x.X.Y Y o.*.T T X.O.T +.c.c._.]. X Xm.+.x.c.].{.v..XV.V.m.c.l.x.m.M.x.z.l. .X.l.l.l.l.l.T x._.x.m.c.}.V.{.].'.oX*X4X%X1X.X$X.XOX$X_.`.m.].].L : ",
"E I H E E L N P N C H F H v v N L E E E +.o.X.N J Y I E U *.*.O.o.Y L E R Y R Y U L N M N E I B C K Y E I | E Y Y E E o.o.+.x.| o.o.Y E o.E O.o.z.o.K ; ",
"< < 1 1 q r 1 q F q e t t t q t q t L t q r r t t r r q 1 1 F 1 1 1 1 1 1 1 3 1 1 1 q 1 r q q q t 1 r t M q q r r t 1 q r 1 1 0 1 > > 1 q 1 > w M q v : ",
"                                                                                                                                                        ",
"                                                                                                                                                        "
};
