/* XPM */
static char *_659367898054[] = {
/* columns rows colors chars-per-pixel */
"76 79 244 2 ",
"   c #010101",
".  c #0A0707",
"X  c #040C00",
"o  c #090D05",
"O  c #0C0C0B",
"+  c #130D0C",
"@  c #1A0F0E",
"#  c #0C1104",
"$  c #0E120A",
"%  c #121503",
"&  c #1D1B03",
"*  c #12150C",
"=  c #19120D",
"-  c #161A09",
";  c #1D1A0C",
":  c #141312",
">  c #1E1414",
",  c #161914",
"<  c #1C1A12",
"1  c #1C1B1B",
"2  c #201605",
"3  c #211A02",
"4  c #2B1A02",
"5  c #21140B",
"6  c #251C0B",
"7  c #291B0A",
"8  c #291709",
"9  c #311A00",
"0  c #211212",
"q  c #291616",
"w  c #241A15",
"e  c #2B1B15",
"r  c #231B1B",
"t  c #2B1A19",
"y  c #341B18",
"u  c #102010",
"i  c #182214",
"p  c #1E220B",
"a  c #2A220B",
"s  c #282407",
"d  c #342100",
"f  c #352A02",
"g  c #33230C",
"h  c #342A08",
"j  c #3A2C0B",
"k  c #3B2A06",
"l  c #3C320C",
"z  c #242312",
"x  c #2C2114",
"c  c #25211D",
"v  c #2D221D",
"b  c #2B2916",
"n  c #332414",
"m  c #352C12",
"M  c #31251D",
"N  c #342B1D",
"B  c #3B2C1C",
"V  c #3B2E13",
"C  c #29301E",
"Z  c #3B3314",
"A  c #3C3B15",
"S  c #3C331A",
"D  c #383718",
"F  c #212020",
"G  c #2C2521",
"H  c #2C2923",
"J  c #2E2E2A",
"K  c #322622",
"L  c #312920",
"P  c #3B2C22",
"I  c #382926",
"U  c #283820",
"Y  c #2A3322",
"T  c #393021",
"R  c #3A332C",
"E  c #3E3A2B",
"W  c #353427",
"Q  c #343131",
"!  c #3D3934",
"~  c #383838",
"^  c #393632",
"/  c #691812",
"(  c #701810",
")  c #7E1810",
"_  c #412808",
"`  c #483804",
"'  c #44350C",
"]  c #48390A",
"[  c #482B14",
"{  c #432A1A",
"}  c #413413",
"|  c #453B13",
" . c #493D14",
".. c #493D1D",
"X. c #43391A",
"o. c #583C14",
"O. c #752518",
"+. c #6F3119",
"@. c #423525",
"#. c #443C22",
"$. c #4A3C25",
"%. c #42362B",
"&. c #443A2C",
"*. c #483A2A",
"=. c #413A31",
"-. c #483830",
";. c #5A2C22",
":. c #723830",
">. c #3C432B",
",. c #3E4636",
"<. c #52440D",
"1. c #594A0B",
"2. c #504006",
"3. c #4E4213",
"4. c #4D421B",
"5. c #49491C",
"6. c #554B1C",
"7. c #5B4E1A",
"8. c #554915",
"9. c #5D5014",
"0. c #5B551D",
"q. c #55511D",
"w. c #4F400D",
"e. c #64591B",
"r. c #685818",
"t. c #795B1F",
"y. c #705C12",
"u. c #6E611D",
"i. c #74651C",
"p. c #7A681A",
"a. c #7A671E",
"s. c #4D412E",
"d. c #4C4424",
"f. c #534B24",
"g. c #554927",
"h. c #565222",
"j. c #5D5424",
"k. c #5C5A23",
"l. c #5E552B",
"z. c #454035",
"x. c #4D4434",
"c. c #45433C",
"v. c #4C453A",
"b. c #4C493E",
"n. c #49493B",
"m. c #544834",
"M. c #534B3B",
"N. c #5C4C3B",
"B. c #564735",
"V. c #455338",
"C. c #5D513E",
"Z. c #7D422F",
"A. c #615222",
"S. c #645D25",
"D. c #685B29",
"F. c #785D26",
"G. c #694738",
"H. c #784030",
"J. c #744432",
"K. c #63503D",
"L. c #685139",
"P. c #6B5A37",
"I. c #6E532D",
"U. c #626124",
"Y. c #6B6425",
"T. c #6C642A",
"R. c #6C6A25",
"E. c #746424",
"W. c #746823",
"Q. c #7A6923",
"!. c #766728",
"~. c #7D6628",
"^. c #706828",
"/. c #796727",
"(. c #707820",
"). c #717124",
"_. c #726A2E",
"`. c #444441",
"'. c #4D4B43",
"]. c #4D4C4A",
"[. c #524E43",
"{. c #5A4D42",
"}. c #594B45",
"|. c #4D5241",
" X c #545145",
".X c #5C5243",
"XX c #5C5C43",
"oX c #505048",
"OX c #5A544B",
"+X c #585948",
"@X c #545453",
"#X c #5B5753",
"$X c #5D5A53",
"%X c #624C43",
"&X c #625443",
"*X c #6B5945",
"=X c #62564A",
"-X c #635A4D",
";X c #695C4D",
":X c #675844",
">X c #755C46",
",X c #635B52",
"<X c #6A5D51",
"1X c #635F5A",
"2X c #5B6346",
"3X c #5D7449",
"4X c #6B654E",
"5X c #63694C",
"6X c #6D6451",
"7X c #6A6A55",
"8X c #706050",
"9X c #7D685A",
"0X c #796755",
"qX c #687850",
"wX c #6A7355",
"eX c #746F52",
"rX c #6E6C60",
"tX c #71736A",
"yX c #90150E",
"uX c #A80000",
"iX c #B70F0A",
"pX c #BA231A",
"aX c #923123",
"sX c #9C2D1E",
"dX c #C80000",
"fX c #D80705",
"gX c #D61312",
"hX c #D4120B",
"jX c #E30000",
"kX c #EE0000",
"lX c #EC0806",
"zX c #F50000",
"xX c #FC0000",
"cX c #904C2C",
"vX c #8E4C32",
"bX c #AF4D2F",
"nX c #846528",
"mX c #8C6428",
"MX c #866925",
"NX c #897629",
"BX c #8A5F4D",
"VX c #8A694E",
"CX c #8C7060",
"ZX c #97802E",
/* pixels */
"x.m.m. X<X<X<X8X<XOXoX[.M.M.V.m.m.*.! &.b.[.[.M.M.m.M. X[.M.[.[.oX[.M.m.M.[.L.K.-XOX XM.m.N.}.[.M.m.M.[.M.[.;X#XOX{.].*.m.m.m.oX[.M.[.oX[.K.K.&X[.*.+ . ",
",.V.m.oXoX@X#X<X<X8XOXoX XoXm.'.[.m.m.~ x.[.oXoXoXM.M. XL.oXM.M.[.m.[.M.m.M. X].OXOXL.oXm.[.{.L.[.m.m.M.[.m.oX;X,X@XoXm.m.m.M.oXB.M.[.oXL.oXoX[.B.~ 0 . ",
"|.+.+.jXjXjXfXgXP.8X8X[.! *.~ x.=.~ ^ *.T @.%.! *.T R ~ ~ #.T P W ^ T N H L T B P T T P K G L W ~ *.T T T T T L @.$.*.B b.b.s.+.jXfXjXjXjXJ. X[.x.*.O . ",
"oX:.uXzXzXzXzXgX-X8XK.#.7 a g x x n t a c n g 7 e 6 e r a a c t q r 6 w r r w w w r c F r w w , r , c t w c q q r c t c L T T W dXjXzXzXzXaXG.{.x.W > O ",
"c.O.uXxXxXxXlXsX+X&X%.g 9 5 4 5 5 8 5 5 6 7 4 9 5 5 0 @ 5 5 0 0 @ 0 5 0 > > > 0 0 > 1 1 w , : @ w + @ > 1 0 0 > 1 > > > r c M M  .iXkXxXxXaX%X}.$.P : O ",
"R ( uXxXzXgXpXG.[.$.t 8 7 0 2 5 0 = 4 = 4 4 5 4 0 0 @ 0 5 @ @ 0 @ @ 0 @ = w 1 @ 1 > 0 1 > , < 0 1 > 0 > 1 > 0 0 > > 1 > 1 r v L >.yXfXzXxXcX%XOXx.T O . ",
"T ( uXxXjXJ.@X+XoXd 8 5 2 y 0 2 ; w 9 0 5 3 2 3 t 0 0 0 0 0 @ @ @ + @ + : 1 0 O @ 0 r @ 1 > > 1 0 1 0 0 0 1 0 @ > 1 > 1 > $ - B S @.iXxXxXaX:.%Xb.T 0 + ",
"z.( uXxXH.{.oX=.2 0 0 0 5 9 @ 0 0 0 5 2 e r w 9 1 0 > 1 0 - > @ + @ O @ 0 > > 0 1 > 0 1 0 @ > 1 @ 0 1 0 > 1 @ r > 0 1 1 O o $ 1 ~ W +.uXzXcX>X<X}.&.1 O ",
"=.) uX:.B.M.%.e 4 0 2 2 2 8 2 5 5 2 0 3 5 r 1 5 > : @ > O : O @ @ + @ @ + : 1 @ 1 1 r > 1 1 0 0 1 0 0 0 0 1 0 1 1 r r o O : w F F L Q &.iXcX>X8X=X~ 0 + ",
"&.;.O. XB.@.x 3 4 8 5 2 3 8 5 5 2 5 @ 5 > > > 0 : + + @ + O + @ @ + + @ + + 1 0 0 > 0 @ < 1 1 0 > < 0 0 > 1 > 1 1 r : o + > r r 1 c H R d.I.8X>X=X~ 0 . ",
"n.v. X].g.n 7 s 4 f 7 7 d g 8 4 7 w w q r r w 0 i : > > 0 : > @ : 0 : > @ : w 0 0 w q > 0 r r w w r w r r > 1 1 w = o + @ w r > 1 1 c I M.<X;X;X%X! @ . ",
"b..XL. X` B } ` ` ` S } ' B k ` Z P B S T L v 1 K t r r q 1 t t t F q 1 r t K 1 G K G F t v y t T L N M v 0 1 1 $ o O F 1 1 > r = r 1 t oX[.K.L.G.d.O . ",
"m.M.oXm.B { j f ` { ' ` ' T ` S T T T y M M t t t r r t t t r c G q I F r t K t v t t t r q M M H L L T S T @ O + 0 F @ 1 F 1 0 F 0 + - %.oXoXoX'.%.O . ",
"m.m.M.m.' ] { m _ B ' ' S N S N L L t M M L t 0 t t t t t t t c q r y t t K t 1 G G r t G t M L L T T B L T + : > 0 F 1 1 r r r 1 > + * ! ;X;X;X.X$.o . ",
"M.x.z.g.` [ V j j P { S T L N L v v v G v t t t r q q r r t G t q r t t G c t 1 r r 1 t t v M N P T T L G r @ r 1 r r 1 F r r 0 1 > + , ~ <X<X8X=X! O . ",
"M.v.~ s.` [ _ j S T { B T v M H v t v F t t r v r > 0 1 1 t v t r q r t r r t r w > r t t K K K I T T H 1 + w G G c 0 1 F 1 1 > 1 > % * =.;X<X;X&X~ + . ",
"M. X[.m.` ` [ [ ` T T L M t H M c r t K M G 1 = t r r t 1 1 1 1 r q t t q r t t r r t M t M L L M B T w : t S T L H F 1 r r F 1 0 > $ - &.oX@XOXB.T 1 + ",
"c.C.L.m.` { _ h T P N L L K t v v r 1 t v c 1 1 1 r q q 1 t q t t K t r r t t @ 1 r t q K t M T L H : , v *.L T T T S > 1 > 0 1 0 1 : $ ~ L.[.oXb.T O . ",
"].[. Xm.#.S B B T P L L v t r c v v r G r r t t 1 G v r r G r r t L r r t G r q q q q v t v M M t : : w L L T T S T T M r r > 1 @ 0 $ , ~ ;X;X,Xn.P @ O ",
"+XOXC.m.@.T T T L K K M K v r G v t y v r r t q c G r r t y G v M t F v v r r r q w r v v M L c = : w M N H T T I L @.T F 1 0 1 w = + * ~ 8X>X<X'.@.> O ",
"-X*XP.M.P N B L M M L M M v t M G t L t r t t t G t t r t t M G v q L K c c t r r r r t K G v < # c K K T L T T L L @.P r > > 1 1 > + * ~ ;X;X-XoX%.r + ",
"$X7XqX XG t v K t H H v t t L G c r L G t t t L 1 G v t K t t r r t K H K L L t r r q t H t > + @ L P P L L L L L H L M w w 1 1 1 > % * $.oXoXoX].~ 0 . ",
"oX,X<X*.X X o : L T L L L L t #.N w H S t v K t 5 o X X X X S h.Y.mXVX!.^.Y.S.VX .3 . 5 1 > t c X 1 G T g.B.m.k._.>Xd.^.#.} j 0 X X X * ~ L.}. Xx.~ @ . ",
"$X,X8Xq X X * n h.T L n j t t P T #.x.L y t 1 : o X X X X 5.k.Y.Y.!.nX^./.~.Y.T.a o o 0 : $ < r w + ; X.D.F.T.F./._.D.MXf.Z 3 o X X X : ~  X-X-Xb.d.+ . ",
",X,X,Xt X - N f.Y.d.4. .} M q V S T @.v t > : o X X X # ; Y.^.^.^.^.i.^././.^.D % X o $ O O O : r % Z 0./.mX^.E.W.).!.MXZ ; # X X X X * ! @X<X<X[.*.O . ",
",X-XOXS - S A.!.^.U.r.e.f.} c j n r t v r : O X X X - z #.^.^.^.!.^.^.^.^.Y.q.O X X X X O O o * w h S.^.W.MX^.^.!.^.Y.r.& X X X o o X * @.OX-X1X}.%.O . ",
"-X*XL.L d.Y.~.nX^.p.W.^.S.1.d.e w t L 1 > 0 @ X X O D U.^.^.^.E.t.^.^.nXE.5.X X X X X X X o @ 6 f ^.^.).(.(.^.i.W.^.^.> o o O O O O o * P L.OX#X=X*.O . ",
"oX@X@Xm.p.^.^.^.p.^.^.~.MX^.3 o o : 1 X o o o 5 X D j.R.!.t.S.h.d.U.U.9.s X X X X X X X X O < L d.` 4.#.S ` T T T S d F + @ > O 5 = + * S oXN.K.].~ O . ",
"oXoXoX9XU.I.D.S.A.P.g.l.g.B < : : 1 q = , : + o <.0.Y.^.^.E.U.A.g.f.f.s % X X X X X X X X 3 A q.r.0.u.S.h.0.<.<.m * # : o o O O * + o $ J oXM.N.n.W + . ",
"OX X+XVXR.S.S.U.A.P.j.4.v = * + + * * + * = w D u.Y.Y.^.^.U.U.S.A.d.b $ X X o o X X X X s ] 0.Y.r.r.i.E.Y.U.e.' 6 X X o X X X o O O o $ H  XM.m.z.T : . ",
"OX&XL.8X(.R.U.U.y.^.9.a o X X X X X X X o 6 S U.^.a.Q.^.^.U.k.k.h.S O X X X O O o X # % <.r.!.!./.t.!.^.^.^.q.z o X X X X X X X O : $ $ W .XM.m.s.L 1 O ",
"XX8X8XVXk.i.i.^.^.^.p X X X X X X X X X o S ^.^.^.nX~.Y.U.U.d.d.S X O o X o O 0 + o % ` !.E.E.!.mX^.nX~.^.!.X X X X X X X X X X O v p * ~ L. X[.x.W +   ",
"OXwXqXVX^.^.^.^.!.X o o O O X X X X X O h.t.i.^.^.^.T.Y.d.d.T w O O O o o O > t 0 t H L P T  .9.U.^.^.^.q.X O o X X X O o o O O H h & * ~ @XK.L.n.T 0 . ",
"2X7X6XeX<.f.8.3.n @ @ + @ q , : @ @ @ h.i.E.!.^.p.nX/.Y.k.$.c + O o X o o : P 0 h ' <.9.<.w.9.Y.i.^.U.5., O @ o X X X O O + = 4 M h & * W 4X5X5X].@.1 + ",
"2X7X4X2XZ | l 6 + @ 0 > r q 1 > 0 n } u.p.i.^.a.i.Q.^.Y.8.z * o o X X X o * P j 8.9.r.u.e.e.u.i.W.l.A p o o * o X X X O O : e f N j & - N -X4X7XOX-.w . ",
"<X<X<XC.A l & O o o + > : + , > n ..y.y.i.W.W.a.^.).R.6.f X X X X X X X o > n 1.u.^.^.W.^.W.i.i.e.D % X X X o X X X X + = z N h S l s * T oX,X;X%X~ 0 . ",
"-X,X@X^.1.% X X X X X X X X X z 4.y.^.^.R.W.p.^.p.W.4.0 X X X X X X X X o 6 <.U.U.Y.^.p.^.p.a.e.` X X X X X X X X X X q ' ' L T ` S ; % P oX@XOXN.~ @ . ",
"oXoXoXL.X X X X X X X X X X d q.Y.!.mX^.a.a.^.^.^.1.s o o X X X X X X X A ^.^.Y.^.i.p.^.p.U.8.f X X X X X X X X X % *.p...} ` ` T ] s $ B #X%XK.oXd.O . ",
"M.M.M.E X X X X X X X X # c r.Y./.nX!.NXW.^.!.a.n & # X O = o X X X O D k.Y.t.^.^.^.E.F.W.w.s % X X X X X X X X s ] r.y.<.A D f T j & $ T @X;X=X[.$.O . ",
" Xm.m.C X X X X X X X * m 6.p./.~.~.^.MX!.^.0.| * X X X o + X X # # A e.E.!.E.nX!.!.i.E.A s o X X X o o o o o & l 8.7.9.l s z a m a ; ; T @X:X*X[.@.: o ",
" X[.M.N X X X X X X % Z 0.a.^.nX~.!.^.nX!.k.A $ X X X X X X X o % f ^.a.Q.^.^.nX!.W.i.e.O o X X X X o O o O i ] 8.f.f.f.m s s v f ; : 5 T @X=X*X=XT > O ",
"M.oXoXT X X X X X X S S.p.T.^.^.~.nX^.^.^.S O X X X X X X X X + m p.^.MX~.^.^.^.^.^.0.f O o X X X X X X X X U.^.i.a.^.!.h. .] d.f % X * T oX-X6X=XL O . ",
"M..XL.~ 0 0 0 = O ` S | 1.d.1.u.^.^.(.U.i o X X X X X o O X B A.a.^.p.!.W.a.T.^.!...@ X O @ + o O O O o - d.p.U.i.i.^.p...} ] T X X X * L  XM.m.v.S 0 . ",
"[.oXOX&.0 @ w r S S } } X.' 4.f.0.9.h.x 0 : , o X o + @ @ l 0.Y.E.r.7.9.9.6.<.d.m e = @ @ 0 @ @ @ : , c m ] X.3.3.4.<.d.n w 6 : * $ o * ! M.m.m.x.%.1 O ",
"{.OX,X*.. + a X.k.7.7.9.7.9.e.j.6.3.z + + * $ o X : > w w r.Y.!.i.u.e.e.0.6.2.; * + + . 5 0 0 @ @ , m S 4.2.S 4.| |  .| z * # O o O o * ~ [.m.M.v.=.1 . ",
".X,X8Xx.o ; | r.^.a.!.Q.Q.Y.a.Y.f.b X X X X X o o < r y N ^.Y.Y.a.^.i.^.U.0.] X X X X o > r > w : v 3.7.6.9.f.f.3.3.f.1.z # o O X O o * ! #X{.M.[.^ 0 . ",
"oX,X8X~ X q.~.MX(.^.^.nXmXT.^.h.b X X X X X X O @ q v S ` ^.Y.Y.^.^.^.U.U.5.$ X X X X O 1 @ r F L d.k.U.U.^.U.U.U.U.U.1.; O O X X X X - *.8X$XOXG.~ 0 + ",
".X*X4X~ d.S.!./.MX^.nX~.^.^.d.* X X X O o o @ I X = e X.U.p.!.NXZX^.^.y.Z O X O O @ @ 0 0 1 q y L t K | 9.^.k.I.A.h.T O X X X X X X X * ~ 3X4X;X=Xd.. . ",
"OX-XOX>XT 3.6.f.$.#.$.3.3.#.- * o X X O * @ * y O , w x #.` 6.7.1.<.#.a % X X X O o o * O O @ 0 $ * 1 M S <.#.d.S ; : o X X X X o O o $ W 4X8X8X=X*.O . ",
"OX.XM.*XP A X.T P S T S S N = > < , $ O > r c M 1 v r t N 7 N m m j x @ * = = = > > = > : ; > w = : r t M V w N c < > * o o o o @ O o $ T 8X,X5X:X#.O . ",
"].M.m.m.T T L L L S T L L L t M G c > : v L T B L B M t K 0 t r r q 0 0 w q t t t t t t c G v t q c y y t G : 0 t v t t @ O O + : + o * T ;X$X$X+X=.O   ",
"v.M.m.m.T T S T L T T L M L T L c 1 O L H M M H L t t t M t t t r u t 0 r F 1 G K L L M H t r r t H M v t t L t t y L 1 > + + 0 O O o % T oX;X<X].~ O o ",
"z.M.oXm.S L T T S T T T T L t r : : L H L L M G L L v t L 1 G c r q 1 > w t t K t v v t K M L L M t r r t L 1 G F r t t + + @ O O @ + * ~ oXM.M.n.T O . ",
"`.M.M.m.L L L L T T L P K L 0 $ * e P L t v L L t M y t H 1 r t q 0 t t t r r r t v M q t M H M H r c c 1 c > r t r r 0 : + @ @ O @ + * &.oX[.[.'.%.@ O ",
"v.M.m.z.L K M L L T T P M c + + w M L T M M L K v v M M v 1 r t r r t F v t r r v v M t v v M K v r t c 1 r 1 q t t > > : + O @ @ + O * =.=XOXOXb.$.> O ",
"x.m.m.~ L t M L L T N N c , + w v L v L L K G L L t t G t r r q 1 r t r v v t t v M L K L v t t t t t t r t r q v v > r > : O O > @ o * ~ 6X<X-X[.@.1 + ",
"[.oXoXm.L L L L H K G e : O t M M v t L K v t L L t y G 1 t r > 0 q q G F r q K t v K t v L r w K 1 r t q 1 t r r t 1 t : @ @ O @ > + * ~ <X+XOX&XW 1 + ",
" X-X8XoXH t t t H M 0 @ : K q M H K L t v c 1 q L t t q 1 1 > q v 1 1 q t y H 1 t t t K 0 1 c K t 1 q r 1 > 1 q t q t 1 0 @ + @ 1 1 $ - *. XoX X'.&.O   ",
"'..XL.oXr G t r t c * @ t L M t t M L t t v v t L r r t t r 1 r t 1 t r r t r G t r r y 1 q r r q > 0 q r 1 q r t t G t : : > > : 1 : * ! @X.X%Xn.T O . ",
"M.N.{.M.r v r r r * * w v L t M v t t t t t v r M r r t q r r r r r 6 w w t r H v r G t w r r > r > 0 q r q q r r t v t > > > : : 1 $ * Q -X*X:X}.R @ . ",
"M.M.'.m.t t w w < o w t G L t M K v 0 G F t t 1 t r r r q 1 q q 1 r ; 0 q q t v r G v t r r r 0 r 1 t r r r 0 q t r t G 0 0 > , > , * - @.;X;X;X-X~ @ O ",
"M.m.m.m.q 1 : O X t K v t L L t t K t 1 H t r 1 1 1 r t q 1 > q w - 1 q r 1 1 t G v t L 1 q r r t 1 r q 0 1 1 r v K K t r > 0 @ 1 # + t m.oXoXOX=X~ o . ",
"oX XoXm.~ w + O 1 t v v t t L r r t F t t r r q t t q 1 1 0 1 1 r t @ 1 r q 0 q 1 1 r t 1 t t t t K r r t q t M H L H K F 1 1 1 O O M m.m.m.B.B.'.%.1 + ",
";X5X5X;Xv.B e @ > r t t r t F 1 r t 1 t r 0 > r t r 0 1 1 0 > > > r q q q r 0 t q G t 0 G r F y t t G t q r M t M G t K > > 1 : O ^ b.C.G.J.B.v.'.~ : . ",
";X>XI.BX<XC.&.L q r r t F r r r q r v r r r > r r q r > r 1 0 0 w r r q q r > t r t v t H v G M v t M t t c v M t M M v r , : > R ].}.=XpXZ.N.M.b.%.: O ",
"+XH.sXbXVXCX6X[.M t r r v r r q r F G r t r r t 1 q r r q r r r 1 t 1 > 0 q c t v r v G L M M H M t M v v L t M M v L y 1 : > I ;XOXG.BXxX:.%X Xx.@.1 + ",
"m.) dXxXbXBX9X9Xm.L c r t q 1 t r 1 t q 1 r t 1 q w q q 1 t r > 0 1 0 1 r t L q M L M t L t t K L L t v M L K L T L M H : @ G @XL.}.sXjXxXH.>X<Xv.P 0 . ",
"c.( uXzXxXbXBX0X8Xm.W M L L t M M K M K L L L T L L L K L L L t t B q M K H L P L G L M T T @.*.T L L @.@.T L T L v t 1 + J [.L.[.sXkXzXxXcX{.oX'.*.1 + ",
"z./ uXxXxXgXpXP.$XoXx.x.*.@.*.R =.*.@.Q &.#.@.@.R E E $.@.@.@.*.&.^ *.%.@.@.@.x.! =.x.s.OXm.s.$.@.s.s.N.&Xs.s.s.x.&.Q w ^ v.M.oXhXfXzXxXxXH.%X XN.*.5 O ",
">./ uXxXxXzXlXsXG.7XOXM.M.s.[.[.#X6X:X[.N.M.z.v.N. X+XOX{.N.N.{.OX[.&XK.M.M.N.M.v.v.M.M.8X&XOXOXN.&XK.;X4XXX&XXX:XOX|.-.[.}.M.sXlXzXxXxXxXH.{. XM.*.> + ",
"! / uXjXkXlXlXiXH.N. X X.XM.[.=X7XtX9X<X<XOX XoX;XwX7XrX8X<X;X;X;X;X;X;XOXOX;X[.K..X[.[.*X;X1X1X8X<X;X;X;XqX8XwXwXeXeX4X8X<XG.dXjXjXjXkXjXJ.{.[.b.@.< O ",
"R ( uXuXuXuXuXyXcX@X<X6X<XoXm.[.oXoXoXoXoXM.M. X@X;X8X8X8XoXoXoXoX X].].}.M.].m.[.M.m.m.m.[. X+X8X@X&X&XOX8X8XwXwXtXCXqX7X5X:.uXuXuXuXuXuXL.B.m.s.T X   ",
"W J C ~ U U U &.oX@X@X,X6X8XOXM.m.m.m.m.[.M.m.m.[.;X8X8X8X@X&X{.'.m. XK.C.oXm.oX X].m.m.m.m.m.m.oX@XOX[.L.8X8X8XVXCXtXqX6X-X~ ~ ,.V.`.,.qX XoX'.s.B > o ",
"*.v.V.x.n.&.E ! m.M.M.M.C.N.V.[.[.N.[.*X;XOX[. XM.OX,X8X#X<X;X=XoX XoX X=X-X[.oXM.m.M. X[.M.M. XM.@XoX[.%X#X5X6X8X0X#X7XrX7X;X5X5X4X3X3X7XoX]. X X].M = ",
"=.n.=.c.`.&.R R &.>.E =.E %.E =.z.v.c.[..XN.M.=.z.v.}.[.n.2X.XM.M.x.z.c.b.K.`.v.z.$.*.z.z.z.=.z.E v.`.`.v.M.|.C.[.[.].OX5X-X-XP.&X&X+X+X=Xc.b.M.[. XN > ",
"Q L H Q Q L N N N Y H G H M v N K ^ ^ Q ! -.&.N Q W I Q W >.E &.&.R L Q W T J @.L N N L N J I N C M Q ^ W @.Q R I Q Q -.&.z.c.%.&.=.E J *.Q %.&.s.*.L = ",
"> 1 1 1 t 1 1 t F t q t t q q t t y H t q r r t q r r q 1 1 1 r 1 1 1 1 1 1 & F i 1 t 1 r q q y t 1 r t M q q r t t 1 t 1 1 1 0 i r > 1 t 1 > q v t v , ",
"                                                                                                                                                        ",
"                                                                                                                                                        "
};
