/* XPM */
static char *_659140560646[] = {
/* columns rows colors chars-per-pixel */
"76 79 237 2 ",
"   c #010101",
".  c #0A0707",
"X  c #040C00",
"o  c #090C06",
"O  c #0C0C0C",
"+  c #110B0A",
"@  c #1A0F0E",
"#  c #0E120B",
"$  c #061203",
"%  c #13140D",
"&  c #19130D",
"*  c #131313",
"=  c #1D1514",
"-  c #161A14",
";  c #1C1C11",
":  c #1C1B1B",
">  c #221804",
",  c #281C0C",
"<  c #221212",
"1  c #291616",
"2  c #231C15",
"3  c #2B1B14",
"4  c #231C1B",
"5  c #2B1A19",
"6  c #331D19",
"7  c #321E06",
"8  c #1D2118",
"9  c #183018",
"0  c #2F2008",
"q  c #25221D",
"w  c #2D221D",
"e  c #2C291C",
"r  c #252114",
"t  c #33241D",
"y  c #342C1D",
"u  c #38281C",
"i  c #29301E",
"p  c #34301F",
"a  c #3B341D",
"s  c #332208",
"d  c #232222",
"f  c #2B2522",
"g  c #2C2925",
"h  c #2B2A2A",
"j  c #332621",
"k  c #322A21",
"l  c #322D2D",
"z  c #3A2B24",
"x  c #2D3621",
"c  c #3A3222",
"v  c #34312B",
"b  c #3A342B",
"n  c #3E3A2B",
"m  c #393723",
"M  c #323131",
"N  c #393632",
"B  c #3D3934",
"V  c #393938",
"C  c #42371F",
"Z  c #423425",
"A  c #443B23",
"S  c #4A3D25",
"D  c #42372A",
"F  c #44392C",
"G  c #493A29",
"H  c #413A31",
"J  c #4A3E31",
"K  c #423D3A",
"L  c #503834",
"P  c #36561C",
"I  c #1D6B16",
"U  c #23661A",
"Y  c #27781B",
"T  c #3C402A",
"R  c #3B492C",
"E  c #36542A",
"W  c #3D4536",
"Q  c #345231",
"!  c #346927",
"~  c #35752C",
"^  c #3B6935",
"/  c #337633",
"(  c #2B6E26",
")  c #4A431E",
"_  c #51541F",
"`  c #4B4323",
"'  c #46422A",
"]  c #4D412E",
"[  c #434027",
"{  c #514524",
"}  c #544A22",
"|  c #5A4E24",
" . c #52452C",
".. c #5A4C2B",
"X. c #54492B",
"o. c #455B2D",
"O. c #5A5024",
"+. c #5C5C2D",
"@. c #454035",
"#. c #4C4334",
"$. c #45423B",
"%. c #4C453A",
"&. c #4C493E",
"*. c #4E4834",
"=. c #514532",
"-. c #544834",
";. c #5B4B34",
":. c #534B3B",
">. c #5A4D3C",
",. c #50453A",
"<. c #4C533B",
"1. c #485636",
"2. c #5C533E",
"3. c #555838",
"4. c #625524",
"5. c #6A5D25",
"6. c #63532B",
"7. c #6B5B2B",
"8. c #675B27",
"9. c #705F2B",
"0. c #705E25",
"q. c #624E36",
"w. c #63513D",
"e. c #685038",
"r. c #655838",
"t. c #46643D",
"y. c #5A6B3B",
"u. c #4C7B3C",
"i. c #427C32",
"p. c #53622F",
"a. c #686025",
"s. c #736227",
"d. c #74642C",
"f. c #7A6A29",
"g. c #786727",
"h. c #756731",
"j. c #666E32",
"k. c #444441",
"l. c #4D4A42",
"z. c #4D4C4A",
"x. c #524E43",
"c. c #5A4E42",
"v. c #5B4B45",
"b. c #4D5642",
"n. c #555045",
"m. c #5B5143",
"M. c #585D44",
"N. c #515048",
"B. c #5A544B",
"V. c #555A4A",
"C. c #595A49",
"Z. c #545453",
"A. c #5B5753",
"S. c #5D5A52",
"D. c #595D59",
"F. c #635443",
"G. c #6B5945",
"H. c #635649",
"J. c #62594C",
"K. c #695C4D",
"L. c #635B45",
"P. c #715D4A",
"I. c #635C52",
"U. c #6B5E51",
"Y. c #605D58",
"T. c #4A6742",
"R. c #5B6D49",
"E. c #596346",
"W. c #5C7446",
"Q. c #5D6255",
"!. c #4E7447",
"~. c #616946",
"^. c #65644C",
"/. c #6B644D",
"(. c #636C4D",
"). c #656449",
"_. c #66734C",
"`. c #6E6552",
"'. c #6C6C52",
"]. c #6A6459",
"[. c #656958",
"{. c #716151",
"}. c #7A6653",
"|. c #746956",
" X c #7A6D56",
".X c #746A5A",
"XX c #7D6A5C",
"oX c #7B6759",
"OX c #6A7350",
"+X c #687951",
"@X c #6A765E",
"#X c #737556",
"$X c #716A4C",
"%X c #6C7367",
"&X c #757367",
"*X c #6F6D60",
"=X c #816E2A",
"-X c #816E27",
";X c #84722B",
":X c #89762A",
">X c #8D7A2B",
",X c #917D2B",
"<X c #907824",
"1X c #816C52",
"2X c #83725C",
"3X c #867161",
"4X c #0C9C0C",
"5X c #129C0E",
"6X c #148F12",
"7X c #198B15",
"8X c #149814",
"9X c #169013",
"0X c #23821B",
"qX c #00A400",
"wX c #08A306",
"eX c #1BA116",
"rX c #16B216",
"tX c #218620",
"yX c #2C9724",
"uX c #38882E",
"iX c #2BA425",
"pX c #478238",
"aX c #5C934B",
"sX c #538041",
"dX c #63804D",
"fX c #6B8053",
"gX c #78985C",
"hX c #53BF4D",
"jX c #78866F",
"kX c #6AB05C",
"lX c #60C060",
"zX c #64E464",
"xX c #4BD44B",
"cX c #98832C",
"vX c #988126",
"bX c #A68F28",
"nX c #88806C",
/* pixels */
"*.-.-.z.K.K.U.U.U.B.N.x.:.:.1.:.-.F B F %.N.x.:.:.-.:.N.x.:.:.N.N.x.:.-.:.n.2.w.H.I.v.:.-.v.v.n.:.-.x.x.:.N.J.S.B.w.l.G -.-.:.z.N.:.:.N.z.w.w.m.n.F + . ",
"W 1.-.N.N.n.B.U.Z.K.J.N.N.x.-.x.x.-.-.V @.:.N.N.N.:.:.N.e.N.:.:.x.-.l.:.-.-.N.N.Z.B.w.x.,.x.>.e.N.-.x.x.-.N.N.K.I.Z.N.-.-.-.-.N.N.:.x.N.N.N.N.m.;.V < + ",
"&.! 0X9X9X9X7XiXlX>.F.x.B #.K %.,.K K F F F K W J F B V K J F D n B n b c c n b N H D H c b c F B G F n b F n F J J J b &.x.o.tX6X6X6X6X6XW.:.:.-.D + . ",
"n.~ 8XqXqXqXqX5XaXK.F.J k z k t j j f k t t k z e t j j k f f d d 5 q 1 4 : 3 q 1 1 6 5 6 d 5 t 4 w w 5 t 5 6 6 6 t f q j z T ! qXqXqXqXqXW.T.1.#.c : O ",
"l.( 4XqXqXqXwXyXR.K.>.b k t k 5 5 e 5 t w w e f 5 f w 5 f d : d : < : = = : < : = 1 4 1 5 4 4 4 2 : 4 5 1 5 1 5 5 4 : : 2 5 m Q qXqXqXqXwXpXT.T.G c : . ",
"m U wXqXqX5XyXdXx.G z 5 f 5 w q 4 5 j 5 t j 5 w j 6 w f 1 4 4 : : : 4 : : : : : : : 4 4 4 1 4 : 4 1 4 1 3 : 4 w q 4 4 < - 8 e x Y 7X4XqXqXyXy.r.#.c + . ",
"m U 8XqXqXpXW.R.-.5 t w 5 k d 4 5 j 5 f e j w 1 e f f : = : 2 : : : < : = < : < : : : : 4 5 : : 1 : 1 3 7 1 4 5 5 1 1 d d : 1 z G 1.tXqXqXgXj.+.%.c & + ",
"J I 4XqXxXu.t.*.t t 5 w e d 5 w f f K f h f h f h f f h d d d f h d d f d d d f d d h d f f h d f h d h l 1 w 5 6 j 4 1 : < 1 < m ' Y 5XqXdX_.R.z.Z 4 O ",
"D I wXY aXo.' b t 5 5 e w 4 5 w 5 d M d d d d d d d d d d d d : d d d d d d d d d d d d d d d d d d d h g l j 4 5 w 4 4 4 4 4 + 2 e E Y qXuXW.^.B.N = + ",
"F E / 3.X.b l f k w w w f 5 w t q : % : : : : * : * : : * : : : : * : * : : * : * : : * : * : : * : * * 4 h h 4 5 w , 1 1 4 2 + o % x n Y i.).K.H.N < . ",
"K @.Z.e.-.l f 5 k t w w y k 5 e f * X : * * : O : O * : O : * * : O : O * : O : * O * O : O * : O : * O : : l f w j > 1 4 : 1 @ X O 3 e -.{.{.{.H.V < + ",
":.m.e.z.3 t k f 1 k f w 5 f j j q : O O * * O : O : * O : O * * O : O : * O : O * : * : * : * O : O * : * : : l h 1 j : 5 1 4 5 X ; 5 < N.Z.F.e.q.` . . ",
"-.:.N.G h 5 5 z a.<X<Xs.` { 5.A k : X O O * : O : O * : O : * * : O : O * : O : * O : O * * * : O : * * : O : : h V 5 1 > > 1 : O 2 ; X F x.N.N.l.G . . ",
"-.:.:.F g w 5 6 ) } } S c m S c f = o * * * * * * * * * = * * : * * * : * * * * * * * * * * * * * * * * * * * : d h N 4 3 < 4 4 o 8 ; $ F S.H.J.c.G O . ",
"-.#.@.B 6 5 5 w y q 4 5 t 5 w w 4 = O * * * * * * * * * * * * * * * * * * * * * * * * * * * * * * * : * : = - * : : N N w 3 3 4 X 2 ; X V U.U.{.H.N O   ",
":.K V G 1 e e C s.O.5.t f 3 t 3 4 : O O * * * * * * : * * * * - * * * * * * * : * * : * * * * : * * & O < & - O * : : N.j 3 0 d O r 2 X V {.{.{.H.V O . ",
"x.:.N.F h 5 5 8.| t C 0.e 4 5 5 5 : O : * * * * * * e e a ) - r 5.} C ; * r p p ) | } ) y - - p y * * * * * * * * O : d V V 2 : O r ; X G z.Z.B.;.c : O ",
"k.m.e.o.f y w | ` y C 4.: : : 4 1 * X * : * : * : * f.,XcXvX,XcXcXcXcXcXcXcXcXcXvXcXcXcXcXcXcXcXcXw * - : * * * * O O : M M > 1 O ; 8 X V e.v.N.$.c O o ",
"l.n.2.*.w j e 6.>Xf.5.f : : 4 1 < - . * : * : * : - cXf.cXcXcXcXcXcXcXcXcXcXcXcXcXcXcXcXcXcXcXcXcXp : : : * * * * * O : M l < 4 O r ; X V G.L.B.%.c + . ",
"B.N.x.-.5 w 6 4.S w w : : 4 4 < : : * : * : : : : : cXcXcXcXcXcXcXcXcXcXcXcXcXcXcXcXcXcXcXcXcXcXcXm : : * : : O * : O : M l < 4 O 2 ; X V {.P.U.l.c < O ",
"J.G.r.:.t 5 w 4.C 6 4 d q 5 4 4 : = : : : : : : : : 4.cXcXcXcXcXcXcXcXcXcXcXcXcXcXcXcXcXcXcXcXcXcX: : 4 : : : * O O : : M l = 4 X - - X V K.K.I.z.F : + ",
"J.'.+XN.5 w t u t 1 t w j 1 1 5 1 : O d : : : : : : a.cXcXcXcXcXcXcXcXcXcXcXcXcX:Xf.O.g.f.f.,XcX:X: : : : : * * * : O : M l < : X ; % X Z N.N.N.l.V < . ",
"B.I.{.N.e 5 t =X-Xs.| m 5 4 4 : : = : : : d : : : : cXcXcXcXcX:X: : : : : : : : 4 : : : : : : : : : : : : * : * O * : : M M 4 1 X - - X B w.n.x.%.V < + ",
"S.I.{.:.5 t Z cXm a ;Xk 4 5 5 f 4 < : : : : : : : : cXcXcXcXcX5.: : : : : : : 8 : : : : : : d : : : : : : : - * * : O : M M 5 1 X ; ; X V B.J.H.&.' + . ",
"I.I.I.;.z G S cXA { ;Xd f 1 5 t 5 ; : : : : : d : : cXcXcXcXcXO.: : : : : : : n d g : : : : : : : : : : : : * * * : * : M M 1 1 X - ; X V Z.U.I.x.S O   ",
"I.I.A.r.-.G  .,X-X,XX.b l 5 d 5 4 - : : : : : : : : :XcXcXcXcX} 8 : : d : : : : : : : 8 : : : : f : : : : : * * * O * : M M < 1 X % % X Z B.K.I.v.F O . ",
"B.G.e.OX;.S  .cXk | 4.y y 1 t k w : O d : : : : : : f.cXcXcXcXm : : : : : : : : : : 8 : : d : : z : : : : * : * * d O : M M : 5 X ; ; X a w.B.A.L.G O . ",
"B.B.B.2XG J  .>Xb b =XA f d q 5 4 : O : d : : d : : f.cXcXcXcXa : : : : 8 : : : : : : : : : : : c : : : : : * * * O : : M M 1 5 X - - X c v.2.F.x.B O . ",
"N.N.N.I.c F G -.F D X.F k d 4 4 4 1 : : : : : : : : f.cXcXcXcXm : : : 8 c c : : : : v q : : : : : : : : : * : * * : * : M M 4 1 X ; ; X g N.>.>.k.b . o ",
"N.x.n.N.c Z H ;X;X;Xd.F v 4 4 4 4 4 : : : : : : : : f.cXcXcXcX} : : : k : : : : : : : : : d : : : : : : : : * O * * * : M M 4 5 X 8 ; X g N.-.:.%.c O . ",
"J.c.e.N.F G S ,XJ G ..] l 5 4 5 5 : O : : : : : : : f.cXcXcXcXO.: : : d : : : : : : : : : : : : : : : : : * * * O O * : M l 4 : O r 8 X c z.-.-.] c : * ",
"M.`.P.{.H H J ,X| ;. . .z q f 5 4 : O : : : : : : d f.cXcXcXcXa.: d m : : : : : : : d : : : : : : d : : : : : * * * * : M l 5 5 X ; ; X V e.n.l.#.c O   ",
"B.@XOX{.@.G G cXs.f.6.;.] j 5 d 4 4 : : : : : : : : cXcXcXcXcXcXs.O.f.O.O.O.4.f.f.O.O.O.` } k 8 : d : : : : : O * * : : M M : 1 X * # X V Z.w.w.%.k < + ",
"M.'.'.{.b ] G >XJ { ] ;.$.j 5 5 4 4 : : : : : : : 8 cXcXcXcXcXcXcXcXcXcXcXcXcXcXcXcXcXcXcXcXO.: : : : : : * : * O * * : h l 4 4 X - - X v I.).).l.D < O ",
").`.{.U.b J #.cX7.7.4.%.$.j k j 5 f * : d : : : : : cXcXcXcXcXcXcXcXcXcXcXcXcXcXcXcXcXcXcXcX4.: : : : : : : : * * : * : l M 5 4 X ; - X c H.`.^.n.H = O ",
"K.`.P.`.H F G ....6.r.J #.f k t 5 f * : : : : : : : cXcXcXcXcXcXcXcXcXcXcXcXcXcXcXcXcXcXcXcXf.8 d : : : : : * * : O : : h l 1 1 X - - X p N.K.`.H.B @ + ",
"J.I.Z.U.H F H J ] J #.F  .w f t k h 4 : : : : d : : cXcXcXcXcXcXcXcXcXcXcXcXcXcXcXcXcXcXcXcXf.: : : d : : : : * * : O : h l 4 1 X & & X a z.Z.B.>.V = . ",
"N.N.N.e.b Z D  .f.>Xh.G =.z f f k : : : : : : : 8 : cXcXcXcXcXf.k e { m A ` m a [ O.O.O.O.} g : : : : : : - * : * * : : N N 5 : X % % X z Z.w.F.N.` . . ",
"x.:.:.K.B c.H f.7.#.7.G J t j g f d * : : : : : : : :XcXcXcXcXO.8 : : : : : : : : : : : 8 : 8 : : : : : : * : : * : * 4 M l 1 4 X * % X p Z.K.F.x.G O . ",
"x.:.-.].b H F d.7.r.G  .F u f w 4 < O : : : d : : : f.cXcXcXcX8.8 : : : : : 8 : : : : : : : g : : : : : : * * * * * * : M l < 4 X - - + c Z.F.K.c.Z * O ",
"N.x.-.P.N D F S 7.;X>X@.B z z t 5 : O d : : : : : : f.cXcXcXcXf.: : : : : : d : : k q 8 : : : : : : : : : : O : * O : : M l = : X # : < y Z.w.e.F.k : O ",
":.z.z.`.B F G G x.] d.6.V v 5 5 5 1 : : : : : : : : f.cXcXcXcXf.: : : : : : : : : : : : : : d : : : : : * * : : : O O : M l = : X ; ; X c N.K.`.F.z O . ",
":.n.w.OXB D G f.f.f.:X .b f 5 t w : * : : : : d : : f.cXcXcXcXO.: : : d : : : : : : : : : : d : : : : : : * : * : : O : M l < : X * - X a N.:.m.x.c @ . ",
":.B.B.`.V J J -.;.| K A k t e d 4 < O : : : : : : : f.cXcXcXcX` : : : m : : : d : d : : : : : : : : : : * : * * O O : : M l = : X & & X N :.-.-.#.D : O ",
":.Z.A.K.K J F J f.;X7.b z 5 t d 4 < O : : : : d : : f.cXcXcXcXm : : : m : : : : : : : : : : : : d : : : * : * * O O * : M M = : X % = X V :.-.-.-.F : O ",
"m.J.{.N.F B H f.d.B ..H N t 5 t j : * d : : : : : 8 f.cXcXcXcXp : : : : : : : : : : : : : : : : : : : : : : : * * * O : M M 4 1 X - - X H A.x.x.l.N < + ",
"Z.I.{.x.D F F g.7.{ b H c 5 f 5 5 : : : : : : : : : g.cXcXcXcXc : : : : d : : : : : : d : d : : : : : : : * * O * : O : M M d 1 O r ; X G {.A.B.;.V @ + ",
"m.G.{.Z.H F F G 7.;X:XG Z t f 5 4 : * d : : : : : : f.cXcXcXcXm : d : : : : : : : : : : : : : : : : : d * : : * O * : : M M 1 5 O 2 2 X N (./.U.F.G + . ",
"B.H.B.U.B Z F ] H #.9.6.Z q 5 4 4 4 : : : : d : : : f.cXcXcXcXcX} O.O.O.O.O.O.O.q : | O.O.A e O.;.d : : : * : : * . * : l M d 1 O 2 ; X c /.`./.F.G O . ",
"B.B.x.{.B F G =Xf.=X:XS z d 5 d d 1 : : : : : : : : :XcXcXcXcXcXcXcXcXcXcXcXcXcX>Xa cXcX;X:X,XcX=X: : : : * * * : O O : M M 4 1 O q 8 X c `.U.U.L.G . . ",
"z.:.-.K.#.B B G  .{ b S b d 4 w w < O : : : : : : : cXcXcXcXcXcXcXcXcXcXcXcXcXcXcXcXcXcXcX>XcXcX:Xd : : * : : O * : O : h l 5 5 o q 8 X y K.S.S.E.H O . ",
"%.:.-.N.t Z A B ] a Z G z d : 1 4 : O d : : : : : : f.cXcXcXcXcXcXcXcXcXcXcXcXcXcXcXcXcXcXcXcXcXm : : : : : * : * O : : : d 5 k X ; 8 X c N.K.U.z.V O   ",
"#.:.l.:.N F Z G bXvX,X,X-Xk _ p d : O d : : : : : : f.cXcXcXcXcXcXcXcXcXcXcXcXcXcXcXcX:XcXcXcXcXO.: : : : : - * * : * + = < 4 7 - h 8 X N N.:.2.l.v O . ",
"$.&.:.F.B n D F f.g.d.d.7.t ) e 4 4 O : : : : : : : c c { | O.O.O.O.} e a n A O.O.O.p m O.O.m O.p : : : : * - * * * * @ = 2 r 3 * d 8 X H N.x.x.&.m @ . ",
"#.:.-.H.D N H H H c b b z 5 4 4 4 : O d d : : : : : : d : : : : : : : : : : : : : : : : : : : : : : : : * : O * * * q : 3 r , 4 O q 8 X H B.J.B.x.G = + ",
"#.-.-.N.V F G G G p Z b z 1 e d d * O d : : : d : : : : : : : : : : : : 8 : : : : : : : : : : : : : : : * : % O * : e : 7 s 4 3 O 2 2 X V {.{.K.&.S : O ",
"x.N.N.P.V F F V N G H H Z 4 1 1 5 1 : : : : : : : : : : : : : : : : : : : d : : : : d : : : : : : : : : : O : O = 1 1 5 4 4 5 1 X - - X V `.n.B.F.c : O ",
"N.H.{.z.V D G F V G G G Z 1 d d 4 < O : : : : : : : : : : : : : : : : : : : : : : : : : : : : : : : : : : : O < 1 1 j : 5 5 1 6 X - - X G N.N.x.l.F O . ",
"x.m.G.x.H H D Z H Z Z Z z 4 4 d d 2 O d d : : : : : : : : : : : d : : : d : : : : : : : : : : : : : : : : * = 4 5 4 5 4 4 1 < = X - - X D Z.m.x.%.c O . ",
":.c.v.l.H H H H H H D Z b d 5 5 d : O : : * : * : : : : * : : = : * : * : : * : * * : * : : : : : : * : : * 5 5 d : w 4 4 : # o & = % X v I.K.G.v.b + . ",
"-.:.N.-.V D F V N V H S Z 4 5 f f : O : * * * O : O : : O : * * : O * * * : . : + * : O : * * : O : O * : : 5 1 1 : j : 1 < X O 5 1 o X c U.`.K.H.V < + ",
":.-.-.-.V D G G Z G G G Z 5 w d : 4 5 < : = = d 1 : = < d : : : = : 5 3 < = < < 1 5 : 1 < : < < : 1 1 5 3 5 < : 4 1 k 5 O X # h : # + < -.N.x.B.H.V O   ",
"N.N.N.-.c N V F V G H N Z k d 5 5 : 1 j f d d : d 1 4 : : d < = 4 6 t 5 w k f y k f 5 j 1 f 5 5 5 5 5 1 5 9 4 5 5 5 e O . * d = X o f -.-.-.-.:.l.G : O ",
"K./.(.D.l.m.v.G F N F G F c j 5 5 f 4 4 4 4 5 1 4 4 d d d : : < 3 t w r q 5 5 j w 5 t 5 w 6 6 1 j 4 5 5 5 r 5 5 w : * o r e : + O h :.q.T.1.1.<.l.V O O ",
"U.(.sXQ.Q.`.K.J G N F G Z z c t t z f q t 6 5 w q f f h d 8 4 5 t y t e w t t z t t z t k u t 6 j d 5 4 5 5 1 f q - O % e e * * 4 V M.r./ / t.<.&.B * . ",
"B.~ 5XpXgX+X`.B.J G G G L G F ` S G G D Z b m x v b b N c c D G G G S G Z G ` S ` S G Z S S S G 5 w 4 4 5 5 4 1 % $ = V f 2 = z K.H.t.pXqXyXW.).#.Z : + ",
"x.I qXqXgX+X#XoXZ.G Z L L V J F G G G y c b N c k N N k N a Z G G G G G G S F ` S S S G G G S G k : 1 5 q : f # $ O -.V : + f Z.e.3.tXqXqXgX!.T.l.c @ + ",
"l.( 5XqXeXhXkX{.U.R.^..X3XjXnX'.).oX&X}.U.].].Q.{.%.&.F.H.E./.`.]. X.X X$X~.].}.1XoX*X}.].}..X%X}.Q.E.E./.E.*.y f l b d * - &.w.m.~ 4XqXqXdXp.3.,.Z : O ",
"W U 8XqXwXrXiXR.B.V.].3X|.jX X|.$X|.+X|.|.P.P.|.L.E.E.A.`.`.{.`.I.oX.XOXOX{.{.|.}.oX|.{.{.oX|..XoX|.`.'.'.V.H.n.&.%.' < N @.:.m.6X4XqXqXqXyXu.y.;.G = + ",
"W I 4XqXqXqX5Xu.V.b.^.{.).(.^.`.{.|.+X`.`.H.e.K.m.(.Q.D.{.`.`.B.B.U.{.(.(.U.K.K.U.H.K.K.`.{.{.U././.{.`.(.V./.C.m.-.t.j l.m.<.^ qXqXqXqXqX8Xu.~.;.G < + ",
"n I wXqXqXqXqX5Xu.T.V.B.n.-.:.J.].&XoX(.S.N.n.q.I.XX XOX{.(.Q.B.K.K.K.A.Z.N.e.N.l.x.:.x.H.(.^.K.P.(.`.K./.OX{.OXOX|./.oX`.^.^ qXqXqXqXqXrX8Xy.H.%.D - O ",
"v U 8XqXqXqXqXwX8X/./.{.K.N.:.l.N.N.N.N.:.:.N.-.B.U.P.{.`.N.N.N.N.N.N.N.:.-.N.N.:.:.x.-.-.x.N.N.{.N.K.K.B.{.{.OX%X%X+X3X#X_.pXqXqXqXqXqXzX8Xo.-.] c X   ",
"b x P Q P ! ! E p.U.U.I.U.K.m.:.-.:.:.-.:.:.-.-.z.K.{.{.{.Z.m.c.x.:.x.2.>.x.,.N.x.x.:.-.-.-.-.:.B.Z.B.n.F.{.{./.oX3X%X#X'.J.Q ( ^ ^ ! P aXo.<.x.] a @ . ",
"G %.$.@.:.@.T K ;.2.>.:.>.>.<.N.x.>.x.K.K.B.x.x.:.B.I.{.A.U.K.B.N.x.N.n.B.K.x.N.:.:.-.x.x.:.:.x.:.Z.N.n.F.A.).`.{.oXD./.%X.XP._.K.^.~.~./.N.N.N.x.z.y & ",
"K @.@.@.$.D b b F n n n n F n H #.%.k.v.m.m.:.K @.&.l.v.l.3.m.>.x.%.@.k.:.>.k.%.F ' F @.@.@.J @.' @.k.%.,.%.b.2.v.N.k.F.^.J.G.L.F.F.M.b.F.k.l.:.x.N.y = ",
"v k g M N k y y e x g f f t e y k M M M H G F y l b z M c Q n F G c k v v c l Z k k y y k v l y x f l N b Z l b b N M G F @.$.G @.G b M G M F G ] G t % ",
"= : : : 5 4 : 5 d 5 1 5 1 5 1 5 5 5 z 1 1 4 4 5 1 4 4 1 4 : : : : : : : : : > : 8 4 1 : 1 5 5 1 1 : 1 5 f 5 1 4 1 5 : 1 4 : : @ : 2 = : 5 : = < t 5 e = ",
"                                                                                                                                                        ",
"                                                                                                                                                        "
};
