/* XPM */
static char *_659141642771[] = {
/* columns rows colors chars-per-pixel */
"76 79 247 2 ",
"   c #010101",
".  c #0A0707",
"X  c #040C00",
"o  c #090C05",
"O  c #0C0C0B",
"+  c #130D0C",
"@  c #1A0F0E",
"#  c #0C1104",
"$  c #0E120A",
"%  c #121503",
"&  c #1D1B02",
"*  c #12140B",
"=  c #19120D",
"-  c #1D1A0C",
";  c #161A09",
":  c #131312",
">  c #1D1414",
",  c #161913",
"<  c #1C1B12",
"1  c #1C1B1B",
"2  c #201605",
"3  c #211A02",
"4  c #2B1A02",
"5  c #21140A",
"6  c #291B0A",
"7  c #271A0A",
"8  c #311A00",
"9  c #211211",
"0  c #291717",
"q  c #241A15",
"w  c #2A1B15",
"e  c #231B1B",
"r  c #2B1A19",
"t  c #321C19",
"y  c #132111",
"u  c #1E220B",
"i  c #2A220B",
"p  c #282407",
"a  c #342100",
"s  c #352A02",
"d  c #33230C",
"f  c #3A2D0B",
"g  c #372A06",
"h  c #3C320C",
"j  c #242312",
"k  c #2C2114",
"l  c #25211C",
"z  c #2D231D",
"x  c #2C291C",
"c  c #2A2913",
"v  c #332414",
"b  c #352C12",
"n  c #32241C",
"m  c #342B1D",
"M  c #3A2D19",
"N  c #3B3314",
"B  c #34311E",
"V  c #3B341A",
"C  c #3A3917",
"Z  c #29301E",
"A  c #222120",
"S  c #2C2522",
"D  c #2C2A25",
"F  c #2F2C29",
"G  c #322A20",
"H  c #322E2D",
"J  c #382823",
"K  c #393121",
"L  c #34312A",
"P  c #3A332B",
"I  c #3D3B2C",
"U  c #353623",
"Y  c #333131",
"T  c #393632",
"R  c #3D3934",
"E  c gray22",
"W  c #2E3A22",
"Q  c #483804",
"!  c #44350C",
"~  c #483B0B",
"^  c #413513",
"/  c #453B13",
"(  c #493D14",
")  c #493E1C",
"_  c #43391A",
"`  c #423526",
"'  c #443C22",
"]  c #4B3D25",
"[  c #42362B",
"{  c #443A2C",
"}  c #493B2B",
"|  c #433B31",
" . c #483830",
".. c #36561C",
"X. c #1D6B16",
"o. c #147E0D",
"O. c #23661A",
"+. c #26771C",
"@. c #3A422A",
"#. c #3D4536",
"$. c #36532C",
"%. c #346926",
"&. c #3B6936",
"*. c #337633",
"=. c #306F29",
"-. c #52440D",
";. c #594A0B",
":. c #504006",
">. c #4E4213",
",. c #4B451B",
"<. c #554B1C",
"1. c #5B4E1A",
"2. c #554915",
"3. c #5D5014",
"4. c #58531D",
"5. c #4F400D",
"6. c #64591B",
"7. c #685818",
"8. c #795B1F",
"9. c #705C12",
"0. c #6E611D",
"q. c #7A681A",
"w. c #77661D",
"e. c #4C4323",
"r. c #4D412E",
"t. c #494629",
"y. c #534B24",
"u. c #5A4E24",
"i. c #52452C",
"p. c #574929",
"a. c #565222",
"s. c #5B5224",
"d. c #5D5926",
"f. c #454035",
"g. c #4C4334",
"h. c #45433C",
"j. c #4C453A",
"k. c #4C493E",
"l. c #4E4835",
"z. c #524532",
"x. c #544834",
"c. c #5B4B34",
"v. c #534B3C",
"b. c #5B4D3C",
"n. c #51463A",
"m. c #4A5639",
"M. c #5D523E",
"N. c #555739",
"B. c #445C2C",
"V. c #615323",
"C. c #645D25",
"Z. c #6B5B2C",
"A. c #665929",
"S. c #735E29",
"D. c #63513D",
"F. c #685038",
"G. c #675836",
"H. c #644C2D",
"J. c #47633C",
"K. c #5A6B3B",
"L. c #4B793A",
"P. c #53622F",
"I. c #626124",
"U. c #6B6425",
"Y. c #6C6629",
"T. c #746424",
"R. c #746823",
"E. c #7A6923",
"W. c #766729",
"Q. c #7D6628",
"!. c #706828",
"~. c #7A6A29",
"^. c #7A6626",
"/. c #707820",
"(. c #717124",
"). c #706A2F",
"_. c #444441",
"`. c #4D4A42",
"'. c #4D4C4A",
"]. c #524E43",
"[. c #5A4E41",
"{. c #5B4B45",
"}. c #4D5642",
"|. c #545045",
" X c #5B5243",
".X c #5A5C44",
"XX c #505048",
"oX c #5A544B",
"OX c #565A48",
"+X c #545453",
"@X c #5B5753",
"#X c #5D5A53",
"$X c #635443",
"%X c #6B5945",
"&X c #635649",
"*X c #625A4C",
"=X c #695C4D",
"-X c #655943",
";X c #645B52",
":X c #6A5E51",
">X c #625E59",
",X c #775E45",
"<X c #4A6742",
"1X c #5B6547",
"2X c #5C7546",
"3X c #4E7447",
"4X c #65654B",
"5X c #6C644D",
"6X c #62694A",
"7X c #6D6550",
"8X c #6B6C52",
"9X c #69685A",
"0X c #706050",
"qX c #7B6858",
"wX c #687850",
"eX c #6A7254",
"rX c #717554",
"tX c #6B6F4D",
"yX c #6E6C60",
"uX c #707467",
"iX c #846528",
"pX c #876827",
"aX c #84722C",
"sX c #8A782A",
"dX c #937F2C",
"fX c #876A4F",
"gX c #887162",
"hX c #0C9C0C",
"jX c #129C0E",
"kX c #148F12",
"lX c #198B15",
"zX c #149814",
"xX c #169013",
"cX c #00A400",
"vX c #08A306",
"bX c #19A916",
"nX c #218420",
"mX c #2C9724",
"MX c #38882E",
"NX c #289421",
"BX c #478238",
"VX c #598E4A",
"CX c #6F8C56",
"ZX c #5FB855",
"AX c #58DC58",
"SX c #98832C",
"DX c #97802E",
/* pixels */
"l.z.x.XX=X=X=X:X:XoXXX].n.v.m.l.g. .| { k.].].v.v.x.v.XX[.v.v.XXXX`.x.x.v.|.D.D.=XoX[.v.z.{.{.[.v.x.v.v.v.].=X@XoX[.'.} z.x.v.].XXv.v.XXXXD.D.D.|.{ + o ",
"#.m.z.XXXXXXOX:X+X7XOXXXXXXXx.].v.x.v.E g.v.XXXXXXv.v.[.F.'.v.v.|.x.XXv.x.v.].XX+X$XD.XXx.].M.D.XXz.z.].[.x.XX=X;X+XXXx.z.x.v.XXXXv.`.XXXXXXXX|.c.E 9 . ",
"v.%.nXkXxXxXzXmXVX0X0X{.R } E g.| E E ` P ` { E } K P E E } K K U E G m G x B B m K K J n S m L E ' K K B K G J ` } [ B k.k.l.nXxXkXkXxXkX2Xv.v.z.{ + . ",
"|.=.zXcXcXcXcXzXVX0X$X[ 6 i d w v v r 6 j k 8 v w i q e j i k e q r 6 q e e 0 w w e l A l q > < r > l l e l q 0 e k r l S J B @.cXcXcXcXcX2X<Xm.z.K 1 O ",
"`.=.hXcXcXcXhXNX1X$X` t 8 5 4 5 5 6 5 2 6 6 4 8 9 = 5 9 @ 2 9 9 9 9 5 9 > > > 9 > 1 1 1 > < : @ > @ > > 1 > 9 > > > > > r z S m o.cXcXcXvXBX<XJ.} K 1 O ",
"P X.vXcXcXjXmXCXXX] r 4 4 9 2 5 = - 4 9 6 4 5 4 9 9 9 9 9 5 @ 9 9 @ @ @ > > 1 @ > > 9 1 > , > > 1 : 9 > 1 9 9 q > q 1 9 , e l G W lXhXcXcXmXK.%Xg.K + . ",
"` O.jXcXcXMX2XOXXXa 5 5 2 r 9 2 q q 8 @ 2 3 2 3 0 9 9 9 9 @ 9 9 @ O 9 + : > 9 O @ q > 9 1 9 > 1 9 1 9 9 9 1 9 @ 1 1 = 1 > + * B K t.nXcXcXCX).P.`.J 5 . ",
"f.X.hXcXAXL.m.f.2 9 9 9 7 8 9 9 9 9 5 & 0 r q 8 e 9 > 1 9 * = @ + 9 O @ 9 9 1 9 1 > > 1 > 9 > 1 9 9 > > 9 1 9 1 > 9 1 1 # O * 1 E K +.jXcXCX2X1X`.[ 1 + ",
"[ X.vX+.VXm.[ t 4 9 2 2 2 7 5 5 5 2 9 2 5 9 1 5 > + @ > + $ + + @ + 9 + + : 1 9 > A > > 1 1 9 q 1 9 > 9 9 1 9 1 1 e e O O = e 1 A S P =.cXMX2X6XoX[ q + ",
"[ $.*.N.i.[ k 2 4 4 5 2 3 6 5 5 2 5 9 = > e > 9 , O @ > @ O + @ + + + + + + > 9 > > 9 > > 1 > 9 > > 9 > > > > 1 1 q = o + > r 1 1 l D P @.L.4X0X&XE 9 . ",
"f.h.+XXXy.n 6 p 4 s 6 6 a d 5 4 6 q w q l e 0 9 y > > 9 9 : > : : 9 : > : > 0 > 0 9 q > 9 e q 0 0 e r e e 9 1 1 > > X + : q 1 > 1 1 l J x.;X0X0X&XE @ . ",
"v.M.F.XXn r r x 0 x J r r 0 G m l e x G r r w S 1 S r r S r r e e 0 J S S n x w e e 0 r m r : + 9 x J J G G G m J D G G 0 > 1 1 1 9 O ; j.OXD.F.c.} O . ",
"x.v.XX{ X X o : G K G J G m 0 ' M 0 x G z r n 0 > o X X X X C a.Z.pXfXW.!.Y.d.fX/ & o 9 1 9 e l X 1 x K e.x.x.d.).,Xe.R.' ^ g 9 X X X : E [.].XX].` O . ",
"x.v.v.w X X * n a.K G b d z r m ` ' r.G r r 1 * o X X X X ,.d.Y.!.Q.iX!.~.Q.Y.Y.i X o 9 : + > e 9 : - ,.Z.iXU.S.^.(.C.iXp.N 4 o X X X $ E oX*X*X[.} O . ",
"v.g.f.k X ; b y.U.e.,.( N n r M V G K G r 1 : o X X X o q U.!.!.!.!.T.T.W.^.!.C ; X X + O O O * r * N 4.W.pX!.T.T.!.!.iX^ - % X X X X ; R +X0X0X&X| O . ",
"v.j.E G ; V V.W.!.I.7.6.e._ l f v e r S 1 > O X X o % c ' !.!.T.!.!.T.W.!.U.y.O X X X X o O O * < g 6.!.~.pX!.!.!.!.Y.7.- X X X X o X * [ oX0X:X*XE O   ",
"v.].XXG e.U.Q.iX!.q.E.!.0.;.e.w 0 w G 1 > @ @ X X O C U.Y.!.!.T.8.!.!.iX!.,.X X X X X X X o = 5 s !.!.(././.!.q.E.Y.!.> o o O O O O o * B F.+XoXc.J 1 * ",
"h. XF.n.q.W.!.R.q.!.!.Q.iXY.3 o o * 1 X O o o 5 X C d.!.!.8.C.a.y.I.I.3.p X X X X X X X X O < K e.Q ,.' V Q B K B M a A + @ @ O @ > + * B XX].XXj.K O . ",
"`.|. XfXI.G.Z.C.H.G.c.u.p.M < = : > r + > : @ o -.4.U.!.Y.T.U.V.u.y.y.i % X X X X X X X X 7 / a.7.4.7.C.a.4.5.-.b * % + O X O O O + o * D XX=XoXk.J + . ",
"XX|. XqX(.C.C.d.V.Z.4.,.z = : + * : = + * * q N 7.0.Y.!.!.U.d.C.u.e.c $ X X o o X X X X p / 4.U.7.S.w.U.U.U.6.~ 7 X X o X X X o O $ o * G XX:X:X`.K > + ",
"*X%X%X,X(.0.I.0.7.!.3.i o X X X X X X X X - _ I.!.q.E.!.U.I.d.d.y.V O X X X O + X X X ; -.7.W.!.E.8.W.!.!.!.4.q o X X X X X X X O : O * L ].=X;XXX[ e + ",
"*XtXwXfXI.0.(.Y.!.!.u X X X X X X X X X O C !.!.!.iXQ.Y.I.I.y.e.C X O o X o O @ + o % Q !.8.T.~.pX!.iX^.!.!.X X X X X X X X X X O x - * E F.XXXX`.E 9 . ",
"oX4X5XfX!.Y.!.!.!.X X o O O X X X X X O y.T.S.T.!.!.!.C.t.e.K j O O O X o + 5 0 9 w G m U G / 3.d.!.!.U.4.X o X X X X O X O O O S g & * E +X|.].j.E 9 . ",
"@X>X0XwX-.<.<.5.v @ @ @ @ 0 , : @ @ = a.0.E.T.T.w.iX~.U.d.' e : O X X O o = K 0 d ! >.3.5.-.3.0.q.!.U.,.< O @ O X X X O O + 5 3 x g & ; L :X*X*Xk.t.+ . ",
";X;X;X1X^ / f 6 : + @ 9 9 0 1 > 9 z ! 0.E.!.!.E.w.E.~.U.3.j * o O X X o o : J h 2.4.6.0.7.7.S.w.T.d.C y . . : . X X X O O : r a G h 3 * B *X:X=X`.e.O   ",
";X*XoX%Xc.} p.DXaXdXp.L H r l r w y 1 1 1 1 1 1 1 1 sXSXSXSXSXy.1 1 1 1 1 1 1 1 1 1 1 1 1 1 1 1 x 1 A 1 1 : 1 : : : , 1 Y Y 9 r X : * X ` oX=X;X|.} O . ",
"oX%XF.eXc.} i.SXH u.s.J J r S G S , O e A 1 1 1 1 1 W.SXSXSXSXK 1 1 1 1 A 1 1 1 A 1 1 1 1 1 1 A U 1 1 1 1 1 : : : 1 O 1 Y Y e r X < < X K F.oX@X&X} O . ",
"|.oX|.gX} } i.sXP P aX' D e A r e 1 O A 1 1 1 1 1 1 ~.SXSXSXSXK 1 1 1 1 1 1 1 1 1 1 1 1 1 1 1 y G 1 1 1 1 , 1 : : : : A Y Y r r X , , X K |. X$X].R O . ",
"XXXXXX;XK } } x.' [ r.{ U A e e e e : A 1 1 A 1 y 1 W.SXSXSXSXV 1 1 1 1 U m 1 1 1 1 L l 1 1 1 1 1 1 y A 1 1 : : : 1 : 1 Y Y 1 0 X < < X D XXv.b.`.L + . ",
"oX|.].XXK ` | aXaXaXW.{ H e r e e e 1 1 1 1 1 1 1 A ~.SXSXSXSXy.1 1 1 U 1 1 1 1 1 1 1 1 1 1 1 1 1 1 A 1 1 1 : O : 1 O 1 Y Y e e X u u X D XXc.v.j.m O o ",
"#Xb.F.XX .[ ] dX| ] p.r.G 0 e r r 1 O 1 1 1 1 1 1 1 ~.SXSXSXSXs.1 1 1 1 A 1 1 1 1 1 1 1 1 A 1 A 1 1 1 1 1 : 1 : O O : A Y Y 0 1 O e , X U XXx.x.g.J 1 O ",
".X5X0X0X| R r.dXH.c.i.i.P A S r r 1 O 1 1 1 1 1 1 1 aXSXSXSXSXC.1 1 U 1 1 1 1 1 1 1 1 1 1 1 1 1 1 1 1 1 1 1 : : : : + 1 Y Y 0 0 X j < X T F.|.].r.U O . ",
"oX9XwX0X{ } r.SXS.!.A.c.} S r A A e 1 1 1 1 1 1 1 1 SXSXSXSXSXSX!.u.aXu.u.s.V.~.W.V.s.u.e.y.G 1 1 A 1 1 1 : 1 O 1 O 1 1 Y Y 1 e X , : X E +XD.b.k.m 9 + ",
"1X8X8X0XP t.} sX| y.r.c.j.n S r e e 1 1 1 1 A 1 1 1 SXSXSXSXSXSXSXSXSXSXSXSXSXSXSXSXSXSXSXSXs.1 1 y A 1 1 1 1 : O 1 : 1 F Y e 1 X ; , X P #X4X4X`.` > O ",
"6X7X0X0XT { r.DXW.Z.H.k.j.J D n r S : 1 1 1 1 1 1 1 SXSXSXSXSXSXSXSXSXSXSXSXSXSXSXSXSXSXSXSXd.1 1 1 1 1 1 : 1 : : 1 : 1 H H 0 e X , , X B *X5X7XoX[ 9 O ",
"0X7X0X:X| } } H.c.H.G.} j.A J t r S , 1 1 1 1 1 1 1 SXSXSXSXSXSXSXSXSXSXSXSXSXSXSXSXSXSXSXSX^.1 1 1 1 1 1 1 : : : : 1 1 F H 0 0 X , , X K XX=X7X&XE 9 + ",
"*X;X+X:X[  .R | r.r.r.{ z.r G G G S 1 1 1 1 1 1 1 1 SXSXSXSXSXSXSXSXSXSXSXSXSXSXSXSXSXSXSXSX~.1 A 1 1 A 1 1 1 : : 1 O 1 F Y e 0 X * = X J |.+XoXb.E > . ",
"XXXXXXF.T ` [ i.~.sX).} z.J S S S A 1 1 1 1 1 1 1 1 SXSXSXSXSXaXm x y.H ' e.K V ' s.s.s.s.y.S A 1 1 1 1 1 , 1 : : : 1 1 Y Y 0 1 X * : X K +X[.D.].] O   ",
"].v.v.*XE b.| ~.Z.} Z.} } J S S S e : 1 A 1 1 1 1 1 sXSXSXSXSXu.1 1 1 1 1 A 1 1 1 1 1 1 1 1 l y 1 1 1 1 1 1 1 1 1 1 : 1 Y Y 0 e X , * X K +X&X%X'.] O . ",
"].v.v.:XP | | ~.Z.G.i.} { J G n e > O A 1 1 1 1 1 1 ~.SXSXSXSXC.1 1 A 1 1 y 1 1 1 1 1 1 1 1 D 1 1 1 1 1 1 : : : : : > 1 Y H 9 e X : , + K +X%X=X[.` : O ",
"XX].x.0XR ` [ } Z.aXsX .R P J S r 1 O A 1 1 1 1 1 1 ~.SXSXSXSX~.1 1 1 1 1 1 1 1 A H l 1 1 1 1 1 1 1 1 1 : 1 : 1 : O 1 1 Y Y > 1 X , < @ J +X[.F.$XK 1 + ",
"].].XX0XR [ } } ].g.Y.A.E H r r r e 1 1 1 1 1 1 A y ~.DXSXSXSX~.1 1 A y 1 1 1 1 1 1 1 1 1 A 1 1 1 1 1 1 1 1 : 1 1 O O 1 Y Y > 1 X , < X K XX=X7X$XG O . ",
"v. XD.eXR | } ~.~.~.sXz.P z r z z 1 : 1 1 1 1 A 1 1 W.SXSXSXSXu.1 1 1 1 A 1 1 1 y 1 1 1 1 1 1 1 1 1 1 1 : 1 : : : 1 O 1 Y H > 1 X * * X K XXM.M.].K @ . ",
"v.XXoX7XR } } z.c.u.| { J n x S e 9 O A 1 1 1 1 1 1 ~.SXSXSXSXe.1 1 1 P y 1 1 1 A 1 1 1 1 1 1 1 1 1 1 1 1 , 1 : O : : 1 Y Y > 1 X > * X T v.x.x.z.` 1 O ",
"b.+X@X=X| f.{  .aXaXZ.K J r z z e 0 O A 1 1 1 1 1 1 W.SXSXSXSXK 1 1 1 U e 1 1 1 1 1 1 1 1 1 y A 1 1 1 1 , 1 : : O O > 1 Y Y > 1 X = = X E v.x.x.g.[ 1 + ",
" X*X=X X' f 3 $ X O + : , = : < n ,.7.9.T.T.W.q.R.(.U.2.s X X X X X X X o = v 3.U.Y.!.R.!.!.R.0.A.U * X X X O X X X X @ @ e m t V ^ p * G XX[.].].E 9 O ",
"XX>X7X!.;.& X X X X X X X X X l >.7.!.!.!.w.q.!.q.E.e.9 X X X X X X X X X 7 ;.I.C.U.T.q.!.q.R.0.Q X X X X X X X X X X 0 ! ^ m K Q N < % K XX@XoXc.E 9 . ",
" X%X5XF.X X X X X X X X X X 8 4.U.~.pX!.w.E.!.!.!.-.p X $ X X X X X X X C !.!.!.Y.E.w.!.q.0.2.s X X X X X X X X X ; ` q.) ^ Q Q B ! p * K +X7X=X$X} + . ",
"oX=XoXU X X X X X X X X # l 7.0.Q.iXW.sXE.R.R.q.b & $ X O @ o X X X O C d.T.8.!.!.R.w.S.!.5.p % X X X X X X X X p 5.7.9.~ C h s K f & ; B +X7X:X%X} O . ",
"oXoX].W X X X X X X X * N <.w.Q.Q.Q.!.pX~.U.d.^ + X X X o + o X X % C 6.U.T.T.Q.W.T.^.T.C 4 o X X X o X o X o & h 2.1.1.h p c i b i - = J +X:X5X-X[ o . ",
"'.v.x.B X X X X X X # N V.q.U.~.Q.!.!.iX!.C.C o X X X X X X X o ; g !.q.E.!.!.iXW.E.0.6.O o X X X X o O o O j / <.a.y.y.b p p x s - > < V +X#X#X1X .O . ",
"j.b.x.K X X X X X X V C.q.!.!.!.Q.iX!.!.!.C $ X X X X X X X X + f q.!.pXQ.!.!.!.!.!.6.s O X X X X X X X X X I.U.w.w.!.!.y.( ~ t.s # X % K XX=X:X'.E O   ",
"f.v.].E 9 9 9 @ O Q V ( 2.e.;.6.Y.!./.I.j X X X X X X X O X m V.w.Y.q.E.R.q.!.!.!.) + X O @ + o O O O O ; e.q.I.0.q.!.q.,.^ ! m X X X * B '.b.b._.L O . ",
"h.v.v.{ 9 @ > e V V ! ^ / ~ ,.y.4.3.a.v > > : O X o + @ @ ! 4.U.T.9.y.3.1.<.-.' M q = @ @ @ 5 @ @ : > l b / ) >.>.,.-.' k w 7 > = O o $ T v.].].k.` @ . ",
"j.v.z.r.+ + k / d.1.3.1.1.3.C.V.<.>.c + + $ O O X : : 0 w 6.U.R.0.0.6.7.4.4.:.q % + + + 9 > > > + > b C ) :.' / ^ ^ >./ j ; O O * O o * E [.*XoXk.} > O ",
"r.x.x.g.X - / 7.!.w.T.^.E.!.q.U.y.c X X X X X X o < r n M !.U.R.E.T.q.Y.U.4.Q X X X X o 9 1 9 > : x >.<.<.3.y.y.<.>.y.;.p $ X O X O X * E @X5X=X`.} 1 O ",
"v.XXXXE X <.Q.pX/.!.!.iXiX!.!.y.j X X X X X o + 9 0 r M Q !.U.U.!.!.!.I.I.,.$ X X X o O 1 > q A S e.d.I.I.!.C.C.I.I.I.;.q O O X X X X ; { 0XoXoX$XU 1 O ",
"XX&X0XE e.U.!.Q.pX!.iXiX!.!.t.; X X X O X X : J X : k ' I.q.T.sXSX!.!.0.h O X O O + 9 9 9 > r t G w m ( 3.!.I.A.V.a.G o X X X X X X X : E 2XXXXX`.{ . . ",
"'. X%X,XK >.<.y.] ] ] >.>.e.; $ o X X O @ + : t o > q k I Q ,.1.;.>.] p # X X X o O o + + O = 5 $ + 1 m N -._ e.V j : o X X X X O o X * L 5X X[.`.` O . ",
"v.M.b.%XU N _ K K M m V M G = > < < : O e q e n e l l r m 4 m b b f w = = = = = > > = > : < > 9 = : q r n N e n k , > = O o o X + + o * B =X=X%X].L @ . ",
"z.v.XXx.K m G G K B K G x G r m S l , : l G G m U J n r S 0 0 r e e 9 9 9 r r e r r r r A S r r r e t t r S : 9 r S r r : + O + @ + o * J 7X0X0X&XE 9 . ",
"v.x.x.x.E K K K G K K m m S J G l 1 O G G m J J x r r r S r 0 r w , 0 9 e A 1 S G S G G G r r e r G G r r r G r 0 r G 1 > + + 9 O O o : x.XXXX|.&XE O . ",
"XX'.XXx.T G m G K m K K G G w e > : S G x x x S z x r r x > l l 1 r 1 > 0 0 w x r z z r S x z S S r 1 e r n 1 S S e z G A 1 1 1 O O D x.x.x.z.v.`.} 1 + ",
";X6XeX#Xz.L m m K K K J J G 9 * : r G G r r z S r z z r S 1 r r 0 9 0 r r e q e r r S 0 r z x G z e z z e e q r z r r S > > 1 : O T v.M.m.J.m.m.`.R O . ",
":X6XVX>X1XoX| J z m J J G l + = q z x G z z z x r r z e r 1 r q q > e e l r e r r S x r n r S G r r z z e e e r r n n n e > : > R '. XG.*.*.J.m.`.E * O ",
"-X*.hXBXCXrX9X].J n m x e 1 + e r l z e e e e r l r r e r 1 e r 1 r > q e r e t A r t S G x z n z r r r e r e x z n G r 1 : > J =X|.J.BXcXmX2X4Xz.` > O ",
"|.+.cXcXCXrXrXfXx.G l e 0 0 1 r q e r 0 e e r 1 r 9 0 r 1 0 1 > 9 A 9 1 e r G 0 S G x 0 J r z J S m r z S m G G G m S G : @ S +XF..XnXcXcXCX3X}.k.J 9 . ",
"`.O.zXcXbXZXZX0X7Xx.K S x G 0 n S G G G G S G K G G G G G G G r t M 0 n S J G G G G G G m B ` ` K S G ` ' K G J G n r 1 + F ].F.].=.hXcXcXVXK.P.`.` e + ",
"#.O.zXcXvXbXmX2XoXXXg.r.} [ } T |  .` T ` ` ` ` ` P [ ' [ ` ` } { E } [ [ ` ` g.R [ r.r. Xx.g.} ' } } b.$X} i.g.r.{ T > P j.].[.zXvXcXcXcXmXL.K.c.} 9 . ",
"#.X.hXcXcXcXhXVXOXXXoXv.v.} v.].oX7X%X].M.v.g.j.b.OXOX.Xb.b.b.{.{.].$Xb.v.n.b.v.n.n.v.v.0X-X$XoXb.D.%X=X=X1X$X-X.XoXXX} |. Xk.&.cXcXcXcXcXzXL.4Xc.} 9 + ",
"I X.vXcXcXcXcXhXBX<XOXoX Xv.].*XyXuXqX;X=XoXXXXX:X8X9XyX0X=X=X=X=X=X=X:X*XoX:X].[.[.'.|.%X=X>X>X0X:X=X=X7XwX=XeXeXqXrX7X7X=X&.cXcXcXcXcXbXzXK.&Xj.[ , O ",
"P O.zXcXcXcXcXvXzX0X=X7X=XXXx.].XXXXXXXXXXv.x.XX+X:X0X0X0XXXXX].XXXXXXXXv.n.XXx.].b.z.x.v.].XXOX0X+X$X X@X0X0XtXeXuXgXwX7XwXBXcXcXcXcXvXAXzXB.x.i.B o   ",
"H W ..$...%.=.$.P.7X;X;X7X=X|.v.v.x.v.n.v.v.v.x.].;X0X0X0X+X{. XXXx.XXM.b.].v.].XXv.v.z.x.x.x.v.oX+XoXoX$X0X0X0XqXgXuXwX8X*X$.%.&.*.%...VXB.N.].r.B = . ",
"} j._.| v.f.{ #.c.b.b.b.b.M.m.].b.b.[.&X=XoX].].v.oX;X:X@X:X=XoXXX].XX|.oX=X].XXv.v.x.|.|.v.v.|.v.+XXX].$X@X4X7X0XqX#X8XyXyX0X2X:X=X6X6X5XXXXXXX'.'.n - ",
"| f.f.f.h.[ P P { I I P P [ I | f.j._.]. X Xv.| f.j.`.{.j.1XM.b.v.g.f._.v.b._.j.r.t.{ f.f.f. .f.I j._.j.n.n.}.M.].].'. X*X7X4XG.$X$X XOX$X_.k.v.[.].m = ",
"L L S Y T G m m m Z D D S n x m G T T Y | } { m P P P Y P @.@.[ { P G L L ` H K G x m S m L H m Z G H Y L ` H P P T Y } { | h.[ { { I L } Y [ { f.} x > ",
"> 1 1 1 r e 1 r A r 0 r 0 r 0 r r r G 0 0 e e r 0 1 r 0 1 1 1 1 1 1 1 1 1 1 3 1 1 e r 1 r 0 0 0 r 1 r r x 0 0 e e 0 1 0 e 1 1 9 1 1 > 1 r 1 > 0 n r x : ",
"                                                                                                                                                        ",
"                                                                                                                                                        "
};
