/* XPM */
static char *_659714088088[] = {
/* columns rows colors chars-per-pixel */
"162 12 8 1 ",
"  c #3AF700",
". c #3BF700",
"X c #3CF700",
"o c #3AF800",
"O c #3BF800",
"+ c #3BF900",
"@ c #3CF800",
"# c None",
/* pixels */
"##################################################################################################################################################################",
"##################################################################################################################################################################",
"##O@O### @#################################@@###################################################################@@###@@###########################################",
"###O@O# @X#################################@@###################################################################@@###@@###########################################",
"####O@@@ ###@@@@##@@##@@####O@@@@##@@@@##@@@@@@####O@@@@###@@@@@###O@@@@##O@@@##X@@@X##@@#@#@@##@@@@##@@#O@##O@@@@###@@## @##@@@@##@@##@@#########################",
"#####O@O###X@##@@#@@##@@###X@##@@#X@##@@###@@#####@@##@@###@@##@O#X@##@@# @##### X#####@@#@#@@#X@##@@#@@O###@@##@@###@@# @O#X@##@O#@@##@@#########################",
"#####@@####@@##@@#@@##@@###@@##@@#@@##@@###@@#####@@##@@###@@##@@#@@##@@##XO@@###X@O@##@@#@#@@#@@##@@#@@####@@##@@###@@@@O##@@@@@@#@@##@@#########################",
"#####@@####X@##@X#O@##@@###@@##@@#X@##@X###@@#####X@##@@###@@##@O#@@##@@#####@O#####@ #@@#@#@@#X@##@X#@@####X@##@@###@@# @O#X@#####X@##@@#@@######################",
"#####@@#####O@@O###O @@@#### @@@@##O@@O####@@###### @@@@###@@@O ### O@@@##@@@X###@@XO##@@@@@X###O@@O##@@##### @@@@###@@## @## @@@###O@@@@#@@######################",
"###############################@O##########################@@##########################################################################@O#########################",
"############################@@@X###########################@@#######################################################################@@@X##########################",
"##################################################################################################################################################################"
};
