/* XPM */
static char *_659583729776[] = {
/* columns rows colors chars-per-pixel */
"64 64 29 1 ",
"  c #120300",
". c #0C130E",
"X c #0C130F",
"o c #151F19",
"O c #152019",
"+ c #2A2019",
"@ c #2A2119",
"# c #2B2119",
"$ c #35371F",
"% c #35381E",
"& c #35381F",
"* c #23372C",
"= c #23382C",
"- c #27492C",
"; c #27492D",
": c #2B4236",
"> c #2C4236",
", c #324A32",
"< c #334A32",
"1 c #49442A",
"2 c #49442B",
"3 c #3B5B48",
"4 c #4D6451",
"5 c #4D6551",
"6 c #6D7D5E",
"7 c #6E7D5E",
"8 c #B80025",
"9 c red",
"0 c None",
/* pixels */
"0000000000000000000000000000000000000000000000000000000000000000",
"0000000000000000000000000000000000000000000000000000000000000000",
"000000000000000000000000000000    000000000000000000000000000000",
"00000000000000000000000000000 =33* 00000000000000000000000000000",
"00000000    0000000000000000 *3  3* 0000000000000000    00000000",
"0000000 5555 00000000000000 *3 88 3* 00000000000000 5555 0000000",
"000000 o55555 0000000000000 3 8998 3 0000000000000 55555o 000000",
"00000 5ooooooo 000000000000 3 8998 3 000000000000 ooooooo5 00000",
"00000 ,        00000000000  *3 88 3*  00000000000        , 00000",
"00000 ,o,  ,,, 0000000000 >* *3  3* *> 0000000000 ,,,  ,o, 00000",
"00000 ,o oo >> 000000000 >>>* *33* *>>, 000000000 >> oo o, 00000",
"000000  o>>o  00000 000 >>>>>      >>,,5 000 00000  o>>o  000000",
"0000000 >  > 00000 > 0 >>,,>>= >5 *>,,,55   > 00000 >  > 0000000",
"00000000    000000 >> >>,,,,>5 o5 ,>,,5555 >> 000000    00000000",
"000000000 > 000000 >  >>,,,,5 o>55 >555556  > 000000 > 000000000",
"000000000 > 00000 >  >>,,, ,5 o56> *5*55666  > 00000 > 000000000",
"0000000000 > 0000 :  >,,,, , *>5,>* 5*66666  > 0000 > 0000000000",
"0000000000 > 000 > 0 >,,,, ,  *>>*  5 66666 0 > 000 > 0000000000",
"00000000000 > 00 > 0 >>,>, , , ** , 6 66556 0 > 00 > 00000000000",
"00000000000 : 0 > 00 ,>>>,, ,, *= ,5 655555 00 > 0 > 00000000000",
"000000000000 >  > 00 o,>,oO oo ** oo oo5,5o 00 >  > 000000000000",
"000000000000 > > 000 ,,>>,< ,, *o ,5 65,,55 000 > > 000000000000",
"0000000000000 ,  000 oo,>,o oo oo oo o5,,oo 000  , 0000000000000",
"0000000000000   00000 ,,>>,<,, oo ,565,,55 00000   0000000000000",
"00000000000000 000000 oo,>,ooo oo ooo5,,oo 000000 00000000000000",
"0000000000000000000000 ,>>>,,, oo ,55,,55 0000000000000000000000",
"000000     000000000000 *******  ******* 00000000000000000000000",
"00000 --@@- 00000000000        **        00000000000000000000000",
"0000 -55555- 0 0000000 >o ooo **** ooo o* 0000000000000000000000",
"000 -555555&@ * 000000 >@@   oo**oo   @@* 0000000000000000000000",
"00 -&55ooo55&@o* 0000 >ooo   *,oo**   ooo5 000000000000000000000",
"00 -55o>>>o5&@o* 000 >@@#  &&*,oo**@2  @@@5 00000000000000000000",
"00 -55o>o>o5&-o* 00 >ooo 0 &&*,oo<*@@ 0 ooo5 00000000000  000000",
"00 -55o>>>o55-o* 00 >@@ 00 &&*oooo*@2 00 @@5 00000000   5,     0",
"00 -&$5ooo555-O* 0 >oo 000 @&o****o@@ 000 oo5 000000 && 55,5oo, ",
"000 @&555555-oo*  ,   0000 @@o*oo*o@1 0000   5 0000 &&&2 ,     0",
"0000 @&5555-ooo*  ,555 000 @&**  **@@ 000 555, 0000 &&11  000000",
"00000 @----  o* 00 >o@ 000 &&**oo**@1 000 @o5 00000 &11o 0000000",
"000000     **  0000 >oo 00 &&oo**oo@@ 00 oo5 0000000 1O 00000000",
"000000000 ,,,o 0000 >@@ 00 &&  **  #1 00 @@5 000000 o  000000000",
"0000000000  o5 00000 >oo 00 oooooooo 00 oo5 0000000 o 0000000000",
"0000000000 5 55 00000 >@@ 0 o      o 0 @@5 000000000 00000000000",
"0000000000 5   000000 >oo 0 @@@55$22 0 oo5 00000000 o 0000000000",
"000000000 >  000000000 >@@ 0  o5,5  0 @@5 00000000  > 0000000000",
"000000000 >  000000000 >oo 00 o555 00 oo5 00000000  > 0000000000",
"000000000 > 0 000000000 >5, 0 o5o5 0 ,55 00000000 0 > 0000000000",
"000000000 > 0 000000000 >5< 0 o5o5 0 ,55 00000000 0 > 0000000000",
"00000000 > 00 00000000 >5@ 00 o5o5 00 @55 0000000 00 > 000000000",
"00000000 > 00 00000000 >oo 00 o5o5 00 oo5 0000000 00 > 000000000",
"00000000 > 00 0000000 >@@ 000 o5o5 000 @@5 000000 00 > 000000000",
"00000000 >    000000 >oo 0000 o,o5 0000 oo5 00000    > 000000000",
"00000000 > >>>    00 >@@ 0000 o5o5 0000 @@5 00   ,,> > 000000000",
"000000000 >>oo>>>>   >o 00000 o5oo 00000 o5   ,,,oo>> 0000000000",
"0000000000    oooo>>>   00000 555, 00000   5,,ooo    00000000000",
"00000000000000    oo,> 000000 5oo5 000000 ,,oo   000000000000000",
"000000000000000000    0000000 5,<, 0000000    000000000000000000",
"00000000000000000000000000000 5,55 00000000000000000000000000000",
"00000000000000000000000000000 5,5 000000000000000000000000000000",
"00000000000000000000000000000 5  0000000000000000000000000000000",
"000000000000000000000000000000 000000000000000000000000000000000",
"0000000000000000000000000000000000000000000000000000000000000000",
"0000000000ooooooooooooooooooooooooooooooooooooooooooo00000000000",
"0000000oooXXXXXXXXXXXXXXXXXXXXXXXXXXXXXXXXXXXXXXXXXXXoooo0000000",
"0000000000ooooooooooOoooooooooooooooooooooooooooooooo00000000000"
};
