/* XPM */
static char *_658685884503[] = {
/* columns rows colors chars-per-pixel */
"13 13 2 1 ",
"  c #3CF800",
". c None",
/* pixels */
"...... ......",
"...... ......",
"...... ......",
"...... ......",
".............",
".............",
"    .....    ",
".............",
".............",
"...... ......",
"...... ......",
"...... ......",
"...... ......"
};
