/* XPM */
static char *b75a1e66f2ba4385a22aec40c6f48d70ptOTZcbAoVtYh1ZJ[] = {
/* columns rows colors chars-per-pixel */
"209 25 200 2 ",
"   c None",
".  c #010101",
"X  c #090505",
"o  c #040C00",
"O  c #080C06",
"+  c #0C0C0C",
"@  c #130E0D",
"#  c #1B0F0F",
"$  c #0A1007",
"%  c #0D120A",
"&  c #11150C",
"*  c #14180D",
"=  c #19160F",
"-  c #111111",
";  c #1E1414",
":  c #151D12",
">  c #1A1B12",
",  c #1C1C1C",
"<  c #211212",
"1  c #291616",
"2  c #241A16",
"3  c #221B1B",
"4  c #2B1A19",
"5  c #112011",
"6  c #1F2114",
"7  c #1C2319",
"8  c #25221C",
"9  c #2D231D",
"0  c #22291E",
"q  c #2C2C1D",
"w  c #31261E",
"e  c #322A1E",
"r  c #25311F",
"t  c #29301E",
"y  c #212020",
"u  c #2A2421",
"i  c #2C2924",
"p  c #292929",
"a  c #272A27",
"s  c #342522",
"d  c #3A2623",
"f  c #322A21",
"g  c #3A2D22",
"h  c #322E2B",
"j  c #3E2F29",
"k  c #2D3222",
"l  c #2B3227",
"z  c #353223",
"x  c #393122",
"c  c #35312C",
"v  c #3A332B",
"b  c #3C392B",
"n  c #343232",
"m  c #3A3632",
"M  c #3D3935",
"N  c #3A3A39",
"B  c #422E26",
"V  c #432F2B",
"C  c #413425",
"Z  c #423629",
"A  c #443A2C",
"S  c #493A2A",
"D  c #433827",
"F  c #423B32",
"G  c #4A3E31",
"H  c #423F3A",
"J  c #3C452D",
"K  c #3D4634",
"L  c #4D412E",
"P  c #4F4F22",
"I  c #454135",
"U  c #4B4233",
"Y  c #44423C",
"T  c #4C453B",
"R  c #4C493C",
"E  c #4A4B37",
"W  c #524533",
"Q  c #544834",
"!  c #53453A",
"~  c #5A463C",
"^  c #534B3C",
"/  c #5B4B3A",
"(  c #4F5D3C",
")  c #48503C",
"_  c #52543A",
"`  c #59543B",
"'  c #685038",
"]  c #464543",
"[  c #4C4A45",
"{  c #4C4A47",
"}  c #534D43",
"|  c #5B4E42",
" . c #4D534D",
".. c #535345",
"X. c #5B5242",
"o. c #515944",
"O. c #5C5943",
"+. c #52524A",
"@. c #5B544A",
"#. c #535B4B",
"$. c #5C594D",
"%. c #535452",
"&. c #5B5753",
"*. c #525A51",
"=. c #5C5B55",
"-. c #595F59",
";. c #625242",
":. c #62544C",
">. c #6A5748",
",. c #635A4C",
"<. c #6A5D4C",
"1. c #635945",
"2. c #705B4F",
"3. c #615D52",
"4. c #6B5D52",
"5. c #605D58",
"6. c #556143",
"7. c #5D6044",
"8. c #5C684A",
"9. c #5F635A",
"0. c #5C6E56",
"q. c #6B624F",
"w. c #626E4E",
"e. c #66664D",
"r. c #75634D",
"t. c #656456",
"y. c #6C6453",
"u. c #6C6B52",
"i. c #64645C",
"p. c #6C655A",
"a. c #676A5E",
"s. c #6D6A5C",
"d. c #716252",
"f. c #7A6554",
"g. c #746956",
"h. c #7D6A53",
"j. c #73665B",
"k. c #736A5B",
"l. c #7A6E5B",
"z. c #677355",
"x. c #6A7452",
"c. c #687850",
"v. c #6B755E",
"b. c #717455",
"n. c #737459",
"m. c #7A755C",
"M. c #7E7A58",
"N. c #737C5A",
"B. c #646464",
"V. c #646C63",
"C. c #6C6E64",
"Z. c #736D61",
"A. c #736F6B",
"S. c #6D7566",
"D. c #6C746C",
"F. c #747264",
"G. c #787062",
"H. c #747469",
"J. c #7A7569",
"K. c #7E7A6C",
"L. c #7E7A66",
"P. c #747B74",
"I. c #7E7D71",
"U. c #846D5A",
"Y. c #83715B",
"T. c #827264",
"R. c #8C7060",
"E. c #827C64",
"W. c #8D7E66",
"Q. c #847B6A",
"!. c #947C60",
"~. c #807C76",
"^. c #758075",
"/. c #7F8272",
"(. c #798479",
"). c #86806C",
"_. c #868469",
"`. c #94846E",
"'. c #838779",
"]. c #8D897B",
"[. c #888576",
"{. c #938674",
"}. c #928C7B",
"|. c #9A8877",
" X c #A0907C",
".X c #868B81",
"XX c #928C81",
"oX c #9C9483",
"OX c #9F998B",
"+X c #889488",
"@X c #A39583",
"#X c #A99F91",
"$X c #A79E96",
"%X c #94A494",
"&X c #ACA498",
"*X c #A9A497",
"=X c #B8AAA4",
"-X c #BBB9B9",
";X c #CBB3B3",
":X c gray80",
/* pixels */
"                                                                                                                                                                                                                                                                                                                                                                                                                                  ",
"+ + +                                                                                                                                                                                                                                                                                                                                                                                                         , , , , 7 , , , y - ",
"o o o o o o o + + + o % + + + + + + + + + + + + + + + + + + + + + + + + + + + + + + + + + + + + + - , + , : - , + , - - , + , - + y + , - - , + , - - y + , - - , + , - - , + , - - , , , , , , , , , , , , , , , , , , , , , , , , , , y , , , , , , y , , , , , , , , , , , , , , , , , , , , , , , , , , , , , , , , , , , , , , , , , , , , , , , , , , , , , , , , , , , , , , , , , , , , , , , , , , , , , , , , , + , - , ",
"p # > % o o o o o O o o o O o O O o o O o o O o O O + O + + + o + + + + + + + + + + + + + + + + + + - + @ + + - + % - + - + + + + - + + + + - + - + + - + + - + - + + + + - + + + + - - % - - - - - - - - - - - - + - - - - - - - - - - + % - - - - - + - - - - - % - - - - - - - - - - - - - - - - - % - - - - % - - - - - - - - - - - % - - - - - - - - - - - - - - - - - - + - - - - @ - - & - - - + + % % % $ $ $ $ O o x 4 3 ",
":.Y v 8 > & @ & % % o o o o o o o o o o o o o o o o O o o O O o O O O O O O O O O O O O O O O O O O O + O O O O O O O O O O O O O O O O O O O O O O O O O O O O O O O O O O O O + O O O O O O O O O O O O O O O O O O O O O O O O O O O O O O O O O O O O O O O $ O O O O O O O O O O O O O O O O O O O O O O O $ O O O O O O X O O X O O O X O O O O + O O O O O O O O O O O + O O o O O O o O O O O O O O $ & O % , * > k / F h ",
"|.J.^ b x c u h c l 7 8 7 7 7 8 : 6 6 8 6 6 * & * : & % % % $ $ $ $ $ o o o o o o o o o o o o o o o o o o o o o o o o o o o o o o o o o o o o o o o o o o o o o o o o o o o o o o o o o o o o o o o o o o o o o o o o o o o o o o o o o o o o o o o o o o o o o o o o o o o o o o o o o o o o o o o o o o o o o o o o o o o o o o o o o o o o o o o o % % % O % : % % * : * : : 7 6 6 8 6 6 8 9 0 7 7 6 6 7 f j a c M I T $.y.@.T ",
"-X!.,.I A d.%.4.u.z.B.R.b.v.S.2. .<.Z.A.y.2.S x b ..x x q , , , 3 , - o o o o o o o o o o o o o o o o o o . o o o o o o o o o o o o o o o o o o o o o o o o o o o o o o o o o o o o o o o o o o o o o o o o o o o o o o o o o o o o o o o o o o o o o o o o o o o o o o o o o o o o o o o o o o o o o o o o o o o o o o o o o o o o o o o o o o o o o p p y , y N N v b %.N { +.&.d.y.2.&.&.d.Y.H.D.C.d.d.C.E.W.(.R.I.P.H.R.c.+.R ",
":X&X'. ., o N [ ,.y.c.D.u.r.g.(. Xl.:.#.c.B.z.c.x.4.D.z.v.H.R.c.Y.m.x.y.y.@.^ / y.+.w...N N N n N N N N  .%.{ i y y p N N x u y y y , , , , , , , , , , o o o o o o o o o o o o o o o o o o o o o o o o o o o o o o o o o o o o o o o o o o o o o o o o o o o o - , y y , , y y y - - y ; N g f f a x x v N Q N N ] {  ...^ } ..4.B.D.P.(.(. X*X=X;X-X X'.Q._.(.!./.(.'.@X%X*X&X#X|.(..X}.}.D.c.y.s.D.D.!.I..X].!.(.W.).^.D.y.@.+.",
"-X@X`.Z. .p z b T $.c.T.b.u.Z._.'.k.;.^ ` #.q.y.u.x.y.x.m.T.H.S.v.n.F.U.x.q.@...&.8.S.u.<.8.f.i.p.l.D.h.Y.G.C.r.V.g.p.t.f.9.4.3.i.r.6.<.,.7.4.O.<.5.=.2.*.,.,.&.>.( #.$.1.*.>.$.@.;.K *.,.,.#.^ *.:.$.#.^ ( #.$.,.*.>.&.:.,.( *.,.@.$.>.*.,.&.+.^ *.*.$.,.*.*.,.3.a.f.-.4.p.a.d.V.y.u.C.G.Q.J.l.g.V.h.G.G.l.H.f.B.k.G.D.Y.F.K.{.{.+X].oX*X=X#X&X=X-X=X X/.).W.(.].}.oX#X|.oX@X@XoXXX}.`.E.N.z.r.r.y.s.D./.].].'.|..X|.`.E.^.U.u.e.",
"_.G.y.$.} v > > e E o.` _ ..3.Y.t._ I v v N E E Q _ ^ _ X.X.@...o.....;.) ^ T K I _ ..X.| _ :.3.y.l.0.h.4.O.$.M.t.y.,.@.X.%.j.p.9.O.o.` _ _ :._ @.@...;...@.@...:._ +.@.X...,...@.,.@.3.f.k.p.4...@.@...} O.s.<.X.%.:.@.@.<.u.s.j.5.+.;.%.;.@.&.q.=.3.p.j.3.9.f.s.C.r...1.j.G.U.V.m.F.J.[._.Q.Z.l.F.j.z.l.k.V.:.,.e.u.u.p.t.k.F.G.L._.).{. X~.[.}.XX~.Z.s.t.y.t.A.T.Q.K.F.G.G.G.Z.A.g.y.O.( o.! T T _ ,.V.k.s.C.G.k.G.g.q.9.X.o.I ",
"P Y n c v e o o * i n k q b U 6.G k 0 , , y 0 a e e e h c f v e c c f f y e q q f e f h h e h Z T ^ J X.m h b O.G K M z i c } } Y t c l k h h f h h q e w c h h n w h i e i c h h M X.S } | X.X.f n h i h G } G s c n v c N | | { N h e h f h m X.S U R { A H } } ] I f D T / / ] o.O.:.=.O.X.} ] | I K E } { h A K J S H F G Y ] Q _ O.@.6.] ..O.} Y Y A M M D H ^ ] H H H Y ] I Y L M c z n f u u k G H G G ] ] S Y I M n l p 7 ",
", , , , , y o o O + , , , , , , , , , , + + + - , , , ; ; , y e f i a 3 , ; # < , , , , , , # , , , # 5 # , y , , , , , y 4 w f 9 4 4 3 3 , < , ; 2 3 , < , , , , # < > : , # 3 < < , # 3 , : 8 8 3 , , < y y 4 4 1 , ; < , , , y y 3 4 < < , , 3 4 3 3 < , < 3 , , 8 y y 7 : ; 7 , 8 9 4 y ; 3 y 8 4 , ; < , 4 , , 3 4 y ; ; , , , ; ; , , ; ; 7 y , < % + + + < @ - , < < 3 < ; , g 8 8 w 4 3 2 4 4 y < 3 3 4 y 4 3 7 , y , y y ",
", < 5 > ; , + + + + + + ; ; ; < a i u , , + + + @ # , y ; ; , 8 y , , < , , , , ; 3 ; ; , , , , , , , < ; ; < 4 y ; # < < y 4 u 9 y ; < , y , < , y 3 < 8 ; < ; y , ; 3 3 < , < 3 y , 4 < , , < ; , 3 4 y y 4 3 8 4 4 3 3 4 4 4 4 4 4 y y < 3 3 4 y 4 3 3 ; , < 3 , < y , ; ; , , ; 1 1 4 y < ; , < y < 3 , ; , ; < 1 s i e 9 4 , , - @ ; , , ; 1 9 s 1 3 < ; + + # ; , y , 4 4 4 s i e e i e 4 i 9 u 4 3 , , 3 4 , 2 3 , < , , , ",
"< , - 2 e e y , - + + + + ; , , a p i u y @ + + + @ ; : > ; , y y , , # < , , < , ; < , , ; ; - > , ; , ; ; ; 3 y 1 1 , ; , < 4 9 4 * # < < , < , , y , 2 3 ; < ; y ; ; , < ; ; , , ; : ; < < 3 < < < , y 2 3 y 3 1 u u y 4 4 y 3 4 4 4 y 4 3 3 3 u 4 4 4 y y < < ; ; < 3 , , ; , , < < y < ; ; ; ; < ; ; 3 3 < ; , 2 4 u i s u u < , - @ ; ; ; 3 3 q w u , # + # @ ; , < 7 4 4 i i f w f f w 4 u 4 9 3 2 4 3 3 4 , 3 3 < ; , , , ",
"= u , 8 f x i 8 , - - - + - , , 7 u i u y - @ + + + # % - - , ; , y , 1 2 , < ; , ; ; ; ; ; # @ ; ; @ , , < < ; , < 3 , ; ; ; 3 9 1 > , ; ; , < ; ; 3 3 3 < ; < ; y , ; ; ; # , , < < , , < < 3 ; < ; ; , 4 1 u i u 4 y 3 3 3 3 < y 3 4 3 3 3 3 y 4 4 4 3 3 y , < ; , ; 3 3 3 4 y , < < y 2 y ; ; , , , ; , y < , 3 3 3 u 4 i i i 1 3 ; ; , ; ; , 3 9 i 3 3 ; - # @ - ; < 3 2 3 u i i e s e f 3 3 < 3 y 3 4 1 3 4 , 3 ; ; ; , : ; ",
"@ u , 3 i f x 9 3 3 y < - ; , < : q i i y y - - + + + + + - , ; , y 3 4 y , , ; , , , ; ; , @ # # = + ; , ; < ; , ; , , 1 ; , , 2 4 # , ; ; , < < # < 4 3 ; ; < ; , , ; ; , # ; ; # ; , y y 3 < , ; < ; , 4 2 3 9 u 4 u < ; y < ; < 3 1 4 3 3 1 y y 4 4 3 4 3 , ; ; , , ; 1 4 9 3 < ; 3 y s 3 1 < 3 y < ; , , # 3 2 4 y 4 4 u u f 4 3 3 < ; ; , ; 3 4 s w 4 3 < - # @ - # # , , 3 9 s e e e i y ; , , , , 4 4 3 y , ; ; y ; 5 ; < ",
"# , ; 1 4 p g p 8 4 y , ; ; , , , u f x u y y ; # + + + + + , , , , , , y , 7 , < , ; @ - , , ; = * < < , ; ; , , , , , 4 y < < < y < , ; < , , ; ; , , ; ; , , < < ; , , < + # # - , < 1 9 i y < , ; ; , < * , 3 4 q 8 ; < , , y ; ; 5 y < < < 7 4 4 4 4 y 4 3 , < , 4 4 3 3 # 1 8 , < , 4 4 3 3 1 y ; ; , , # # 2 3 4 y 4 u p f a 4 9 8 ; , ; < < y f f f w 4 , ; @ + + < , ; < 4 u 4 3 y , , 4 3 y , , 4 4 8 4 , < ; , , , , h ",
"+ + , < ; , a a i i y 4 : > ; 8 u p n N Q N p a y , + + + + + , + + + + , , ; ; , , < < # + ; < < ; , + , , ; ; , , ; < # y y < ; , , < ; , < 4 u < ; , < ; ; , , # < < # + , ; @ @ # , < 1 4 3 , ; ; , # y ; # ; , , , , < < O # ; , ; , < < < y f 4 4 3 4 y 4 4 3 < 3 y 3 , < 3 4 3 y , , 4 4 9 i 4 s u ; < , < , , , < ; 2 4 a s e s s p , 1 4 w 4 x m v f a 4 3 2 # + < < ; , , < , ; 1 4 i i u y 4 , , , < 4 y 7 , y a a i c ",
"# , 8 9 9 u m G b t i S A x i n N G R %.5.,.[ F g f , , , 8 8 y , , ; ; ; 9 h h e e w i 3 1 u 9 9 9 9 8 8 8 q 4 q f 9 9 9 x g q 9 u q 8 9 9 w C e g d q 1 4 u i 9 8 9 4 9 8 4 4 u 8 4 4 3 s j e s 4 9 1 4 9 4 1 1 4 9 e w 9 9 8 9 9 8 9 4 4 w e f C S M c j b c j x C e v C j j f B Z S x Z h v B n C S G b w q 9 9 9 e s e x C x U m v Z U x m v Z S R / ~ ~ ] S m p 9 8 9 w w s s 9 9 8 w e U S F N n n v e s m j f e f z e i h ",
", u e h c x N H b z q S U I A N F U } +.-.;.^ R I A a y u h n p u 3 < , 1 e v m C x x f i 9 i f e e i f s f f f 9 w s w w j x x g f f s i 9 e C C v b j 4 9 9 f w e w w w 9 4 4 4 4 u 2 u s e e s f w 4 9 f w 4 u 4 e x e e e e f e s e w e x x f F A A b j B j v x S x C C C Z x x A I G Z b C Z v x G H G C h g f e x c b x S U G v v Z G G F F G U ^ / / ~ Y Q G v s e e x D S C e e s f x Q T H N N ] F Z b F G b v z c x h z ",
"3 i f v m A m N v f 8 f m I U M C U } } ..^ ^ ^ } ^ p a i c H N c i 4 , 2 w g v C f f x f f f f x x e e f f i 9 4 9 f i 4 f f x b e x s 9 u i x D F m C u 9 9 9 w s 4 9 w 4 4 4 4 4 u 3 4 4 4 s s w f s w h f f i e x e x x x x f f x x x x b Z v m v C x p d s i s Z e V Z v N x x c M W M v C Z x x b F F S N z e f x m F C C U m f i f n L S b M S Q Q Q U M Q U D g e f S L Q S C x f e f L F N N N Y N A S S ^ F m v n z z v ",
"4 u f x z N S M v e 4 p f v m S x M ] ..' } } } ^  .N p a c Q +.Y c 8 < : 2 9 i i i d d f f f f x e x e f f e f s e w w w i f e e x x d s e q x n M C e f f 4 4 4 e 4 4 4 1 4 3 3 4 4 4 4 u i f e i s d s N S b x x x x f x x x d g x x x e v N m S S C g x q f f i e x m Z Z N x e f f D S S A M S e Z G W S m c x x x S M M Z N x 4 2 3 i x x x x S Q Q Q Q W Q } T Z x e Z U ^ Q S f e e i x x c N N x f x x S } G F M g N N Z ",
", 4 8 u q s i x x f p , 4 w e x x 9 4 , y 4 B b m S , $ & 8 x N p , + o o o o o o + + $ o + + + - , + + + + + + + + + + + + + + @ + + + + + + + + + + + + O o o o o + O o @ o o o o o + + + @ < + + + + + < - % + + + + @ @ # + + + + + + , - + + + + + + + + O + + + + + + @ < + + O % , 4 4 < + + u s e w i + + % + + + + + @ 4 o o $ @ < , ; ; , , e x 9 ; , e g s y + , 9 x D D 4 , & O + , - - , + + , , 8 x x 8 - @ < + + , ",
"X X X + X + + + O + + X X X + X O X X X O X + @ + @ X . X X + & + O . . . . . . . . . . . . X . X X . . . X . X . . X . X . . . . . . . X . . . . X . X . . . . . . . . . . . . . . . X . . . . X . . . . X . . . X . . . . X . . X . . . O . . . . . X . . . . . . X . . . . . . . . . X X X X . . X + @ + X . X . . . . . X . X . . . . . X X X X + @ O X X X X @ + O . X + @ @ @ X + . . . X X X X . . X O X O X + X . X . . X ",
". . . . . . . . . . . . . . . . . . . . . . . . . . . . . . . . . . . . . . . . . . . . . . . . . . . . . . . . . . . . . . . . . . . . . . . . . . . . . . . . . . . . . . . . . . . . . . . . . . . . . . . . . . . . . . . . . . . . . . . . . . . . . . . . . . . . . . . . . . . . . . . . . . . . . . . . . . . . . . . . . . . . . . . . . . . . . . . . . . . . . . . . . . . . . . . . . . . . . . . . . . . . . . . . . "
};
