/* XPM */
static char *result[] = {
/* columns rows colors chars-per-pixel */
"209 28 226 2 ",
"   c #040C00",
".  c #0A0D05",
"X  c #0C0C0C",
"o  c #0B1309",
"O  c #11150D",
"+  c #16140E",
"@  c #171613",
"#  c #161815",
"$  c #1A1916",
"%  c #1C1C1C",
"&  c #231713",
"*  c #201C1B",
"=  c #1B2216",
"-  c #24221D",
";  c #2A261D",
":  c #232A1D",
">  c #2D291F",
",  c #362E1D",
"<  c #222222",
"1  c #2A2623",
"2  c #262B24",
"3  c #2C2A25",
"4  c #2B2B2B",
"5  c #312B23",
"6  c #312E2A",
"7  c #2C3423",
"8  c #2A3822",
"9  c #2E332A",
"0  c #2E3A28",
"q  c #333324",
"w  c #383122",
"e  c #323A24",
"r  c #3A3A24",
"t  c #34322B",
"y  c #39342B",
"u  c #34392D",
"i  c #3C3A2D",
"p  c #353533",
"a  c #393632",
"s  c #363933",
"d  c #3D3A35",
"f  c #3B3B3B",
"g  c #433628",
"h  c #443A2D",
"j  c #483828",
"k  c #423631",
"l  c #423B33",
"z  c #4A3D33",
"x  c #423F3A",
"c  c #37432A",
"v  c #3C412C",
"b  c #3C4A2F",
"n  c #3A4135",
"m  c #3C4A34",
"M  c #3C433A",
"N  c #3E493A",
"B  c #3F5136",
"V  c #44422D",
"C  c #4D422F",
"Z  c #41482E",
"A  c #454235",
"S  c #4C4435",
"D  c #444B35",
"F  c #4D4A35",
"G  c #44433A",
"H  c #494339",
"J  c #444A3C",
"K  c #4D4A3D",
"L  c #514535",
"P  c #544834",
"I  c #53463D",
"U  c #5A4639",
"Y  c #524B3C",
"T  c #5B4E3B",
"R  c #455333",
"E  c #4A5034",
"W  c #405834",
"Q  c #44553C",
"!  c #4A533D",
"~  c #4C5A3B",
"^  c #55533C",
"/  c #59533C",
"(  c #535E3F",
")  c #604A3C",
"_  c #63533F",
"`  c #69523B",
"'  c #655A3C",
"]  c #454543",
"[  c #4A4641",
"{  c #464B41",
"}  c #4C4A43",
"|  c #4A4B49",
" . c #524D43",
".. c #594D41",
"X. c #524E49",
"o. c #4E5444",
"O. c #535145",
"+. c #5B5444",
"@. c #5D5A45",
"#. c #515149",
"$. c #59544A",
"%. c #555A49",
"&. c #5C5A4B",
"*. c #545454",
"=. c #5B5753",
"-. c #565C51",
";. c #5B5D53",
":. c #5A5B59",
">. c #604F43",
",. c #625442",
"<. c #635649",
"1. c #625B4D",
"2. c #695C4D",
"3. c #625B52",
"4. c #6A5E51",
"5. c #605D58",
"6. c #5B6544",
"7. c #59654D",
"8. c #5A6F4B",
"9. c #5C7848",
"0. c #5E6453",
"q. c #5C625C",
"w. c #636445",
"e. c #6C654E",
"r. c #656C4C",
"t. c #6A6A4D",
"y. c #75684D",
"u. c #61724A",
"i. c #65754E",
"p. c #656353",
"a. c #6E6551",
"s. c #636F51",
"d. c #6C6C51",
"f. c #66635D",
"g. c #6A645A",
"h. c #666B5D",
"j. c #6C6B5C",
"k. c #706050",
"l. c #716D53",
"z. c #7B6955",
"x. c #736D5B",
"c. c #7C6C5B",
"v. c #667454",
"b. c #6A7452",
"n. c #687850",
"m. c #677158",
"M. c #6B765D",
"N. c #6D7B5B",
"B. c #727554",
"V. c #737954",
"C. c #74755A",
"Z. c #7B745A",
"A. c #7A7A59",
"S. c #646464",
"D. c #6C6D64",
"F. c #6D6D6A",
"G. c #746E61",
"H. c #786C63",
"J. c #6C7564",
"K. c #6C746C",
"L. c #6F786F",
"P. c #737463",
"I. c #7C7365",
"U. c #717C65",
"Y. c #7F7F62",
"T. c #747469",
"R. c #7B7669",
"E. c #747A6E",
"W. c #7C7B6C",
"Q. c #727372",
"!. c #747C72",
"~. c #7B7D71",
"^. c #7B7B7B",
"/. c #816B54",
"(. c #846D5B",
"). c #83725C",
"_. c #8A7A5D",
"`. c #826D61",
"'. c #847364",
"]. c #8C7060",
"[. c #817966",
"{. c #8C7D65",
"}. c #81776A",
"|. c #837B6B",
" X c #897D6A",
".X c #907660",
"XX c #947C60",
"oX c #857E73",
"OX c #768A59",
"+X c #738361",
"@X c #74816E",
"#X c #7F8272",
"$X c #7B8B75",
"%X c #788478",
"&X c #789478",
"*X c #82845E",
"=X c #8D8266",
"-X c #85806D",
";X c #8A816C",
":X c #978167",
">X c #92836B",
",X c #9A866E",
"<X c #838475",
"1X c #898675",
"2X c #8D8A75",
"3X c #828679",
"4X c #8D8A7A",
"5X c #908372",
"6X c #948C7B",
"7X c #988B79",
"8X c #8B927A",
"9X c #95907A",
"0X c #9A917F",
"qX c #A0907C",
"wX c #848484",
"eX c #868B81",
"rX c #8C8C84",
"tX c #938D81",
"yX c #8B9487",
"uX c #999887",
"iX c #A89D8F",
"pX c #9AA08D",
"aX c #96A494",
"sX c #ACA499",
"dX c #BBA7A4",
"fX c #B6B6B6",
/* pixels */
"Y N A D D S N A H G S } L S S P N r r c v n G v c f c d n A n C J J K { S n M J C N A D J C N K J J S N n l A c c D Z b G S M H S N S D D S N S G J K s -.K K H , Q S S N D n A A M S N N D A N S d M N C B P K ! L G S x f 9 n c v l n S M A S n C G K S ] l n G H | h G K  .] P ] K  .X.)  .[ K L O.Y S G S M S I K S X.}  .,.5.U } { S g [ .. .K ) X.h.$.l } z k A ! [ )  ...+.%.1.X.[ U [ I [ ..T [ z [ } T } <.X. .T } ) [ J ",
"6X#X X-X#X{.%X;X-X<X'.<X'.W.R.{.R.@.1.i.b.T.I.Z.M.T.n.J.I.'.E.=X-X XR.K.=XR.@X<X:X$X-X|.oX=X#X6X4X-X{.#X!.I.Z.b.b.I.Z.A.L.'.R.|.;X#X{.~.|.;X#X{.-X2X6X~.sX,X-XT.I J.'.I.R.'.E.[. XW.{.!.#X-X X#X{.U.E.~.:X3X5X6X9X{.T.[.}.j.| T.N.I.'.T.XXoX|.[.J.{.~.<X5X%X'.T.I.'.K._.#X|. X3X,X1XoX|.$X:X<X%XoX{.3X[.I.I.).K.I.W.~.{.3X~.;X7XuX'.<XU.r.C J.I.|.|..X0XuX4X XQ.c.$.7.b.J.{.<X;X>X3X'.R.}.[.T.'.I. X XQ.'.I.W. X%XqX3X-X;X%X{.R.P.",
"%XXX<X%X%X%X%X%X-X{.%XXX<X%X%X%XXX1.@.l.K.XXT.K.T.(.n.K.[.{.%X%X{.-X%X%X%X{.-X3X0X&X$X|.[.%XXX4X2X{.%XXX#XU.t.k.K.K.[.{.%X%X=X-X<XXX%XK.!.#XXX%X=X5XrXqXsXeX X).X.i.T.|.:X%X%X%X X{.K.K.{. X#X.X%XN.M.W.qXqXsXdXdX%X.X#X-Xc.d ].#X!.T.XXyX0X<XJ.i.K.K.%X4X%XK.%X X{.K.n.K.!.3XqXaXuX0XrXrXqXtXtXtXyXqXK.g.e.n.K.v.M.E.%X0XqXuXpXXX%XXXI.=.5 n.J.R.'.%XrX%X4X6X%XqX$.X.e.n.Q.].2XyXqXT.'.|.@Xv.%X{.5XrX%Xn.).|.%XrXqX<X%X3XqX%X X|.",
"].f y A %.n.k.G f [ k.f S S L k.f m ! X.#.X.Y A u w d h l x P L P P P P , C j w w P P F B f P P A N W P d y w w f S H x P f B E S f P P H f f j a f G P f S A p < > b E P P P  .Y S f j e 7 w f w w w w f P J.E.h.P f S H p < B V j h f B P P S f f S Y } P P L L H f f S H x P X.P Y  .P #.Y Y  .P P P y < % 5 , w y f P P  .$.k.f S H p < % % % < 5 w S F R P f S q = w w d H L f f f l j j f f x L f j x f x P f S P L f f f l ",
"5.S x ] *.;.T S H G T f S &.;.[ S F G f i g d l k a f d h l x x l J E P a S H d K  . .o.K F [ X.Y S f G S i 8 w p f H S x h S K [ S x L } } | K S S  .;.S H H a % a f G x G P Y  .K S d a 4 ; w S l a a f x #.&. .x S H H l - f d H L S { O.Y P } S } X.#.X.P Y O.K s w d d x P P } } X.X.X.Y K } X.~.d.^ i * - * 3 w w e l H Y [ S x H z p h 4 2 7 a C A S S G S H l i - 8 q i d y y a d d f f S G G B } I S S X.B F H G L f y a ",
"3.z ] :.F.] H L H f L f i H } f P S H l i w a d d d a a a l l N f G Z H H H D J Y Y Y #.X.P K [ G A i f S V q w f l x A N h x K K H H H K Y ! #. .I T ;.w.G G l 4 a f f f l A F K Y K A a 6 3 : A f x l u y x } Y H H H H d % 4 a l S P | $.+.P  .K Y Y K { S K  .} x y y a l x x K Y  .#.#.I Y  . .%XT.%.A y : q ; - ; = 4 m S H H H H H H A l i s H H H H H H H H H a % 2 ; 1 1 w y y a f l f H H G N Y P S K Y N O.F.F.H H y a ",
"2.p ] q.F.*.] H H H S G u u y x S N S P G w a d f x h a p p g R d l l x S H J E K P P Y  .P P f f d g f S H a w a h l d R f x H S x S G H S W  .#.Y I O.b.} f f 6 k d d d j a N D S } / S H l 7 G ] K C h g G #.+.T { Y  .G 6 6 C K K / %.2.2.+./ } K L H f f S } X.L f y u a f x S I Y | } Y Y  .L F.3XF.| T c H w % % @ 4 n R S x S H G S {  .H G F M S H G H x S G a 1 1 < $ @ > a w y a h k f H H f F P H x S f *.^.wXf P x f ",
"L < p f *.fX*.] H S f P G f x j f m D P L f h l x P f y y f f f h l x P f S P L } L P Y #.#.P G f a w f f H S f w a a h f f S A x P f L H x P P o.#. .P k.T H p % f h l f f w p f G P n.e.k.k.k.k.u.t.k.k.4.b.d.k.e.n.h.h.b.k.k.b.e.e.n.n.l.P.@Xi.P G f f f j d ] #.X.f f y 6 f f f x P } P [ K I #.| dXsX~.k.k.[ A C 4 w a H S f P x H S f n.;.O.S f B M H S f P G H P P f w 1 - % w w u f f g f f f M B P H f f % p f f f P x f ",
"k.f f f ] *.L x H S d < p H S f a k l d f W r w y d W n y w f j C H f d f f f x P f B E Y #.#.P G f a j l f a j f f J D j P x N R L f f f f f f d H S f n.{ 9 4 a j a l g w f F y t k.*.8.r.a.n.S.a.d.n.n.S.a.d.n.n.k.b.J.J.n.k.S.m.d.k.K.'.*XOXk.P P H f a f f H S f P G H S f f S z N W } Y A N B P W t.(.} aXC.X.x P f L H x P f B N f f L 4X$Xr.P f h l x U f S H G L f S H d w X X * w , 8 w i f f f S K B 2 3 p ] *.S.f k l ",
"$.4 6 5 p q.R K H x S < < p x S S l f f f M a y w y f l i a h x x H H f l d d h f F G S I } #.O. .H f D l g y x f H P D d P L P F x S d a y f w a f a 0 / G f a k a y y y w f D i h b.*.p.e.k.a.v.b.d.k.a.n.a.d.b.S.(.b.d.g.d.b.d.k.e.b.v.T.[.Z.f.r.#.K H f w m G x f P S K K L f f H S Y #.O.K S Y P A K  .Y f.T.p.S x L x A S G S G A x < x :.<X2X2.f S x x x S H H H H S G H H d ; * = = & 8 q w y h f x S A 2 1 4 4 p ] f x x ",
"S d 6 5 y :.F H A H H y = 4 d P  .[ H A H H H a y a f r y y k l m G H z l l l l f x f A E Y Y X.Y S f N l a y l f x A H H H H L S f P l x C N ; 4 4 4 n H H p 4 l f ; - 3 w a 7 e P d.3.4.k.d.g.t.j.d.a.d.h.a.e.d.h.H.l.d.d.g.e.d.k.g.M.t.I.I.I.g.d.+.K K N y n D x H Y P K } P f J G H A Y ~ K Y Y Y K x H H Y q.p...f x H H A N A H H k % 1 K f.<X5X:.<... .N A H H S H H H H H H y y q 2 & = > w w r f f x S y 4 1 < 5 H J M H ",
"P #.x a A %./ } Y T { I q u K I $.#.O.T Y ^ T K [ [ G l V l x L ! J H Y x L H H H f ] ! ! / T X.O.^ ] G [ [ K L } [ ] J ^ [ [ Y T { Y K K Y R ; < 3 a &.[ S u 7 ] n 3 1 7 V a # 3 +.a.a.a.d.b.S.k.S.4.a.b.S.a.a.e.b.S.a.d.d.g.k.n.d.a.J.l._.[.j.k.k.@.+.O.~ ] G I T T X.+. .X./ [ ! ! { K / ^ %.$.$.$./ T Y [ T X.&.1.] [ Y K K ~ [  .S d u ; z +.j.uX!.g.a.w.Q ] T K K T { Y Y K T { Y K x 6 # 6 y r c G [ I Y P a p y l / ~ [ Y ",
"n.*.4.3.;.n.S.a.4.k.n.#.2.e.a.*.a.=.3.4.=.9.-.3.k.k.9.t.r.8.*.k.=.+.>.*.` 8.w.` k.#.2.3.&.k.k.=.7.u.k.k.k.k.k.k.k.k.3.-.9.k.k.k.e.9.*.4.<.#.#.j a  .k.k.4.G ] $.k.W w.k.e.i.w + 4 $.S.n.h.g.a.v.k.k.k.k.k.n.a.d.b.k.n.a.a.k.k.k.b.d.d.i.K.{.A.b.k.n.J.j.k.k.k.k.k.k.k.k.b.d.d.n.k.k.k.d.n.k.k.k.e.k.e.k.1.=.4.k.=.7.8.*.a.=.+.` k.k.=.+.' 9.*._ w.n.K.k.$.7.s.*.k.k.b.u.k.n.a.d.b.k.n.;.3.4.k.d <.,.T k.k.k.3.$.P k.b.d.k.k.k.k.t.",
"K.].B.n.b.4.n.a.d.v.*.k.k.3.=.k.9.e.r.r.k.k.k.k.k.k.k.k.k.k.k.#.2.1.;.9.k.k.k.4.*.k.u.r.k.k.9.e.k.k.k.k.i.7.-.9.k.d.b.k.k.n.a.b.b.e.k.4.k.k.k.k.k.r.u.k.n.a.k.a.n.k.b.h.f.*.& : F l.n.].B.d.a.S.n.h.h.n.n.k.J.J.b.k.n.h.h.b.e.i.k.d.b.k.XXT.j.k.k.XXV.t.e.n.k.n.b.k.n.k.g.g.k.k.n.S.g.k.k.n.a.d.b.k.*.8.0.$.` *.2.k.k.k.e.r.i.b.k.9.e.d.s.*.k.k.e.k.k.9.e.e.k.k.9.e.k.e.n.k.b.0.=.2.k.k.a.a.i.k.b.h.S.k.n.a.k.a.n.k.k.t.b.k.S.a.k.",
"M.b.d.a.e.b.e.a.e.a.4.b.k.t.7.k.e.k.e.e.k.k.b.d.a.b.k.e.p.=.k.8.e.r.r.t.k.r.t.a.8.k.e.e.e.u.e.b.e.k.i.k.e.a.2.t.k.e.k.k.k.k.k.k.e.b.k.d.b.b.b.b.k.t.b.k.n.j.M.b.J.(.n.C.x.Q . r %.P.).b.n.t.a.m.k.b.M.P.).D.I.Z.b.k.n.a.j.J.b.).B.e.l.D.XXg.h.d.k.<Xx.g.g.a.b.e.d.d.a.t.b.b.t.k.n.a.d.d.4.k.k.a.4.=.) e.2.3.$.8.a.t.r.k.u.t.e.l.k.e.k.k.a.4.u.e.k.k.k.e.u.t.k.b.e.k.d.t.e.k.e.a.a.k.k.t.g.g.a.b.e.b.d.k.h.a.d.b.S.k.b.h.j.k.v.k.k.",
"Z.M.b.l.x.d.d.k.k.k.d.d.e.e.e.k.g.4.k.e.t.k.a.t.d.e.a.a.t.2.k.r.e.e.t.k.t.r.t.t.r.k.d.k.y.r.k.a.d.k.d.k.e.d.k.d.k.d.k.k.t.d.b.t.t.l.t.d.b.i.e.n.e.B.v.j.Z.M.M.P.I.Z.C.C.e.F O l 3.T.Z.J.J.B.c.M.).P.P.[.|.[.I.Z.Z.P.Z.x.x.I.M.Z.C.D.G.[. Xg.p.d.j.-XB.d.h.d.M.c.B.v.j.Z.n.M.M.d.Z.G.b.v.x.d.e.e.t.3.w.k.e.r.3.r.e.e.t.k.r.e.e.k.d.k.d.d.k.k.t.t.e.e.e.k.t.e.a.e.k.e.d.l.k.t.k.k.k.d.k.b.d.l.d.d.t.d.d.d.h.k.a.d.m.k.e.d.d.4.d.d.t.",
"'.T.v.M.j.y.b.a.k.a.b.k.k.k.k.d.q.a.a.g.b.a.e.d.d.a.k.k.a.a.k.e.k.k.k.k.n.k.a.d.a.k.b.d.k.a.k.a.a.a.e.k.b.d.e.n.k.b.d.d.v.B.n.N.B.l.B.d.j.b.k.v.d.d.b.J.`.b.M.I.).v.P.J.r.l $ K g.J.M.T.E.R.'.E.{.|. X X3X=XW.|.[.<X'.E.T.'.T.N.W.Q.W.,X<Xx.e.l.T.{.C.b.N.B.J.I.Z.M.J.`.B.M.T.V.'.I.M.b.I.d.a.t.r.k.b.e.t.r.k.k.k.k.k.k.k.d.d.a.b.k.d.d.a.a.a.d.t.l.b.k.a.k.k.a.k.l.y.e.k.i.a.a.e.b.e.b.e.t.b.a.d.d.e.b.n.d.a.a.n.e.k.d.b.k.l.v.V.",
"K.].B.d.e.n.k.b.t.k.k.n.d.d.n.b.e.b.h.f.k.n.n.d.a.S.k.a.d.d.k.n.k.k.k.k.k.k.g.f.4.n.k.k.a.i.k.b.d.a.n.k.b.d.e.n.k.b.n.M.K.].T.I.'.K.].D.I.).n.S.v.d.a.n.S.M.Z.).n.K.'.R.:.4 X  ./.{.Q.XX#X;X{.%X%X X5X6XqX&X0X4X<XXX%X%XU.b.].%X{.-XeXsXXXV.t.z.XXK.'.I.T.].n.J.I.).n.K.b.Z..XXXK.'.Z.B._.k.k.k.k.k.k.b.t.l.n.k.n.d.d.n.k.k.g.f.k.k.f.g.a.n.n.a.t.b.k.k.b.t.a.n.k.k.b.b.k.k.k.d.b.k.n.a.d.b.k.i.a.d.i.k.n.i.d.d.n.n.a.d.b.k.i.J.I.",
"n.k.S.g.e.n.k.b.d.l.n.k.b.d.4.k.n.a.t.n.n.k.b.d.a.n.n.a.d.v.K.k.b.i.n.n.k.b.n.b.k.n.d.d.b.k.k.b.n.b.k.n.).Z.n.n.K.'.I.J.n.K.b.J.J.n.K.v.n.v.K.k.t.M.T.].n.J.M.v.K.n.J.j.Y   w } 0.N.K.XX4XrXtX0X%X%X4XuXaXsXaX9X{.%X].B.t.e.n.K.{.,XiXfXn.e.t.N.%X(.B.M.J.n.K.K.Q.T.].n.).Z.i.n.n.i.t.l.n.k.b.t.e.n.*.4.k.k.k.i.k.k.g.S.b.d.d.n.i.k.b.n.b.2.].V.i.B._.n.a.d.b.k.n.a.k.a.n.k.k.k.l.n.k.b.n.n.n.k.b.t.a.n.k.b.h.f.k.K.'.I.K.K.].B.n.",
"n.k.d.C.(.J.(.b.M.G.).J.J.M.l.(.J.c.Z.n.f.(.D.m.d.a.n.J.I.Z.N.D.).B.n.i.).B.l.c.b.n.b.e.e.b.b.e.x.M.b.J.B.M.P.).v.P.R.Z.n.'.P.P.I.i.K.'.C.h.N.k.c.Z.M.T.J.I.W.W.[._.T.;.a   3 H ^ / =.&.5.g.c.c.;.j.j.j.+X%XI.g.1.+.&.#.Y / #.F +.d.-X7Xn.j.x.I.%XB.P.M.C.).K.I.C.M.T.).C.B.t.n.a.b.M.j.a.b.d.e.b.a.4.a.3.3.k.d.d.n.d.a.n.b.t.d.i.P.c.I.M.b.T.I.I.J.B.J.(.B.i.b.n.i.a.a.n.k.l.a.k.i.k.d.b.y.).b.M.I.).n.k.j.I.c.b.'.B.P.T.`.T.I.P.",
"Z.j.Z.I.I.J.I.N.C.I.Z.K.T.Z.Z.I.M.C.B.d.h.(.j.d.d.G.Z.T.P.C.Z.K.Z.M.M.Z.Z.M.x.B.N.Z.M.b.l.Z.n.M.x.I.n.I.M.P.I.Z.M.C.Z.Z.Z.Z.I.I.C.J.M.c.x.m.n.j.Z.C.J.I.K.'.).U.I._.[.$.3   4 q q u a p a d x l a d a a S O.K G n w p 6 1 5 9 q 4 i J Y 7.g.I.-X-Xn.I.C.P.].K.'.Y.M.I.I.J.Z.c.M.(.Z.Z.I.I.B.x.h.b.k.t.a.3.4.k.e.d.b.b.d.d.e.d.l.A.M.I.I.I.n.I.Z.P.T.Z.M.B.M.M.Z.n.d.t.b.A.t.n.t.a.n.z.b.b.l.I.).M.C.C.M.d.I.Z.Z.P.I.Z.T.T.].K.Z.Z.",
"'.R.'.I.U.b.T.v.C.Z.B.K.'.].'.T.N.V.d.d.v.a.d.d.j.J.).R.C.C._.K.C.M.P.'.B.J.M.B.K.).I.M.B.'.B.J.I.'.N.(.T.I.Z.B.J.c.x.B.).B.).Z.b.J.B.d.d.M.B.K.C.M.T._.K.Z.Z.M.J.v.Z.+.> . < # # $ % # # @ @ # $ # + + & ; - = : % # + X X O # X O # % G 2.+X8X_.N.Z.I.I.'.R.[.[.I.'.R.K.I.'.L.XX{.{.{.!.).I.M.t.k.b.=.p.e.a.b.l.d.b.b.d.e.b.C.].b.J.T.Z.M.).B.J.T.).b.b.M.T.'.B.l.b.C.).B.n.l.l.n.'.Z.b.N.T.).B.N.C.K.B.Z.C.J.R.T.[.I.I.{.T.N.I.",
"%XXXT.R.{.K.].B.M.T.(.T.{.[.T._.K.`.Z.v.K.n.a.j.J.n.]..X}.T.(.T.'.Z.M.K._.B.Z.'.K.n.).Z.b.K.].T.I.'.%X].B.M.I.).n.T.T.K.n.].T.I.).n.].B.M.T.].K.'.I.T.XXK.N.Z.).n.K.v.%.p % % o                               . X X                     4 6.2XuXn.K.K.R._.K.:X#X;X{.%XXXT.[.=X%XXX-X-X{.K.n.).c.k.k.k.k.d.n.n.k.J.x.k.k.n.n.M.T.].K.v.M.K.K.n.).I.J.n.].T.M.v.K.(.B.M.J.b._.V.Z.(.n.K.'.Z.B.(.n.J.I.'.K.).R.K.R.XXXX<X-X{.K.XX#X;X",
"XX%X{.[.T.XXK.[. X<XXX%X{.-XE.n.].T.K.T.].n.J.R.`.K.%X%X X{.%X].P.I.{.Q.XXR.J.B.XX%X'.I.T.].%X X;X<XXX&X=XXX X%XXXXXR.T.(.K.K.J.N.K.n.J.I.'.K.XX#X-X{.%XXX#X X X%X).~.%.w w                                                             X e.9XyX].XX<X-X{.$XXX$X8X6X%XXX#X-X=X&X%X{.-X#XXXK.N.d.a.i.k.b.M.K.n.K./.y.i.i.K.'.Z.N.%XXXXX|.T.XX%XXXXX{.%XXXXX;XoXXXT.'..X].K.n.J.M.B._.K.K.K.J.K.XX#X X{.K.XXR.R.{.%X%X{.-X%X%XXX#X4X",
"i G } ..^ D a x x S 3.;.;.<.O.a a l H z p G ] ]  .+.+.<.+.} | } ~ @.Y p a a p G ,.f d ]  .,.-.6.7.=.1.@.X.G d N X. .K H } +.G d d { J x d l +.1.+.+.} f 6.o.M p p ( @.i % O # # # # # # @ # # # $ # # # # # # # @ # # # # # # # # # # # $ 6 I &.[ X.+.<.&.+.1.j.d.3.@.1.;.=.5.q.<.k.g.&._ A V i w 9 4 h i s ^ { a d J V A K f a | _ ..O...X.;.;.$.X.} }  .+.+.} p y x } ] V p t s } +.a a A | _ } | } } 6.+.O.#.;.@.X.O.&.:.z.! O.",
"% - 3 6 6 : ; - < 1 p p a u 5 < * * ; 1 % 4 4 4 6 6 w t 6 4 4 4 9 u 5 < % < < 4 6 % < 4 6 t p s u a f y 6 1 < : 6 4 1 3 4 t 1 < 1 4 4 1 < 1 y p y t 4 < 0 4 < % % N i 1 $ O % % % % % % % % % % % % % % % % % % % % % % % % % % % % % % % % ; t 4 4 t t y y p l d p y p s a p a w l a y t ; ; * % % % ; - - y 4 * < 3 ; ; 1 < % 4 u 6 6 t 4 p p t 4 4 4 4 4 6 4 % % < 4 4 1 % % < 4 y < - 1 4 u 4 4 4 4 8 t 6 9 p t 6 t y d A 3 7 ",
"% % % % % % % % % % % % % % % % % % % % % % % % % % % % % % % % % % % * % % = % % % % % % % < % % % % = % % = % % % % % * % % < % < % % % % % % < % % % % % % % % 9 < % % % % % % % % % % % % % % % % % % % % % % % % % % % % % % % % % % % % % % % % % % % % % % % % % % % % % % % % % % % % % % % % % % % % % % % % % % % % % % % % % % % % % % % % % % % % % % % % % % % % % % % % % % % % % % % % % % % % % % % % % % % % % % ",
"% % % % % % % % % % % % % % % % % % % % % % % % % % % % % % % % % % % % % % % % % % % % % % % % % % % % % % % < % % % % % % % % % % % % % % % % % % % < % % % % % % % % % % % % % % % % % % % % % % % % % % % % % % % % % % % % % % % % % % % % % % % % % % % % % % % % % % % % % % % % % % % % % % % % % % % % % % % % % % % % % % % % % % % % % % % % % % % % % % % % % % % % % % % % % % % % % % % % % % % % % % % % % % % % % "
};
