/* XPM */
static char *result[] = {
/* columns rows colors chars-per-pixel */
"27 126 188 2 ",
"   c #010101",
".  c #090606",
"X  c #040C00",
"o  c #090D06",
"O  c #070D08",
"+  c #0C0C0C",
"@  c #120E0B",
"#  c #1A0F0D",
"$  c #0A1007",
"%  c #0C120A",
"&  c #11140D",
"*  c #18120E",
"=  c #131412",
"-  c #1D1514",
";  c #161815",
":  c #1A1A15",
">  c #13131C",
",  c #1C1C1C",
"<  c #211412",
"1  c #221B16",
"2  c #231C1C",
"3  c #2B1A19",
"4  c #102010",
"5  c #1F211D",
"6  c #1F291A",
"7  c #252315",
"8  c #282812",
"9  c #24221C",
"0  c #2C251D",
"q  c #252D1D",
"w  c #2E2A1D",
"e  c #33231E",
"r  c #322B1F",
"t  c #3C2E1E",
"y  c #29301F",
"u  c #101020",
"i  c #1B1B24",
"p  c #222222",
"a  c #2B2621",
"s  c #252B22",
"d  c #2C2924",
"f  c #2A2A2A",
"g  c #322C22",
"h  c #3B2A21",
"j  c #322D2A",
"k  c #2B3223",
"l  c #353224",
"z  c #393122",
"x  c #363826",
"c  c #34312C",
"v  c #3A342C",
"b  c #313B2C",
"n  c #3D392C",
"m  c #3A3A25",
"M  c #333333",
"N  c #393632",
"B  c #353B30",
"V  c #3D3A35",
"C  c #3A3A3A",
"Z  c #423226",
"A  c #423628",
"S  c #48362C",
"D  c #453A2C",
"F  c #493929",
"G  c #483030",
"H  c #433C32",
"J  c #493C30",
"K  c #423F3A",
"L  c #483E3E",
"P  c #364228",
"I  c #3B422B",
"U  c #3D4634",
"Y  c #3E423A",
"T  c #3F5136",
"R  c #46402B",
"E  c #4D422E",
"W  c #434A2F",
"Q  c #454234",
"!  c #4D4435",
"~  c #444E35",
"^  c #4C4B35",
"/  c #45423D",
"(  c #494338",
")  c #454B3C",
"_  c #4E4C3B",
"`  c #514634",
"'  c #544834",
"]  c #594A35",
"[  c #504438",
"{  c #534B3B",
"}  c #5A4E3D",
"|  c #445333",
" . c #4A5034",
".. c #405834",
"X. c #445639",
"o. c #49523B",
"O. c #62503C",
"+. c #685038",
"@. c #454544",
"#. c #494542",
"$. c #4D4B43",
"%. c #4A4A49",
"&. c #504040",
"*. c #524E43",
"=. c #5A4B42",
"-. c #4E5242",
";. c #545145",
":. c #5C5143",
">. c #5E5B47",
",. c #515049",
"<. c #5A544B",
"1. c #5C5A4A",
"2. c #565A4A",
"3. c #535353",
"4. c #5A5754",
"5. c #5D5A55",
"6. c #5A5A5A",
"7. c #615A4D",
"8. c #695C4D",
"9. c #635847",
"0. c #635B53",
"q. c #695D51",
"w. c #605D58",
"e. c #5A6147",
"r. c #57614E",
"t. c #5B644B",
"y. c #5A684B",
"u. c #536844",
"i. c #5D6957",
"p. c #696647",
"a. c #6E634F",
"s. c #646B4D",
"d. c #696D4C",
"f. c #61664D",
"g. c #6E6554",
"h. c #6C6C51",
"j. c #65645B",
"k. c #6A645C",
"l. c #66695F",
"z. c #646453",
"x. c #706050",
"c. c #716B55",
"v. c #71665A",
"b. c #726C5B",
"n. c #7B6C5B",
"m. c #6B7556",
"M. c #687850",
"N. c #6C765E",
"B. c #6C7B5A",
"V. c #74755A",
"C. c #7C735B",
"Z. c #737A56",
"A. c #646464",
"S. c #6B6661",
"D. c #6B6E67",
"F. c #726E68",
"G. c #726A62",
"H. c #6B7565",
"J. c #6C746C",
"K. c #727565",
"L. c #7C7266",
"P. c #747369",
"I. c #7E7C63",
"U. c #737573",
"Y. c #83725C",
"T. c #847163",
"R. c #8C7060",
"E. c #807866",
"W. c #827A6B",
"Q. c #947C60",
"!. c #788478",
"~. c #8D867F",
"^. c #A0907C",
"/. c #808080",
"(. c #8D8D82",
"). c #928E88",
"_. c #929292",
"`. c #ACA498",
"'. c #A0A0A0",
"]. c #B5B1AC",
"[. c #BEB8B5",
"{. c #D0BCB9",
"}. c #D8C4A6",
"|. c #CECBC5",
" X c #D0D0C6",
".X c #ECE0C6",
"XX c #F0F0C9",
"oX c None",
/* pixels */
"9 7 p 7 7 7 7 7 7 9 7 7 8 w k l c N J D V V D p p f Y ",
"H D / D F D F F A H H F ` ] *.,.3.3.v.v.k.A.8.C C %.k.",
"( / ` C ! ( Q ` f v F F ,.+.;.,.6.A.J.U.U.l.' C C H } ",
"( ! C ' K ( E z ,.{ Z 3 z F z z l C ,.Y C K ' C G &.w.",
"! ` S K ! n j z { ' F r t z v N N S Y ( ( #.' C V #.4.",
"J Q ! K v d p v J ` D v l t n n D F v D J ( ( H M C %.",
"( K ' C f p j C V *.*.K l z Z A S A t t m S K ! d f K ",
"( K ' C p d l C F S.G.7.K F z v V A g g h m ' C e 2 a ",
"( K ' # p d z g 3.A.6.%.M S V V F ' h z d f C F d f / ",
"L K ' , c C v 9 C @.K 3._.#.V V C K C z h m ^ V a 0 V ",
"( N g , V / C 9 C M @.A._.@.C V H C H n c l D C j v H ",
"( j . , H _ C 9 M M @.6.A.C C V H C F / C v F @.L *.;.",
"Q f X , N ( H i p i f C C C C C Y ,.,.q.7.5.x.M.g.h.M.",
"S 3 X f g v N p 3 5 p p C C ! *.$.,.x.4.0.x.x.M.H.L.T.",
"v : X N z v C M 2 5 f v D ! *.*.,.,.<.y.s.x.D.M.C.C.m.",
"h : O C N c c C f d j v H ^ *.,.,.:.,.f.d.b.L.H.V.V.V.",
"A 1 + K C M v N C l g l ( X.-.*.,.O.<.8.h.m.Y.J.m.N.K.",
"c , + ' K V C M C f g Z ` %.{ { ,.,.+.8.j.i.M.J.T.C.m.",
"v 2 + C C C C M # q b C C ' *.*.{ ,.3.8.x.g.J.R.V.N.H.",
"c 2 + C C M M f , 0 g n ! ' o.o.*.,.q.5.q.g.m.P.C.n.h.",
"v 1 + C N N f = < d h v ( ' o.-.;.} 0.>.z.h.d.N.C.V.b.",
"Z 1 + V c v f X < d v C Y ` *.,.*.O.3.9.p.h.g.m.m.N.K.",
"g - X g B v 8 X , s j m ..' -.,.,.,.,.s.d.g.M.J.T.C.B.",
"v , X C g : X X , p g l C ' |  .{ ,.+.d.h.g.J.R.P.E.Q.",
"g , . C z : X X , a j z C ' { { { X.] ;.%.$.:.*.( $.,.",
"g , O C f ; X X : p d v C ' ! R m b r s s p j f p d j ",
"g , X C f & X X - 2 w l Y E v f 6 , o $ $ % > , , i , ",
"g , + C s & X X , 5 0 v C z p ; o X X ; , , , i , , , ",
"j < X , i = X X + , d z C z ; O X X , i , , , , , , , ",
"j : X , 5 & X X + , p g v d = O X X , , ; = , oXoXoXoX",
"g - o , p = X X + - p d h p = . $ = , ; = ; oXoXoXoXoX",
"g < X , , ; $ X + # 2 g g 9 = + = 2 p = = oXoXoXoXoXoX",
"d : X , 5 , ; X + ; 9 0 2 , = + @ 3 i i ; oXoXoXoXoXoX",
"w , X p p , ; X X ; 0 g f d 2 ; = p 2 = oXoXoXoXoXoXoX",
"0 ; X , i 2 ; X X ; w l g k w 9 - p p = oXoXoXoXoXoXoX",
"9 ; X , i , : X X , f v v b l a , i ; oXoXoXoXoXoXoXoX",
", ; X , , , ; X X : c Y H K v d 5 , + oXoXoXoXoXoXoXoX",
", ; X # , , ; X X < x T F ' / v a , + oXoXoXoXoXoXoXoX",
", ; X , , , ; X X : l ! C ,._ ( M , + oXoXoXoXoXoXoXoX",
", ; X , i , ; X X * d K ! { ` ( M : + oXoXoXoXoXoXoXoX",
", ; X , i , ; X X = a H { { ' ^ N < + + oXoXoXoXoXoXoX",
"i ; X , , 9 ; X X = a n $.,.{ ^ U 9 + + oXoXoXoXoXoXoX",
", ; X , , , , X X O p / ' ,.{ ( N r o + oXoXoXoXoXoXoX",
", : X , , , ; X X ; w Z ' ,.{ ( C r + + oXoXoXoXoXoXoX",
"p ; X , , , ; X X % , j / X.^ ' Q k + + oXoXoXoXoXoXoX",
"p ; X , p , 1 * X o : c ( -._ ' E l > + oXoXoXoXoXoXoX",
"i : X , , 2 3 3 X X : z { -.,.;.^ Z p = oXoXoXoXoXoXoX",
", ; . , < 1 2 3 X o 1 n ,.,.,.,._ ` f ; oXoXoXoXoXoXoX",
"p ; X , , - < i X + 1 n ,.+.;.*.*.' 5 + + oXoXoXoXoXoX",
", ; X : 2 , , , X X ; j ' <.y.>.} | 2 = + oXoXoXoXoXoX",
", ; X - , , - , X X & d { ,.r.2.*.^ 0 = + oXoXoXoXoXoX",
", : O - , , - - X X & a ! %.<.<.*.` r = + oXoXoXoXoXoX",
"2 < X < - i , < X X % p C %.O.} *.' p = + oXoXoXoXoXoX",
"2 , X , < : , , X X $ * t ,.,.{ [ C f = + oXoXoXoXoXoX",
"2 < X < : : : , X X o ; z ] o.o.' ! J : = oXoXoXoXoXoX",
"3 < X 1 ; : < , X X o & d ' o._ ' ' ' : ; oXoXoXoXoXoX",
"3 : X , , , , , X X X % s ' *.*.{ ' ' 7 ; oXoXoXoXoXoX",
"i , X , 5 1 < , X X X $ p ` *.,.*.' T s 5 , oXoXoXoXoX",
"3 : X , , i , , X X X $ , ' ,.:.O.,.-.c p , oXoXoXoXoX",
"3 : X - < 1 , - ; $ X $ , K %.<.<.} X.D d , oXoXoXoXoX",
"3 < X < < - - : ; o X $ - v ) -.;.}  .Q j , oXoXoXoXoX",
"2 < X < , - - ; + X X o - h ~  .{ *.{ Q f , oXoXoXoXoX",
"2 , X , : < - - + o X X . l E { *.' X.R g , oXoXoXoXoX",
"2 < X , , , , , , o X O + t @._ { ,.' K f , oXoXoXoXoX",
"3 : X , - , , , < + X o . z ( { *.{ ' | k = oXoXoXoXoX",
"3 : X , , - i , : $ X X o d H ! { { { ! s > , oXoXoXoX",
"3 1 X , , , , , , o X X X , N ( _ ,.,.( j i , oXoXoXoX",
"2 - X , , , , , 9 % X X X , z ~ X.,.-.{ Q M , oXoXoXoX",
"i ; X , , , , , , $ X X X < q I { ,.,.{ ( M 4 oXoXoXoX",
"2 = X = - - i , , + X X X : r H *.,.{ ' ( c - oXoXoXoX",
"2 : X + = = ; , : o X X X = w Q ,.%. .' ( M ; oXoXoXoX",
", , X + + + + - < o X X X + 0 H _ *.| ^ ( b ; oXoXoXoX",
"p ; X + + + + + , O X X X + p g Z ' C !  .P < oXoXoXoX",
"2 , X < = . o . + - & X X + 2 g l C ' / ( D u , oXoXoX",
"i ; X - > ; = + + + O X X X 2 j V ! *.! [ Q g , oXoXoX",
", ; X , , , , = + + O X X X 1 v ( { ,.' ' ` c , oXoXoX",
"2 : X - , , , , + + O X X X : v { *.,.{ ! ( V , oXoXoX",
"2 < X < - , ; + + + O X X X p M / ` ,.' ( H F , oXoXoX",
"2 : X , i = + + + , + X X X : g D C ' |  .! C , oXoXoX",
"2 , X : , , : # + , = X X X ; 7 x v K ^  .~ A , oXoXoX",
"- - X - , , i - + = $ X X X @ , s r ! ' ^ Y V , oXoXoX",
", # X - , , , , + + o X X X o : d z { { ( V C , , oXoX",
"1 # X < < : - + + + o X X X X & 9 h -.,.! S C i , oXoX",
"i ; X + + + + o + + O X X X + < 0 z ' ' K H F C p oXoX",
", ; X + + ; , , ; + . X X X . 4 k V K ~ Q C K ! d oXoX",
"2 ; X . . = , i i - % X X X = 5 k v n I U C C ' a oXoX",
", : X $ o + = i i 1 & o X X & , a h d g v V K ' d oXoX",
"2 1 X , $ O @ , 9 p , : X X X @ 1 f , d M K ' ' a oXoX",
"3 , X < - & O o , , - # X X X X $ , 2 r F { -.X.s oXoX",
"3 1 ; - i & O + = & = + X X X X o o d M ~ X.,.-.f oXoX",
"3 2 i M f , % o o X O O X X X o ; 5 ` *.-.-.<.{ d , oX",
"a , : @.C f : o O o o X X X X ; c @.n.c.5.<.8.{ d , oX",
"t < X C f p 5 < u - @ X X X o g } J.^.!.f.3.,.,.f , oX",
"h < X f p p 5 , , 4 % X X X X ; c ,.p.2.*.{ ,.,.d , oX",
"t < X p M f p i , , % X X X X & a n ] *.,.*.,.O.d , oX",
"h : X p , p 5 2 , , ; % X X X o ; d J <.7.5.,.=.d , oX",
"g : . , & ; , , , , , ; X X X X $ , C 1.a.8.3.*.j p oX",
"h < X X 9 p , , , , i ; X X X X $ 9 C u.s.8.,.+.H f oX",
"t < X g 0 g r , , , , ; X X X O * z ,.8.1.,.,.,.b q , ",
"d , X a g g w , , , , ; X X X O ; z { ;.,.,.,.,.n 0 , ",
"d : X f a 9 7 , , , , , @ X X X % g D H ( } $.,.( f ; ",
"d : X a s , ; p , , , , - X X X $ f z g n ! ,.<.<.k + ",
"h < X i f f a g , , , , , X X X $ p l 0 w m ` x.g.z X ",
"a ; X f f p f C , , , , , X X X $ , a % = p C M.l.k.{ ",
"0 = X f f f f f , , , , - X X X O + = ; p d f 2.W.I.e.",
"0 : X c f p f f p , , , : X X X X O = c (  .( J g.z.2.",
"d < X M f f f c f 9 2 , , % X X X X , ( t.m.v.] j.j.v.",
"g < X d t d M ,.l z 0 , , , o X X X , D 1.D.!.).].}.}.",
"g , X f C f d ,.C p p p , , , & X X X 5 V 7.Q.`.{..XXX",
"h < X , f c M Y M , ; , , , , , = X X $ q ! Z.`.[.|.|.",
"h < = p r l f M f p 9 f f f i , ; o X X % 7 P F.(.).(.",
"h 2 ; f c 0 , 9 p c K @.%.3.C p , o o $ $ o o M #._ ( ",
"h 9 X M C p X X f M 6.U.U.'.A.@.5 X - - & $ , , , , , ",
"Z 3 + , M M N l u M @.6.A./.U.%.; X + - i 5 , , , , , ",
"t < + , M @.@.d , M C C f C M f ; # o o = : , , , , , ",
"h 3 - , C @.@.g i f f f f f i f M , @ & - , , , , , , ",
"h 0 3 : @.@.V g p p p f C @.N @.%.: ; , , , , , , , = ",
"h 3 g X %.,.N f C C C C %.A.A.%.j * ; : , , , , 5 % o ",
"z a 3 + 0 H %.` f + = 5 f M C f a z r 2 , , , # , % o ",
"Z v e < & s %.5.p , > & % = a d a d l k s p h q 0 * o ",
"F Z 3 e < : k / N s ; = w ; 0 D H f h k d g v y r 7 = ",
"F S e e 3 < * < $.N 5 2 J M n =.:.f z f j n @.z g 0 9 ",
"E ` F 3 d 3 < X C C j d 5 3.3.0.:.f z v M H A.` a 2 0 ",
"F F ` 2 3 3 e 3 + X & , X # , M C 5 , p V _ F C f 1 - ",
"* * & . . + o . .   .   X . . + + + . O + = @ + . . . ",
"                                                      "
};
