/* XPM */
static char *result[] = {
/* columns rows colors chars-per-pixel */
"64 64 7 1 ",
"  c #17111A",
". c #83E04C",
"X c #848FA4",
"o c #9BADB7",
"O c gray65",
"+ c #CBDBFC",
"@ c white",
/* pixels */
"@@@@@@@@@@@@@@@@@@@@@@@@@@@@@@@@@@@@@@@@@@@@@@@@@@@@@@@@@@@@@@@@",
"@@@@@@@@@@@@@@@@@@@@@@o@@@@@@@@@@@@@@@@@@@@@@@@@@@@@@@@o@@@@@@@@",
"@@@@@@@@@@@@@@@@@@@@@o@o@@@@@@@@@@@@@@@@@@@@@@@@@@@@@@o@o@@@@@@@",
"@@@@@@@@@@@@@@@@@@@@@@o@@@@@@@@@@@@@@@@@@@@@@@@@@@@@@@@o@@@@@@@@",
"@@@@@@@@@@@@@@@@@@@@@@@@@@@@@@@@@@@@@@@@@@@@@@@@@@@@@@@@@@@@@@@@",
"@@@@@@@@@@@@@@@@@@@@@@@@@@@@@@@@@@@@@@@@@@@@@@@@@@@@@@@@@@@@@@@@",
"@@@@@@@@@@@@@@@@@+@@@@@@@@@@@@@@@@@@@@@@@@@@@@@@@@+@@@@@@@@@@@@@",
"@@@@@@@@@@@@@@@@@++@@@@@@@@@@@@@@@@@@@@@@@@@@@@@@@++@@@@@@@@@@@@",
"@@@@@@+@@@@@@@@@@++@@+@@@@@@@@@@@@@@@@@+@@@@@@@@@@++@@+@@@@@@@@@",
"@@@@@@+@@@@@@@@@@@+o++@@@@@@@@@@@@@@@@@+@@@@@@@@@@@+o++@@@@@@@@@",
"@@@@@@+@+@@@@@@@@@o++o@@@@@@@@@@@@@@@@@+@+@@@@@@@@@o++o@@@@@@@@@",
"@@@@@@+@+@@@@@@@@@@oo@@@@@@@@@@@@@@@@@@+@+@@@@@@@@@@oo@@@@@@@@@@",
"@@@@@@@@+@@@@@@@@@@@@@@@@@@@@@@@@@@@@@@@@+@@@@@@@@@@@@@@@@@@@@@@",
"@@@@@@@@@@@@@@@@@@@@@@@@@@@@@@@@@@@@@@@@@@@@@@@@@@@@@@@@@@@@@@@@",
"@@@@@@@@@@@@@@@@@@@@@@@@@@@@@@@@@@@@@@@@@@@@@@@@@@@@@@@@@@@@@@@@",
"+@@@@@@@@@@@@@@@@@@@@@@@@@@@@@@@@+@@@@@@@@@@@@@@@@@@@@@@@@@@@@@@",
"@+@@@@@@@@@@@@@@@@@@@@@@@@@@@@@+@@+@@@@@@@@@@@@@@@@@@@@@@@@@@@@@",
"+@@@@@@@@@@@@@@@@@@@@@@@@@@@@@@@@+@@@@@@@@@@@@@@@@@@@@@@@@@@@@@@",
"@@@@@@@@@@@@@@@@@@@@@@@@@@@@@@@@@@@@@@@@@@@@@@@@@@@@@@@@@@@@@@@@",
"@@@@@@@@@@@@@@@@@@@@@@@@@@@@@@@@@@@@@@@@@@@@@@@@@@@@@@@@@@@@@@@@",
"@@@@@@@@@@@@@@@@@@@@@@@@@@@@@@@  @@@@@@@@@@@@@@@@@@@@@@@@@@@@@@@",
"@@@@@@@@@@o@@@@@@@@@@@@@@@@@@@ .. @@@@@@@@@o@@@@@@@@@@@@@@@@@@@@",
"@@@@@@@@@o@o@@@@@@@@@@@@@@@@@ .... @@@@@@@o@o@@@@@@@@@@@@@@@@@@@",
"@@@@@@@@@@o@@@@@@@@@@@@@@@@@ ...... @@@@@@@o@@@@@@@@@@@@@@@@@@@@",
"@@@@@@@@@@@@@@@@@@@@@@@@@+@ ........ @@@@@@@@@@@@@@@@@@@@@+@@@@@",
"@@@@@@@@@@@@@@@@@@@@@@@+@+ .......... @@@@@@@@@@@@@@@@@@+@+@@@@@",
"@@@@@@@@@@@@@@@@@@@@@@@+@ ............ @@@@@@@@@@@@@@@@@+@+@@@@@",
"@@@@@@@@@@@@@@@@@@@@@@@+ .............. @@@@@@@@@@@@@@@@+@@@@@@@",
"@@@@@@@@@@@@@@@@@@@@@@@ ................ @@@@@@@@@@@@@@@@@@@@@@@",
"@@@@@@@@@@@@@+@@@@@@@@ .................. @@@@+@@@@@@@@@@@@@@@@@",
"@@@@@@@@@@@@+@+@@@@@@ .................... @@+@+@@@@@@@@@@@@@@@@",
"@@@@@@@@@@@@@+@@@@@@@     ............     O@@+@@@@@@@@@@@@@@@@@",
"@@@@@@@@@@@@@@@@@@@@@@@OO ............ OOOOOO@@@@@@@@@@@@@@@@@@@",
"@@@@@@@@@@@@@@@@@@@@@@oOO ............ OOOOOO@@@@@@@@@@o@@@@@@@@",
"@@@@@@@@@@@@@@@@@@@@@o@o@ ............ OO@@@@@@@@@@@@@o@o@@@@@@@",
"@@@@@@@@@@@@@@@@@@@@@@o@@ ............ OO@@@@@@@@@@@@@@o@@@@@@@@",
"@@@@@@@@@@@@@@@@@@@@@@@@@ ............ OO@@@@@@@@@@@@@@@@@@@@@@@",
"@@@@@@@@@@@@@@@@@@@@@@@@@ ............ OO@@@@@@@@@@@@@@@@@@@@@@@",
"@@@@@@@@@@@@@@@@@+@@@@@@@ ............ OO@@@@@@@@@+@@@@@@@@@@@@@",
"@@@@@@@@@@@@@@@@@++@@@@@@ ............ OO@@@@@@@@@++@@@@@@@@@@@@",
"@@@@@@+@@@@@@@@@@++@@+@@@ ............ XO@@@@@@@@@++@@+@@@@@@@@@",
"@@@@@@+@@@@@@@@@@@+o++@@@ ............ XO@@@@@@@@@@+o++@@@@@@@@@",
"@@@@@@+@+@@@@@@@@@o++o@@@ ............ XO+@@@@@@@@@o++o@@@@@@@@@",
"@@@@@@+@+@@@@@@@@@@oo@@@@              XO+@@@@@@@@@@oo@@@@@@@@@@",
"@@@@@@@@+@@@@@@@@@@@@@@@@@@OOOOOOOOOOOOOO+@@@@@@@@@@@@@@@@@@@@@@",
"@@@@@@@@@@@@@@@@@@@@@@@@@@@OOOOOOOOOOOOOO@@@@@@@@@@@@@@@@@@@@@@@",
"@@@@@@@@@@@@@@@@@@@@@@@@@@@@@@@@@@@@@@@@@@@@@@@@@@@@@@@@@@@@@@@@",
"+@@@@@@@@@@@@@@@@@@@@@@@@@@@@@@@@+@@@@@@@@@@@@@@@@@@@@@@@@@@@@@@",
"@+@@@@@@@@@@@@@@@@@@@@@@@@@@@@@+@@+@@@@@@@@@@@@@@@@@@@@@@@@@@@@@",
"+@@@@@@@@@@@@@@@@@@@@@@@@@@@@@@@@+@@@@@@@@@@@@@@@@@@@@@@@@@@@@@@",
"@@@@@@@@@@@@@@@@@@@@@@@@@@@@@@@@@@@@@@@@@@@@@@@@@@@@@@@@@@@@@@@@",
"@@@@@@@@@@@@@@@@@@@@@@@@@@@@@@@@@@@@@@@@@@@@@@@@@@@@@@@@@@@@@@@@",
"@@@@@@@@@@@@@@@@@@@@@@@@@@@@@@@@@@@@@@@@@@@@@@@@@@@@@@@@@@@@@@@@",
"@@@@@@@@@@o@@@@@@@@@@@@@@@@@@@@@@@@@@@@@@@@o@@@@@@@@@@@@@@@@@@@@",
"@@@@@@@@@o@o@@@@@@@@@@@@@@@@@@@@@@@@@@@@@@o@o@@@@@@@@@@@@@@@@@@@",
"@@@@@@@@@@o@@@@@@@@@@@@@@@@@@@@@@@@@@@@@@@@o@@@@@@@@@@@@@@@@@@@@",
"@@@@@@@@@@@@@@@@@@@@@@@@@+@@@@@@@@@@@@@@@@@@@@@@@@@@@@@@@@+@@@@@",
"@@@@@@@@@@@@@@@@@@@@@@@+@+@@@@@@@@@@@@@@@@@@@@@@@@@@@@@@+@+@@@@@",
"@@@@@@@@@@@@@@@@@@@@@@@+@+@@@@@@@@@@@@@@@@@@@@@@@@@@@@@@+@+@@@@@",
"@@@@@@@@@@@@@@@@@@@@@@@+@@@@@@@@@@@@@@@@@@@@@@@@@@@@@@@@+@@@@@@@",
"@@@@@@@@@@@@@@@@@@@@@@@@@@@@@@@@@@@@@@@@@@@@@@@@@@@@@@@@@@@@@@@@",
"@@@@@@@@@@@@@+@@@@@@@@@@@@@@@@@@@@@@@@@@@@@@@@+@@@@@@@@@@@@@@@@@",
"@@@@@@@@@@@@+@+@@@@@@@@@@@@@@@@@@@@@@@@@@@@@@+@+@@@@@@@@@@@@@@@@",
"@@@@@@@@@@@@@+@@@@@@@@@@@@@@@@@@@@@@@@@@@@@@@@+@@@@@@@@@@@@@@@@@"
};
