/* XPM */
static char *_6e7913e5ebc4834aae0e75fd6da91ca[] = {
/* columns rows colors chars-per-pixel */
"64 64 157 2 ",
"   c #2F2E2C",
".  c #363633",
"X  c #3B3A37",
"o  c #3E3E3A",
"O  c #403F3C",
"+  c #43433E",
"@  c #464641",
"#  c #484744",
"$  c #4B4A45",
"%  c #4E4D49",
"&  c #504F4A",
"*  c #54534D",
"=  c #58574F",
"-  c #58584F",
";  c #555551",
":  c #585752",
">  c #5B5A55",
",  c #5E5E59",
"<  c #605F57",
"1  c #605F59",
"2  c #606056",
"3  c #63635C",
"4  c #68675E",
"5  c #69685F",
"6  c #666660",
"7  c #686761",
"8  c #6C6B63",
"9  c #6F6F68",
"0  c #706F67",
"q  c #706F68",
"w  c #717166",
"e  c #74746A",
"r  c #78776D",
"t  c #7A7A6E",
"y  c #7D7D71",
"u  c #7C7B78",
"i  c #807F74",
"p  c #807E78",
"a  c #838375",
"s  c #898977",
"d  c #83837F",
"f  c #83837D",
"g  c #84837C",
"h  c #87867D",
"j  c #858579",
"k  c #88877E",
"l  c #88877B",
"z  c #888879",
"x  c #89897B",
"c  c #8B8B7B",
"v  c #8B8B7C",
"b  c #89887F",
"n  c #8B8B7E",
"m  c #8C8C7C",
"M  c #8C8C7D",
"N  c #8F8E7F",
"B  c #8B8B7C",
"V  c #908F7E",
"C  c #91917F",
"Z  c #858580",
"A  c #868680",
"S  c #868682",
"D  c #888783",
"F  c #898983",
"G  c #8B8B85",
"H  c #8D8D85",
"J  c #8E8D87",
"K  c #8D8C82",
"L  c #8C8B88",
"P  c #8D8D88",
"I  c #8F8E88",
"U  c #8E8D88",
"Y  c #908F84",
"T  c #908F89",
"R  c #919181",
"E  c #929281",
"W  c #919182",
"Q  c #939383",
"!  c #959483",
"~  c #919086",
"^  c #949484",
"/  c #979784",
"(  c #959486",
")  c #979787",
"_  c #949483",
"`  c #989785",
"'  c #999986",
"]  c #909089",
"[  c #91918B",
"{  c #93928B",
"}  c #91918D",
"|  c #95948C",
" . c #96958D",
".. c #97978D",
"X. c #95958E",
"o. c #97978E",
"O. c #97968E",
"+. c #94938B",
"@. c #98978B",
"#. c #98988F",
"$. c #9C9C8A",
"%. c #979790",
"&. c #969591",
"*. c #989792",
"=. c #989890",
"-. c #9C9C93",
";. c #9D9C94",
":. c #9E9D94",
">. c #9E9E95",
",. c #9F9E95",
"<. c #9F9E97",
"1. c #9F9F97",
"2. c #9C9C93",
"3. c #A09F96",
"4. c #A09F92",
"5. c #A2A28D",
"6. c #A1A095",
"7. c #A0A097",
"8. c #A1A197",
"9. c #A2A297",
"0. c #A5A592",
"q. c #A8A793",
"w. c #AAAA95",
"e. c #A0A098",
"r. c #A1A098",
"t. c #A2A198",
"y. c #A2A298",
"u. c #A4A39A",
"i. c #A4A498",
"p. c #A4A39C",
"a. c #A5A59C",
"s. c #A4A499",
"d. c #A8A89D",
"f. c #A9A99D",
"g. c #AAAA9F",
"h. c #ACAC9B",
"j. c #B0AF9D",
"k. c #B2B29C",
"l. c #AEADA3",
"z. c #AEAEA5",
"x. c #AEADA1",
"c. c #B0AFA2",
"v. c #B3B2A4",
"b. c #B8B6A3",
"n. c #BBBAA4",
"m. c #B7B6AB",
"M. c #B7B7A9",
"N. c #BCBCAC",
"B. c #BFBFB1",
"V. c #C0C0A7",
"C. c #C1C1AF",
"Z. c #C4C3B2",
"A. c #C8C7B5",
"S. c #C9C8B4",
"D. c #C8C7B8",
"F. c #CBCABA",
"G. c #D4D4C0",
/* pixels */
"m.G %.X.u } d Z d [ F d X.8.3.8.,.t.,.[ t.X.X.,.[ X.J =.I #.t.X.p.-.d.X.d [ G Z ,.#.d.[ X.8.d.i.x.a.X.8.#.t.,.z.} I L J =.,.u.h ",
"( 7 8 , , : 6 3 > : : > 8 a j j t a e a w 7 w 4 : 3 7 3 w w y e k j y 7 4 > > 8 4 w a a 8 t y j a y a w t a u 8 > , 6 8 7 i e 7 ",
"j 4 7 , > > 3 > > > > 3 7 y c v ( c a 8 4 4 w 7 3 e w w a a 8 q X.t a 7 4 3 4 4 e j Q j t c j v a y t y u y w 3 , , > 3 3 w w 7 ",
"g : 3 > * > 3 8 4 6 7 9 8 w e v M t e w 7 4 8 4 4 t e w e t 7 3 g i j j e 4 w t j y t t a a j j ( Q a y 7 4 3 : : > > 7 > 8 6 , ",
"y , 6 > > 6 8 3 , 7 8 e 6 , 7 w 7 5 8 8 y 8 w 8 e j a w e y 8 7 Q e c a 8 3 8 e e e j a y a j c M Q a 7 4 3 : , , > , 3 w 8 3 8 ",
"J 7 3 > 6 3 4 3 7 4 y e e e w 7 4 w e j t t y M ! Q Q K ( y e 8 v y a j e 4 3 3 7 t y w e j Q v ( a w 7 3 6 7 , 3 8 3 1 6 8 6 , ",
"F 4 3 6 , , 3 6 , 7 t t 8 y 8 1 e t j a v a ( M c M M ( M e w 8 Y u j $.j 7 3 4 4 e e 8 y M c Q j M t 8 7 7 w 4 4 4 6 3 6 8 7 7 ",
"J 3 e 4 : > , 3 : 4 e y 7 8 7 3 e y a t e a a v m j m M y y t 0 | c Q Q M a t w w 8 w c c ( j ( ' v t a a 4 7 4 3 8 7 4 q , , > ",
"d e 8 : > 3 6 3 3 7 8 6 8 7 4 3 w a a t a y j M c j M Q c a M 0 $.l M M m j a w t e y j $.w.Q c M j a a j y t 4 a t w 8 4 3 , 7 ",
"u 6 7 3 3 , , , , 3 3 4 w 3 6 4 8 y w a c j Q c M v $.Q y y j e K t c c M c c j M c j j 5.' ' ! Q M C j y w c c m v e 8 3 3 7 * ",
"g 7 8 3 8 1 > 3 3 3 , 4 3 3 3 7 w 7 7 a t 8 c Q Q M c j a j ( y 8.j a a c c a j c j M ! ' w.0.$.$.$.$.' Q ( C a M a w 7 6 3 > 3 ",
"y 3 > 3 4 3 6 7 4 3 1 3 > 8 4 4 3 > , , , 7 t Q j a a t j M j t b.$.j e e t t a j M M j $.w.5.5.$.5.w.0.$.$.V c a e e e 8 6 > > ",
"h 4 > 7 , > 6 q 8 3 7 : > 4 4 3 4 > > : 3 8 t y a e t a M a a e h.( ( t a a j c i c ! ( ' 0.q.$.5.w.5.M ' M j a a a e y 4 , , 1 ",
"h 3 , 8 , > : , , 9 8 > > 7 4 7 3 1 : , > , 8 a y t a c c M j e 0.$.j a M M M c a j 5.M ' ' $.$.w.$.' _ M ! a c a a y 7 , > : 4 ",
"k : , 3 : : * > : 4 3 : 3 , 3 4 3 * > : > w e 8 7 t a y c a e 8 h.Q t j c j j y y j c c ! $.$.$.$.' C C M c a a c j e 9 3 : > 3 ",
"1 @ % + o + + + % @ $ @ + # $ : X $ o + # * % @ & o * + : @ # > 4 * > : $ * # * + * 3 : : 3 4 2 - * : * * * @ : * @ * & o o o * ",
"=.,.=.J [ D I =.X.G Z [ 3.X.X.p ,.X.F } =.=.i.A.d.X.,.x.d.-.8.8.v.m.d.8.i.t.8.#.v.N.h.M.A.v.C.#.F.M.N.N.v.v.g.x.-.a.,.=.[ d F h ",
"4 r a t a y q e 8 , > e a g a e 4.8 e e t a ` C w 7 y a c y e j M $.j e t t a c ! c 5.0.$.$.0.M N.w.w.$.0.( 0.a j Q v y 3 3 : , ",
"4 y v j K K 8 8 7 , 4 w a ( K y 0.v y w y $.0.! y e a Q c y Q Q M Q t y t y a m $.0.h.5.5.5.k.Q n.k.w.5.q.$.' ! 5.0.$.y 8 > 1 3 ",
"w 7 t a ( g , > 3 > > 8 t M M v h.M c c y a M $.m j j j j a C M l c t e j y C ! q.q.' $.( 5.$.M F.q.$.w.h.' ' ( ( 0.$.a w 8 8 3 ",
"4 6 w c v w > 7 4 7 7 e a c 0.y h.$.M t t y $.5.k.! y a c a c C a M y a c C ( $.5.( ' $.! 5.0.M n.w.k.n.w.q.( j M ( ' i e w 8 3 ",
"3 7 t e a j y e w e 7 e t ( Q a h.Q e a c ( 0.k.k.y e c M a ! $.$.c c a 5.0.5.5.' $.C ' $.C $.j N.$.k.0.$.! ! c c j Q c a j 7 > ",
"8 e w e a a a j e e 8 8 t ( c 7 | y t j a M 0.q.k.a y c j j ( $.$.t v Q c $.$.( ' ( ' $.! ' 0.j M.w.w.k.$.' Q Q ! j ! a e j 7 4 ",
"7 4 8 t j t i Q a t y w e Q 8 > j 8 8 y a c 5.q.q.j a t a y j ( M Q ! Q M j ! C ' ! ' 5.$./ 5.a b.h.b.5.5.! ( M c m t w y u 7 3 ",
"4 6 3 y y r y a a a j w y j 8 3 g e a a e c ' w.k.Q j y j M c ' Q M j M c t M ' ' 5.$.$.( $.5.K n.k.0.q.0.' ' C ' c M M a w 7 > ",
"3 > > 4 w 8 w c M a r 0 t c c w F a t e t a Q w.w.' a c ' 5.h.w.( Q M y e c $.M Q j Q Q $.0.' Q C.$.5.b.0.' M ( $.' $.M 8 8 4 3 ",
"> 3 , 6 4 4 7 w t e 4 7 8 a ' r 0.! y j t j ! $.M a j M ( $.! j a j B y t c a y a j M 5.0.C $.v D.0.0.w.w.C Q 5.' $.v t 8 7 3 : ",
"4 4 6 4 , , 3 6 w 8 7 8 e C ! y h.c B a a $.w.$.a e c M Q ( c c a c l t e t a e t a s ! ! 5.5.i v.h.5.5.' Q $.5.5.$.M 4 3 3 > , ",
"3 > > 3 , : : > , 7 0 8 t ! ( 8 k.5.Q c a ! 5.j y e a j a Q M a a ( c y t y e e t C m C $.' ' a N.w.0.$.$.M ' ' $.' j 3 3 4 4 4 ",
"* * : > > * % $ : 7 0 t ! m $.y n.$.! a e c $.M t e j y y Q ! Q C a t j j a t t j Q M m ' C Q v N.k.$.M M c m C 5.C M e 4 6 6 3 ",
": > , 1 : ; ; % : 7 a C ! ! ! e v.! C a a Q 0.h.$.a y w v Q M j a a y j j j j c t m j j M $.0.a N.' ( Q m Q M C $.M j 7 4 3 , , ",
". + @ o # X o   + @ : * > $ 3 8 e 3 < 5 * - * 4 3 % # # 1 7 * : @ > * : 3 : * * > $ * = - 3 = 1 8 : 4 4 3 > < * > < > + @ @ : # ",
",.} g I d J g d X.,.c.M.v.C.A.b.N.x.B.A.A.N.Z.v.Z.#.=.i.v.m.h.[ Z.d.v.N.x.d.v.x.d.h.v.b.M.F.A.N.C.A.Z.N.Z.B.M.i.v.m.x.} J 2.} y ",
"y 3 3 3 3 8 e y j j M $.0.5.` ' ( ( 0.b.0.5.$.k.q.! Q Q M c M t 0.$.$.a r v y e a M $.$.k.5.k.q.k.k.k.w.q.5.c M $.w.M w u 8 7 6 ",
"| 8 i w 8 e c y a M 0.$.$.$.5.$.' ! q.w.` h.h.$._ ( M a c Q M e $.c Q $.$.a t t a c 5.$.k.k.q.n.b.k.w.w.h.$.w.( $.h.( Q y e 8 7 ",
"#.t t t e t a a Y a c c Q c C 5.C w.5.Q ( Q 0.j t 8 t t y t y 8 $.a a 5.m c C j j ( w.b.n.k.k.k.5.k.w.5.5.w.w.0.$.$.' c j v c r ",
"h.t c a t e a y t M j i t y j ! ! C 0.! Q c w.' e 8 e a j a w 3 | t Q 5.M Q 5.Q ( 5.h.h.w.k.k.0.' h.' ' 5.q.! c j a c a M 5.0.M ",
"h.c M c M c m 8 t K e 0 5 t t M M j j Q Q c $.5.M t t y j M t r 4.c j ! j t Q ' 5.0.q.h.0.5.Q a t a m M ! c a c a a t t a C V a ",
"M.( c C ! j t 8 w t 0 8 w y j c t 7 a _ j t t ' a M m M ! M y 0 0.c M t a j a ! $.0.' 5.5.c t 4 w w e ( $.M a M y a t 5 y M C j ",
"v.m ! C c a w t a e w 8 w t y r w 7 w t j e 7 4 8 c ' 5.' j 8 > K t e w t j M ( $.M m Q C a e 4 t t j j a j j t y m j j c ! $.M ",
"k.5.' j ( c e e e 8 7 7 w t e w w w 4 8 w 4 3 w w t ! ' c t t 6 F y t y a 0.$.0.' a Q M ( w e t t e y t t t a a a Q j s M ' ' y ",
"h.5.5.! ( a j y 8 w 8 w t e e w w w 4 8 8 > 4 4 3 w y ' C t e : h 3 y j $.( Q c M C Q Q y 8 8 y t 8 t e a a y j M C m c j M c w ",
"v.' ' C ( c c e 8 w e w w e j y y t w < 3 > 3 e 8 e t e t t t 7 h 7 3 9 t y 8 4 7 8 7 8 7 8 y a t w t y j t a a M c M a c ( C a ",
"n.w.! ' ) j t 8 6 e w 4 8 8 w j j e 4 > > , 6 w w w 4 3 8 j M e 0.8 6 4 , > , > > 3 , w a y y j y e y t e e e c m m c c $.5.5.j ",
"Z.w.0.( $.( u 7 3 8 w 7 w 4 y ( j t 7 > 8 7 3 , 4 w 4 4 3 t c u x.8 , > 3 , 3 4 4 4 6 w e t j v y w w t a t t j c M ! ! 0.! 0.e ",
"Z.V.$.k.0.$.8 4 , 7 t e w 8 a v K e 4 w w 8 6 3 3 4 7 > : > 3 e Y 7 3 3 , 3 7 e t a w 8 4 e j j e w e e t t t s j t c $.! c V M ",
"S.w.k.0.( a 8 : : 0 w e w w j M w w r 7 4 3 7 7 8 6 > * % > , 3 T 6 > 4 > 4 8 t a j t 7 8 y j a t y r M c t t ! Q M B ! C c C Q ",
"e 8 7 : 3 * $ + # + * : * # 3 : $ @ # # $ + % * @ @ O . . @ o : , @ > @ * * # $ * * & @ : * : * @ $ * @ $ * * * 3 * * * * * 5 7 ",
"D.A.Z.B.d.d.[ T G ,.X.m.t.=.a.K Z.=.o.,.[ x.d.+.[ J g g D Z u y Z %.[ *.X.=.X.t.[ ,.t.d.=.8.d.k x.-.i.8.x.x.x.N.v.8.h.b.Z.B.A.C.",
"k.k.0.5.( t 8 4 8 , w t j t a y | j j Q | a 8 4 4 7 > > : > ; , 3 3 8 3 8 8 y a a w j y w j e e K w a M c c $.( M M m 0.0.$.h.k.",
"0.! ( $.M e 6 8 , 3 7 w y y c g h.c j $.v r 8 e 3 , 1 3 : , , > > 6 8 , 7 8 t a t w j y u y y w -.w j j c M 5.w.! M Q h.h.b.w.0.",
"Q $.( ! c w w 3 3 3 e j a e j j M.' M u a w w 6 4 , > , 3 , : 3 > 3 > 3 7 9 e t j t a K e c Q t v.r 8 y a c $.0.' $.5.k.h.q.$.0.",
"! Q c $.Q y 3 3 , 3 y c a v $.a M.$.( y w 7 4 3 3 3 , 7 3 : > > > > : 6 w 8 y a y w c a y Q c i h.a t j M $.5.w.q.k.q.5.5.' C V ",
"$.5.$.' ( w , > 7 7 t 8 a v l y C.Q j y w 3 3 8 4 , 3 , : 6 , , ; ; > 3 6 y t t w w a a w y M w 0.w 8 8 y ( $.5.w.$.$.w.0.! c ' ",
"! ' 5.! c t 3 8 , 8 e e e v Y a x.Q c y 8 4 4 7 4 > > > 3 4 8 > * > , 3 3 t e 8 8 e t t j a a a 4.c y 7 y j y j a a ! K a c a C ",
"Q c y v y e 7 3 3 4 8 y y j ( t i.Q M g t 3 6 7 6 3 > : > 8 3 , 3 : : , 7 4 3 7 3 w a ^ v a j t N.v 8 y c v y w t w j j j j s M ",
"M 8 e y w e 6 3 6 3 8 j a Q Q j 0.Q ( e 8 5 4 w 4 > > 3 8 w 7 8 3 * > 3 , : 3 8 4 w v c y e Q i j.e e t v y y 8 8 e u e 4 0 t t ",
"3 7 e e u 3 , 6 6 7 7 7 e a c y b.$.c u e 3 8 8 4 3 4 w w e 7 w 4 : 3 3 > > 7 e y j Q t w w a r #.j e c y a l y w i t e 4 > $ > ",
"> , 4 e 7 3 6 8 w > 4 e l y M e h.j y y e 3 4 8 e 7 7 w e e 6 3 3 1 : 4 > , 7 t y a j w y y t 8 -.y w j a c c c c y 7 7 3 % * : ",
"> 3 7 3 7 8 w w 9 3 w j $.u a e -.c v 8 5 4 w y 8 7 5 8 y 7 7 6 6 4 , 6 3 3 w 0 t w t t a t e 8 i.j e e e w K ' Q 8 3 * : > > > ",
", > * > 3 7 8 7 8 , 7 j j e e e | a t 8 8 w 8 8 3 3 8 w 7 8 7 > 8 e > 3 3 8 w e w t y e e y a e $.j a a t y j Q y 3 : : , 3 , : ",
"4 > 3 > 6 8 3 8 , 4 w y y 8 5 q { e 7 8 8 w 7 4 8 8 w 7 w e 3 7 7 8 , 3 4 4 w e t w e w w e M 8 $.j K l e l y t e 6 : * 7 > : 4 ",
"e 4 3 3 8 3 3 7 > 4 8 y e 4 0 7 K w 8 4 7 3 4 7 w 5 w 4 e w w e 6 e 7 3 : 3 3 8 8 w w 8 7 y t t 0.j ( t a j y w 8 3 > 3 8 > > e ",
"+ @ X @ X + @ X X @ & + + # @ , 4 : * * + * * * # * $ @ $ $ > * @ + $ @ + o % $ $ & * * + + # 4 0 < 3 * > @ * @ : & X % + * : * "
};
