/* XPM */
static char *d0422a624aeb4b83e27cf0853aaef73dYKRXkfI3k53QEQQw[] = {
/* columns rows colors chars-per-pixel */
"64 64 172 2 ",
"   c #131316",
".  c #171619",
"X  c #18171A",
"o  c #1C1A1D",
"O  c #211D1F",
"+  c #1E1D21",
"@  c #211E22",
"#  c #1F2129",
"$  c #242225",
"%  c #26242A",
"&  c #29262A",
"*  c #2C292E",
"=  c #302C2E",
"-  c #2E2C32",
";  c #2F2E38",
":  c #312E34",
">  c #302F38",
",  c #2F303C",
"<  c #343136",
"1  c #383437",
"2  c #35333A",
"3  c #3B373E",
"4  c #3A363D",
"5  c #3C373C",
"6  c #3C373D",
"7  c #39363C",
"8  c #3B383D",
"9  c #3B383E",
"0  c #3B383F",
"q  c #3B393F",
"w  c #3C383C",
"e  c #3C383D",
"r  c #3D383D",
"t  c #3D393D",
"y  c #3F393D",
"u  c #3C383E",
"i  c #3D383E",
"p  c #3C393E",
"a  c #3D393E",
"s  c #3C383F",
"d  c #3C393F",
"f  c #3D393F",
"g  c #3E393E",
"h  c #3F393E",
"j  c #3E393F",
"k  c #3F3A3E",
"l  c #3E3A3F",
"z  c #3F3A3F",
"x  c #3D393E",
"c  c #40393B",
"v  c #40393C",
"b  c #403B3F",
"n  c #413B3F",
"m  c #403B3E",
"M  c #363640",
"N  c #373641",
"B  c #363641",
"V  c #393740",
"C  c #3A3740",
"Z  c #383740",
"A  c #393841",
"S  c #3B3940",
"D  c #3A3841",
"F  c #3B3A42",
"G  c #3C3940",
"H  c #3D3940",
"J  c #3D3A40",
"K  c #3C3A41",
"L  c #3D3A41",
"P  c #3E3A40",
"I  c #3F3A40",
"U  c #3F3B40",
"Y  c #3E3A41",
"T  c #3E3B41",
"R  c #3F3B41",
"E  c #3C3A42",
"W  c #3C3A43",
"Q  c #3D3B43",
"!  c #3F3B42",
"~  c #3E3B43",
"^  c #3F3C44",
"/  c #3F3C45",
"(  c #3D3A42",
")  c #3F3E49",
"_  c #403B40",
"`  c #403B41",
"'  c #413B41",
"]  c #403B42",
"[  c #413C40",
"{  c #403C41",
"}  c #413C41",
"|  c #423C40",
" . c #433D40",
".. c #423C41",
"X. c #403C42",
"o. c #413C42",
"O. c #413D42",
"+. c #403C43",
"@. c #413D43",
"#. c #423D42",
"$. c #433D42",
"%. c #433E43",
"&. c #443E42",
"*. c #443F43",
"=. c #403C44",
"-. c #403D44",
";. c #413D44",
":. c #403D45",
">. c #413E44",
",. c #423E44",
"<. c #433E44",
"1. c #423E45",
"2. c #433F45",
"3. c #403D47",
"4. c #423E46",
"5. c #423F46",
"6. c #433F46",
"7. c #423F47",
"8. c #443E44",
"9. c #443F44",
"0. c #453F44",
"q. c #453F45",
"w. c #423D43",
"e. c #423F49",
"r. c #434047",
"t. c #454044",
"y. c #464044",
"u. c #464045",
"i. c #444046",
"p. c #454046",
"a. c #464146",
"s. c #474146",
"d. c #474147",
"f. c #464046",
"g. c #484247",
"h. c #494347",
"j. c #494246",
"k. c #444148",
"l. c #454148",
"z. c #454149",
"x. c #474248",
"c. c #474249",
"v. c #44414A",
"b. c #45424A",
"n. c #484248",
"m. c #484249",
"M. c #484349",
"N. c #484348",
"B. c #48434A",
"V. c #4B4549",
"C. c #4B4448",
"Z. c #49444B",
"A. c #4A444A",
"S. c #4C4548",
"D. c #49454D",
"F. c #4A454B",
"G. c #4E494F",
"H. c #4E484E",
"J. c #504749",
"K. c #51494E",
"L. c #474550",
"P. c #4B4750",
"I. c #4D4951",
"U. c #504A51",
"Y. c #524C53",
"T. c #584F52",
"R. c #534E59",
"E. c #575157",
"W. c #5A5156",
"Q. c #56515A",
"!. c #5D555A",
"~. c #61575B",
/* pixels */
"V 4 4 o.p.p.z p.h.o.-.c.r.B r.K r -.p.-.< V.U.D.I.U.c.-.c.c.^ Q b.Q -.-.K 4 0 4 o.w w h.b 7 7 7 r 2 4 H r r V.T H -.-.S.p.o.r - ",
"4 2 : 7 r 7 2 w o.r 0 2 2 2 r 2 2 7 2 2 $ -.-.-.-.-.K Q B 2 2 2 4 4 2 1 2 2 < 2 w : < w 2 : : < < < 7 < : 2 4 2 2 r 7 4 0 7 < @ ",
"o.< < r r ; 2 *.T 2 2 4 0 7 2 2 2 7 r 2 $ p.-.h.c.e.Q V 2 2 4 4 -.H o.0 r 2 4 r 2 * < 2 7 2 < 1 m w 7 < : : ; < 2 2 2 r o.7 7 $ ",
"-.2 2 7 r 2 o.o.T 7 2 4 7 0 2 4 o.r r r $ -.p.B.B.c.V M H H -.H 8.H 0 0 2 0 r 0 w - < T 7 2 0 r r 2 7 2 - * : c 7 4 b p.0 4 7 $ ",
"4 2 2 7 7 7 5 2 2 2 o.r 0 7 7 r 5 2 2 2 $ -.c.V.B.V V M -.8.S.8.o.p.r.p.T T o.0 w : - 2 0 2 7 2 4 2 ; < - - c w 2 7 r T T r 2 $ ",
"H 4 7 2 2 2 2 w 2 0 r T 2 2 4 7 < 7 2 7 $ o.o.-.-.Q V q.p.-.S.Q V.V.-.c.H o.o.4 r < - 2 w 2 z 2 < < < ; - 1 7 w r 2 7 o.0 r 2 + ",
"-.r 0 0 7 w 7 2 2 r 0 2 r r 0 2 5 2 < < + H T o.Q > 2 V H H Q -.H ^ M 2 2 T 2 4 r & - 0 2 1 w < : ; : - : 7 7 w 0 < w r o.2 < $ ",
"p.r 2 0 r r w m w r 4 r r r 7 7 b 7 2 1 $ o.T 4 V V > 2 H 4 V H 2 K 2 H K 2 2 0 2 * * , 2 2 w ; ; - & - < < < 1 2 2 7 0 o.r 7 $ ",
"p.0 r p.r o.p.o.o.0 7 r r T r r H 2 0 < + 0 4 0 , 2 r 4 0 2 < 2 K 4 H H 2 T o.0 0 * & 0 1 2 w 2 : : : < < < 1 1 7 < w w *.m 7 % ",
"c.H p.^ 4 o.o.H 2 7 2 0 r T K r 0 r 7 < $ 2 2 ; 2 r 0 0 1 , < m K 0 ' -.2 r o.T r & * T ; 1 z 7 2 : 1 : 1 2 : 7 7 7 7 o.m o.w % ",
"Q K H 2 0 0 2 2 4 4 7 o.p.H T r H r 0 2 o 7 2 < 2 7 2 2 2 w 7 w T K o.0 H o.T 0 2 # * 2 2 2 ; - * - * : < : - < < < 2 2 7 o.r $ ",
"^ H V 2 2 4 7 0 o.0 4 r r 2 0 0 2 2 2 < $ 7 w < < < < < < ; 7 z 4 2 4 r r -.2 , , & & < < 2 1 < - - - : : : - = - < r r m r < % ",
"K 2 2 T 0 m y.b H 2 2 1 7 2 < 2 7 2 < 2 o < 2 0 2 ; < : - < 2 7 < ; 2 2 2 7 - ; 2 & % < < < < - - : : : = : & * < 5 r m 4 2 7 $ ",
"2 2 2 H r 0 o.0 ; 2 < w r 0 2 < 2 2 < : # 7 2 2 < & ; & * < < - - & : < < < - 2 < & % 1 1 ; < - - * * : = * & < 1 w 7 r : 7 - o ",
"2 < < < 2 < - < < 1 < < < ; & - = & * * o < : & # $ % % % % & % # % : & & & % - * $ $ - & < < * * % = % * & * & * = - & * - = $ ",
"& $ o $ $ o o o $ o X o + o X o o o o o o & o . . . o . . X .     o o o o o X o o o & $ o o o o o o X o     O o o o o o o @ o + ",
"T p.T r.T 2 K T *.2 1 p.8.V 0 r 2 0 w o.2 2 2 2 2 < < : - - % + - 1 5 4 5 5 5 5 *.H H *.y.o.o.r 2 v v v = r r w 2 7 < 7 m H o.H ",
"2 7 r 2 2 4 r z 5 : : ' 2 2 < < ; < 7 4 2 : : : - & & * & % $ . * : : - : : : 5 *.7 r r w 7 0 2 : : 4 : o < 2 < < : : : < 7 7 2 ",
"w z r z o.o.o.0 8.: 5 q.r 4 4 2 : < r 7 7 2 2 < < - * & % % $ . = : < 1 1 1 7 w r 7 4 r r o.o.r 7 : : - + r 2 < - - : < w 7 2 2 ",
"r m t.p.h.H 0 m 8.< r b.H -.H 2 < w w w 2 w b 7 - < - & & & % o = : - 1 5 5 b y.r 4 4 r o.o.T K 2 > : : + 7 < : - - < < 7 7 0 r ",
"K.S.h.K.S.H T p.H 1 2 q.q.Q 2 H 7 7 ; < 2 r 4 2 < < - * * * $ . = = * : b r *.o.H 0 4 4 T o.0 H C 5 2 < @ : : < * : : 1 5 b b r ",
"S.h.S.K.c.p.-.p.' 1 1 D.q.K -.H 0 0 < < < 7 2 : - - - - & & & o * = = 7 r r o.4 4 2 0 ' z T 0 H 4 4 7 < O 2 < ; : : : 1 5 b r j.",
"V.F.Y.K.Y.F.K.H.8.5 ' D.b.-.-.-.2 2 < 7 7 7 ; ; ; - - - & & % . * * : 1 7 5 H 8.o.*.y.r r 0 0 K 2 2 > 2 @ r 7 : : * < 1 &.*.h.S.",
"h.Y.~.Y.Y.K.Y.Y.A.5 4 D.e.W -.M ; < < < 1 ; - < & : - - & & % . * = = : 5 b *.o.o.p.o.0 z 4 0 K V 2 7 5 @ 4 2 < : : 1 5 b h.p.h.",
"K.K.E.I.Q.Y.I.I.Z.2 2 ^ ^ e.-.2 ; 7 < < 2 : : : : - * : - % $ . * % * = v v ..8.^ -.H -.H ' r r 4 r m 2 + 7 < < < : 7 7 m *.S.h.",
"K.K.T.Y.R.I.Y.D.r.; 2 r.e.^ V 2 2 2 : < < < < < - : < * & $ $ o % & & 1 7 v *.$.H H H ^ -.H r ' r *.o.2 + 7 2 2 < 2 7 < c *.A.F.",
"D.I.Y.P.b.P.Y.D.D.7 2 c.K Q B 2 2 < 2 < : 7 < : < < 1 < : & $ X * * = c b C.A.q.' Q 8.h.-.p.p.*.-.o.2 4 $ r 7 2 < : : 5 o.8.h.8.",
"B.D.L.b.P.P.Q.Y.I.2 -.r.Q K K 2 2 ; < < < < : 7 1 1 < 1 1 * & o : * : 1 5 8.8.H K -.o.-.B.S.B.B.-.H 2 w % H 2 2 < : 4 m b o.h.B.",
"K -.B.B.D.H.b.e.c.2 2 ) W K 2 4 4 2 < < < < c r w 5 c 5 7 : * o : = : : 5 7 2 2 7 ' 4 o.B.D.V.e.H 2 K 2 $ 0 r < - < : 1 7 5 *.' ",
"5 -.C.h.B.c.H.p.-.< 2 c.^ 2 ; 7 ; - < ; < 1 c c b w 2 7 1 : * + 1 & = 1 : 1 1 2 5 7 o.o.h.8.c.-.H 4 2 7 $ o.4 ; : : : 1 7 b H o.",
"2 j.r j.o.*.o.o.V.: < -.2 2 ; - : & * * = < < 1 : - : 1 - - & X : @ & & * : - - * < 5 *.r ' r 4 > 2 : 7 $ 4 < : * = : < 1 1 w 7 ",
"@ & & * * * & = * % r & + $ + o @ o o o o o o O O @ @ O o X   + @   X o X . . X o O o $ $ $ $ + + + + @ + : @ o $ o O O O $ O o ",
"I.T.E.!.Q.R.~.~.R.R.I.L.D.c.c.c.r.4 H 7 * y.o.o.-.p.T -.2 2 2 2 2 5 5 : : : : 1 n n c H.V.b.e.W ^ ^ e.F.c.Q r.c.Q -.S.S.p.B.p.< ",
"Z.S.H.F.b.I.Q.I.P.L.L.b.W -.K -.4 2 w < $ r 0 r r 2 4 2 2 < : < : : : * * * - : 1 * < o.T ^ K 4 H V H H V K V H 7 H *.0 r H < % ",
"V.c.K.U.Y.E.Y.P.P.I.L.W B B W Q 2 r T < O m H 4 0 4 H 4 2 4 < - : : : - * = * 1 < * 1 p.-.Q B -.T 0 0 0 4 2 T r p.o.o.T H r 7 $ ",
"F.F.I.I.L.T.Q.Y.) e.L.B W H 2 -.2 -.T ; + r 2 < 2 H 8.H 2 2 < ; : 2 : * : : : : 1 = 7 p.p.K -.T H H H T K 2 r T h.o.-.o.H o.1 & ",
"F.p.D.F.T.!.R.I.L.L.) B W H -.-.K H 2 2 @ 2 : b *.o.H 4 H 4 2 2 - : - - : 1 < 1 1 * : H K H e.W T r.-.T 4 4 h.o.V.-.r.V.T p.2 & ",
"D.-.B.Y.E.Y.I.L.I.) B e.-.-.Q H H H 4 2 @ < 7 *.o.r 4 0 H 2 2 < : : * = : : : 1 < & * r 4 K V > 0 H K 2 0 o.m p.S.c.H.^ c.H < & ",
"c.8.V.D.F.L.b.I.) ) e.e.-.-.-.p.T o.0 0 & 7 m S.8.-.H o.-.2 2 < : : = : < : : : : * : 2 > 2 M ; 2 2 ; 2 o.H o.h.V.-.^ W T r ; & ",
"c.8.D.F.U.U.R.I.b.) Q -.H p.-.^ -.T H o.$ o.h.T -.H T K 2 2 < : : : : < 1 1 : 1 1 = : 2 : 2 - * ; - < 0 4 H p.S.B.^ K K K r - & ",
"^ -.c.c.b.U.I.b.P.B B V H H -.p.p.T o.T & o.o.t.Q H V B > 2 7 7 1 1 : 2 1 < 7 w 1 = : < - : : - - : 7 < H J.K.c.c.-.H -.c.2 4 % ",
"-.o.8.B.F.I.I.T.v.M ) V T 8.D.r.H p.p.o.% o.T H -.K 4 2 2 ' o.0 2 2 1 : 1 1 w 2 7 & - ; * 1 2 - : 1 < b h.S.S.B.Q B.-.H H 4 2 $ ",
"S.h.S.K.Y.I.T.L.) W 2 0 H -.H 2 H T T H $ o.^ T H H K r 4 b H 2 2 4 > 7 < < 7 < < * * : : - : : : : : 1 *.8.^ ^ K -.V -.2 H 1 % ",
"c.B.F.K.K.E.Y.P.) B K -.H ^ -.H r.T o.H $ r.-.0 4 V 4 *.' o.o.4 1 7 1 5 5 1 7 2 < & - 2 - * : : < < : 5 *.o.8.p.Q -.C H H 4 1 $ ",
"c.8.c.c.T.Y.P.e.W ^ K K p.o.T -.o.-.H 4 + H K 2 4 4 H 8.H 4 2 2 2 4 2 7 1 1 b 7 2 & % - - - : : : = 1 b ' *.4 -.-.H ' o.V 4 : & ",
"' o.h.B.I.q.b.e.W K ; K r 2 o.r 8.h.V 2 $ T B 2 1 &.' r 2 2 > < : > 1 1 2 5 ' 5 7 $ & < * * - : = : 1 c 7 7 r ' H H -.4 H 4 7 $ ",
"S.*.-.*.2 4 8.H , 2 : 1 < ; 2 < 7 7 2 < @ r 2 - : 1 < 2 2 - : * : : : 1 : 1 : : - + % : * * % * : = = : : < - - 2 : 1 5 < 1 : $ ",
"1 & % * + % & % + + o + o $ o + @ @ + + o 2 @ @ @ $ $ $ @ @ @ . O o $ $ $ @ O o o o * @ X o X X o o O O o X o @ @ @ @ $ & @ @ * ",
"!.Y.Y.b.r.Y.Y.L.e.K V e.B V o.H p.p.c.e.-.V.F.B.B.c.F.c.c.q.Q : c.S.V.K.-.Q K K 2 z r T 0 7 < < b *.r r : 4 H p.p.V.H.Z.c.V.D.I.",
"q.D.e.B ^ c.D.r.H ; : K 2 2 2 r ' H r 4 o.-.8.' r o.-.8.K H ' & B.o.8.V H V 4 r 7 7 7 w < ; & : 1 < < 7 @ 2 7 r o.8.o.-.-.p.p.p.",
"c.c.q.b.c.c.I.K Q ; : V 4 o.H r -.r 4 ' B.B.V.B.h.h.V.c.-.-.2 & Q H H Q Q H T 2 w 0 7 2 2 < : : : 7 r r $ 5 *.o.o.T -.-.H H B.c.",
"Q D.D.r.c.c.c.e.K - : Q r o.p.-.H 4 *.K.K.S.K.U.T.W.Y.c.^ Q 2 + B 4 K 4 -.-.H -.o.r z o.0 2 < - < w 7 5 $ o.*.p.p.8.^ H -.p.F.-.",
"e.V.U.Q Q Q e.K 2 * < B K H V.-.' H -.K.F.Y.U.E.E.H.P.D.c.-.2 % H 5 -.p.8.o.-.T H 0 T H 2 2 ; < 1 5 r r & S.V.-.-.H 4 r -.c.-.-.",
"c.c.e.) Q V -.V 2 : : o.r h.S.T H h.8.K.Y.I.T.T.U.I.I.P.b.K 2 + 4 4 o.8.h.-.H o.T 2 4 4 2 2 2 < 1 c 5 5 % p.c.r.-.K ^ o.H H V -.",
"H K Q W B =.=.H K - < B.p.S.V.-.8.K.S.S.D.D.U.I.Y.P.L.D.v.M ; @ ' r *.h.H -.B K 2 2 0 T 2 2 < - : 2 < 7 $ p.o.^ p.p.c.V 2 4 H H ",
"-.4 V 2 K Q 8.8.r : 5 V.V.c.c.F.B.K.U.B.Y.B.c.D.D.b.D.) W W 2 @ -.r *.-.p.-.-.^ 2 r o.2 2 < - - : 1 < < o H T T Q -.Q K H H o.-.",
"0 0 o.o.o.H 8.T 4 - 7 c.p.K.c.H.U.D.K.G.F.c.F.U.b.U.P.D.b.q.4 $ B.o.B.h.' ^ V K V r 2 2 2 : : < : < : < + r 0 H 8.-.K V V V 4 K ",
"0 H T T -.^ H H 4 < < B.S.V.D.D.D.I.D.D.I.e.I.c.b.b.D.Y.P.V.o.& S.h.Q =.H K K 2 2 ' H 2 2 ; - - : 1 1 < $ r r T -.H H 4 ' 4 H 5 ",
"o.r T H T K o.K 2 : w V.-.Q V.F.D.r.c.D.D.-.e.c.c.D.I.v.v.c.V % c.H Q =.K B 2 K 4 4 2 : ; - - < 1 1 1 1 $ r H o.' 2 K H 4 H H H ",
"T 0 o.H H 2 2 2 2 - 5 8.Q B.-.I.b.b.e.e.K.I.D.e.c.U.D.r.c.) ' % ^ -.Q -.V 2 2 2 > : ; 2 < - : 1 7 1 < 1 @ 0 H r V K H H 4 4 V 4 ",
"m o.o.4 2 2 4 r 7 - - H V S.V.c.Q Q e.c.e.e.e.Q q.c.Q e.Q Q 2 % c.V K H V r 5 5 2 : < 1 : 1 : 1 : 1 5 b $ 0 r 2 2 4 4 4 4 2 2 H ",
"o.r T 2 : 7 r 2 7 * - r ' H -.B 4 K K K K Q 8.K ^ -.V B 4 ' C & ) K 2 2 r H 4 > : 1 7 : 1 b 5 < 1 5 1 7 + 2 2 < 7 2 7 5 r 2 < r ",
"; - - - : - : - : & : 5 1 2 1 ; < < 2 2 4 5 2 4 2 4 2 5 2 2 ; + 2 2 > : 2 : < - * : = : : * * : : : = * o < : : < < < - - - < < ",
"o o o o o o @ O O O * & $ @ + + @ + + @ o @ $ $ $ $ $ @ @ + + @ - + + o + + + o o o   o o O o X o + X X o - o $ o o + O O $ O X "
};
