/* XPM */
static char *_d364c87a1ff4edc9602df8040d1ae49A3HECMb6CDX7mpqT[] = {
/* columns rows colors chars-per-pixel */
"64 64 136 2 ",
"   c #202020",
".  c #2D2C2B",
"X  c #322F2C",
"o  c #35322E",
"O  c #363432",
"+  c #393632",
"@  c #3D3936",
"#  c #3C3C3C",
"$  c #413D3A",
"%  c #45413D",
"&  c #48433F",
"*  c #434343",
"=  c #4C4743",
"-  c #4D4945",
";  c #4B4B4B",
":  c #514B45",
">  c #554F49",
",  c #56524C",
"<  c #545454",
"1  c #5C5650",
"2  c #5F5954",
"3  c #5C5C5C",
"4  c #615B55",
"5  c #645E58",
"6  c #65615C",
"7  c #6B655E",
"8  c #646464",
"9  c #696562",
"0  c #6E6A65",
"q  c #6C6C6C",
"w  c #726C65",
"e  c #716E69",
"r  c #75726E",
"t  c #747474",
"y  c #7A7672",
"u  c #7D7976",
"i  c #7C7C7C",
"p  c #817C76",
"a  c #827E7A",
"s  c #85817D",
"d  c #88847E",
"f  c #878480",
"g  c #848484",
"h  c gray52",
"j  c #868686",
"k  c gray53",
"l  c #838383",
"z  c #888480",
"x  c #898580",
"c  c #888481",
"v  c #898481",
"b  c #898581",
"n  c #8A8581",
"m  c #898682",
"M  c #8A8682",
"N  c #8B8782",
"B  c #8A8683",
"V  c #8A8783",
"C  c #8B8783",
"Z  c #8C8783",
"A  c #8A8682",
"S  c #8C8883",
"D  c #8B8884",
"F  c #8C8884",
"G  c #8C8985",
"H  c #8D8985",
"J  c #8E8985",
"K  c #8E8A86",
"L  c #8E8A87",
"P  c #8E8B87",
"I  c #8F8B87",
"U  c #8D8985",
"Y  c #888888",
"T  c #898989",
"R  c gray54",
"E  c #8B8B8B",
"W  c gray55",
"Q  c #8D8D8D",
"!  c #8E8E8E",
"~  c gray56",
"^  c #8B8B8B",
"/  c #918B84",
"(  c #908B87",
")  c #908C87",
"_  c #918C88",
"`  c #918D88",
"'  c #908D89",
"]  c #918D89",
"[  c #928D89",
"{  c #928E89",
"}  c #918D8A",
"|  c #928E8A",
" . c #938F8B",
".. c #938F8C",
"X. c #918D89",
"o. c #94908B",
"O. c #94908C",
"+. c #95918C",
"@. c #95918D",
"#. c #96928D",
"$. c #98938F",
"%. c #98938E",
"&. c #909090",
"*. c gray57",
"=. c #929292",
"-. c #939393",
";. c gray58",
":. c #959595",
">. c gray59",
",. c #979797",
"<. c #939393",
"1. c #989490",
"2. c #999591",
"3. c #9A9692",
"4. c #999591",
"5. c #9C9893",
"6. c #9D9993",
"7. c #9F9B96",
"8. c #9D9995",
"9. c #989898",
"0. c #9A9A9A",
"q. c #9B9B9B",
"w. c #9D9D9D",
"e. c gray62",
"r. c #9F9F9F",
"t. c #9A9A9A",
"y. c #A39E9A",
"u. c #A6A29E",
"i. c #A0A0A0",
"p. c #A2A2A2",
"a. c gray64",
"s. c #A2A2A2",
"d. c #AAA6A2",
"f. c #AFAAA6",
"g. c gray68",
"h. c #AAAAAA",
/* pixels */
"a d G ..G ' I m @.G c 2.m 2. .d.f.y.6...a d i N ( $.a r a c y 6 ( 2.' I ..G y s u c c I t m y a k m a y c c O.' @.G f q m r y 1 ",
"a ~ &.&.^ ~ &.&.&...i i :.q.:.g.,.9.&.T l T g k l k e t i T 8 = k I T ^ ,.Q k t h Y i Q g e i t i k k ..,.;.&.0.9.;.T h i i ; $ ",
"u ~ i k l i T ~ &.&.t g ~ &.9.;.~ :.~ &.i ~ k l i t q t t T ; = s s i l ~ i T i t h g i g t t q t t g T ~ &.&.,.;.T c i i t * $ ",
"s T ~ ;.T Y &.k ^ ~ 8 i &.9.e.&.9.l Y &.i Y ~ T T l q &.i l < = d k g ~ &.i ;.l i Y Y t t i g i Y ^ i ;.&.&.~ ,.e.:.i g i t ; $ ",
"f :.&.T i i i k g t q Q &.:.-.&.;.^ &.^ ^ &.:.~ ~ l i ^ i ^ ; # d &.&.T i ;.;.g l t i i g h i t Y T i ^ Y T k &.0.&.q Y t k < $ ",
"m 9.~ i k ~ Y T h t t Y g ~ i ;.;.~ T ^ ;.&.&.l ^ T q Y k g > % f ;.&.,.&.0.Y t < t g i ^ l h i l t t k t k g k ^ i l i k k < $ ",
"f :.~ k T :.&.&.^ q Q g u k T &.T l i i T &.^ l T l t l :.t ; * k :.~ Y g Y i 8 q g ^ g i i Y t t &.l k t l i k h Y g l i i * $ ",
"m ~ ~ &.~ :.Y k h i g t g i &.Y l g Y T k g T T &.~ i g ~ q ; $ G ..l i i k k Y t q i i ^ g t Y t T i i i g k k ^ ^ I t q l ; $ ",
"m ;.&.&.&.Y k k h i t Y Q g &.i i &.:.T ^ ~ ~ 9.;.&.3 Y t i * % D Y i k Y T g i q l g &.Y g t t l ;.T Y k T &.&.&.Q Y i t h ; @ ",
"F ;.T g Y ~ ;.:.^ ^ &.w.h l &.Y T e.~ i l k :.&.k Q i g k q ; # u ^ l i ^ g i i t i Y ^ g l t t g &.^ 9.~ ,.;.k ^ Y ^ ^ g t ; $ ",
"a i i l k T ;.~ &.,.0.;.t i Y i Y :.t Y ^ ^ Y ;.&.:.Y ^ y 3 ; $ 8 i i t t g i i i g ^ Y l i 3 q l ~ &.9.k &.i T g Y Q i t q ; @ ",
"y t t i Y g &.T ^ 9.&.t i g h ;.9.&.l s.:.^ k ~ g &.i i 3 q $ $ r &.i q i l t t i l ^ l i q 3 g ^ :.^ i Y ~ k k Y ^ ^ t q 8 ; % ",
"y T l i i i k Y &.T i i i i ^ Q &.~ ~ :.~ ~ g l t g 8 t q 8 # @ y a q i g i i i Y T l t t i q i T T T i ^ k T k g g k t t i * @ ",
"r i t t l q i T i i i i t h Y i i q i i t t l i t q 3 3 8 8 # O 0 l t i i t i i i t i t t q 8 t t i i q t t q i i i i t 8 < # @ ",
"y ; # * # # * ; * ; * * # * * O * # * @ * * # * * * # O # .   + 6 ; * # # * * * % * * * # # # @ # # # O * # # % * * * # O O . # ",
"w % $ $ + O + + + + @ O o o O . o O O + O + o + O + O O O o o - 2 @ @ + + + O + O O O @ + + X . + + + O O + O O @ + + O + O + > ",
"y.2.2.m a I P ..^ -.@.a a r 8 4 p r u v d a a a m ' y y a a y a d d ' G a t d m a f P d D y q , a d I k ....c k ' G m p y c a I ",
"q.a.a t g Q T &.a.i.~ ~ :.&.* $ e 8 T &.g l i ,.;.^ ^ l l i t &.Y ^ T ;.i ;.~ k &.k &.~ ~ l ; % d 0.^ r.&.&.i ^ ~ >.Y l y ;.Y l ",
"&.T t T t T T l W T &.;.i t @ $ u i T T Y t ^ ^ i ~ k l t 8 y T t i h l t D i i l k k i t 8 O % N 9.i ^ &.i i g g l i g l l t g ",
"T l k i g k ~ Y ^ >.>.Y ^ q # $ d ^ ^ &.Y &.,.&.^ ~ T i 8 t i g t ^ l l Y h i T :.Q k l t 8 O % F g k g ^ ;.0.^ l i k k i i i ^ ",
"T Y T &.l Q T l Q &.T l i q # @ u l g &.^ ^ ;.g T Y l i q i i t &.T ~ Y i i i ~ ~ T i k i 8 # % v ^ l Y ;.&.;.;.g g i i ,.&.i g ",
"&.Y k Y i &.h h T W W t i q O @ y t i i g ^ i t i g q q t q l q g T i q i k ^ i k l ~ k k q # & k c g Y Y g &.^ t i ^ i ~ i i ,.",
"l q i k ~ w.;.;.&.h Y i l q @ + u g i Y k i l g l i q i i ^ k q ~ Y i t ^ l l ~ :.&.9.9.:.t * % 5.,.Y Y T ^ i g Y i 0.g q.t g l ",
"Q k &.&.Q 9.&.k g t t g i q O @ y g i i ^ i ^ g i t i g :.:.~ 8 T i i q l t l ~ ~ :.r.s.~ q ; @ ' y.,.,.;.g t T t t i i ^ t &.&.",
"l Q Y T ;.~ i k k t i Y i t O # y q Y i g i g i t i Y &.~ l t i i t Y i &.T Y &.9.a.0.9.Q t * # I s.&.e.&.i q k i &.k Y ^ g Y i ",
"^ Y i T k ~ i g i k :.^ k q * @ a i &.i i i k Y i l ~ ^ i i i i i l Y ;.h t Y ,.p.p.w.w.Y t % # m ^ i Y Y g ;.g ;.^ i i ^ Y i Y ",
"T i i i l l i t T Y ~ i t 8 # $ u g Y &.t ^ Y i Y i l &.l k t q i i i h h i ;.i.w.;.,.h l q # @ y l i ,.&.^ Y Y g &.i Y t i Y Y ",
"q t Y h g i t i k T k k i 8 * $ c &.Y g g g i i i g g Y k i t k i i i i :.&.:.&.h l l q i 8 # # a Y T T g ^ T Y g Y Y t i i l g ",
"l &.T t k k l t i T g i q t # $ u g i k g k i q t t i t l i t q 8 i i h ;.g k l i 2.i g i q # $ t l l T i g k i i &.g Y 8 g &.i ",
"i t q q i l i i t t i t 8 3 # $ t t i i i t t t q t i t q y < 8 t t q i i l i i t l q 8 8 q # @ u g i l g k i t i i q 8 t l t i ",
"# O # * * * * ; ; * * # # # X * r * $ * * * # # # * * * * * # # * * # > * * ; * * ; # O O * . + y 3 * * ; * * * * * O * ; ; * % ",
"o O O O + + @ $ $ @ + + @ $ % 4 9 & @ + + @ @ @ # $ + o + + O . o O O o o O O o + O X O + @ + : 6 $ @ + @ @ @ + O + + + O + O . ",
"d G k I G m ' G G D S k a $.-.I ' 2.c m G a i d ..@...f c 5 9 5 y u k d c G 2.G o.D i m y a m 2.u.@.' @.I 2.P G f d -.y m d e 5 ",
"a :.~ ;.9.&.T k l l O.T i &.~ t i q k Y i i l T T l g g q 3 < = u ^ Y Y k 9.&.k 9.e.:.l l &.9.h.h.:.&.9.9.w.&.^ &.;.&.Q g &.3 % ",
"d ~ y ^ ^ k k i t i i i i c h q 3 t q i y g i t l l i l q q ; $ u ;.i Y g i l u &.Y Q i a 9.:.~ T i k &.Q Y i t i i Y i i 8 * $ ",
"y l k T ~ l t i T T k t g t i q 8 i t t i i t i Y h i i q q * @ u ;.&.^ g ^ Q Y T l ;.&.Q i ~ t c i k ~ ^ l l t i Y ^ i t q < $ ",
"e t i i Y l i Y &.&.~ i i 8 t q 8 t 8 q T Y k i l i i i t t ; $ u ;.i t i l Y &.Q 9.;.Y t i l h &.g T h Q i i g ^ ^ t t q t * @ ",
"y i l g t k i ^ ~ ^ g i t t i t t t i i k &.g &.k i i l i i ; # a g Y k h Q :.;.9.&.&.&.Y i g &.&.g l Y g t l Y &.i i t t 8 * $ ",
"u &.i g i l i t T g Y i 3 q Y t t t q ^ i i i l k k l T g t ; * s i t q i ,.&.&.:.s.:.~ i 8 Y l i i ^ h t h Y l l i i < 8 8 ; @ ",
"y k i i k i l T i T i 3 q l i i i t 8 g T g l i k i l Y g i > $ y k i l Y ;.T 9.w.9.:.&.T i l i t i i l i ;.&.h Y l q 3 i t ; $ ",
"u i l l T g Y T Q Q i i l i q k i t l q h t q i i i i i i Y ; $ e ,.q t i :.~ 9.s.:.T :.k q i t i i i l ^ k T ~ Y i l i i t ; @ ",
"a k g l ^ ^ k Y Y i t 8 Y 8 i h 8 t q q l q i g g g ^ &.g g ; $ u g 8 Y k Q ~ 9.T l T :.i l i i l l ^ l i l l T i Y t t 8 l * $ ",
"d Y l i i i Y l Q i i t t t t t k l i l g l &.~ &.^ g Y l i ; $ q i t Q &.&.:.~ ~ T &.&.k i t T l k ,.l Y k l l l l g i t t ; @ ",
"a g i i t g Y k &.i l T i i t l ~ l k k &.k ~ &.i l i i i t ; @ e Y i i T k &.~ i l ~ ;.~ Q i l &.l &.i k T l k T Y ^ ^ i q # @ ",
"y T i i q l i i i l t l q t i k t k t t i ~ T g a Y Y i t 3 # $ m i T :.&.T &.;.i ~ ~ -.~ k T l i q T i t k T ;.^ &.h t 3 8 * $ ",
"e i q t t t t t t q q q q t k t t q t i t i i t l g l i i < * @ a i t k t l i q t i t l i i q i i t t i t g i t i i t 8 < 3 # $ ",
"e < * # # * # * * # # # # O * # $ * * * % * * * ; * * ; ; O . $ 8 ; * $ # * # * # * * ; * # # # O # * # * * ; # ; * # X O O X O ",
"4 + + @ + + + + + @ O + + + o . o O + O O @ @ # * $ + + $ @ $ > 4 $ + o O + + + + @ O @ @ o X X @ + @ $ $ + O @ O O X O X O + > ",
"k a v ( ..} ' m v F a r u a a 2 d u ( m d F } 3.2.k ' 2.5.a ..@.u d m m a m G m ' 2.f f p t 6 4 $.2.v I G d d k a d a q y a F v ",
"g k ;.;.:.;.9.;.T 9.g t g &.3 % k ,.e.9.&.q.;.q.9.I 9...^ g l Y i l i l i ~ ^ ~ 9.e.k i q 8 ; % ' ;.k l ~ l &.&.i g t t y k &.^ ",
"l t c T l k g l l i 3 q &.l < $ I 9.Y Y &.Y Y &.^ k l ~ i t t Y k &.Y q l k T ~ :.&.k i q q * $ a t t t i l ^ k i i i ; i k T t ",
"l q T T &.:.&.l t 8 t &.:.l 3 % F 9.Y &.Y &.Y ;.T g &.,.t q t &.~ Y i i Y ;.9.:.&.k l y 3 8 ; $ m T t i k i ^ i i g i < i q l ^ ",
"t i T &.Y &.l i 8 8 i k i i ; $ u ;.,.;.;.&.Y i l T ^ 9.g l ^ Y T t l Y T :.&.&.T i k 8 3 q * @ a Y i i T t q i l T 3 q t i g i ",
"k t ;.9.~ k Y t q q l i i k < $ u ^ ;.;.i Y ^ ^ ^ ;.9.&.i q i Y t i ^ l T i k k l k t 8 i 3 * $ t k k i i i l i T k 8 q t T i k ",
"g t a.;.^ ;.&.i i t Y k k l * $ y Y h i g &.^ &.^ e.g i T g k Y &.Y T ^ ~ &.&.:.&.k t q 8 8 * + d i i t g i T Y Y t i q t i l l ",
"Y ;.,.Y ;.i i l k k t T k t ; $ u Y Y Y Y Y &.Y ;.r.i i ^ g ~ ~ t l k k ~ T i k i i t t q q ; @ d i ~ l Y i i T Y l i g T h ^ T ",
"l :.g ;.;.i T Y ^ i q T T t # $ a ;.Y g Y ;.;.,.,.&.^ &.^ l Y &.i ~ ^ &.i i l T i i 8 8 q t * $ i Y g Y g i g l l i l t l ~ :.k ",
"&.;.~ &.;.~ &.^ T t q i ~ i * @ F 9.Y ^ ;.q.9.0.Y ;.i i g Y i ;.i ^ i g i Y T &.Y i i q 8 i * = c i h g Y &.^ Y k T Y k Y ^ T i ",
";.&.^ Y ;.;.^ &.:.k t &.g q < $ I ^ g &.;.a.^ t &.i 8 t t i ^ Q i i g Y T T &.~ Y g k i i i < * c T i g Y &.&.g l k l i t &.l 0.",
"g i Y ^ &.&.Y Y i t i :.Y l ; @ a ;.Y y.&.0.^ Y &.i t 8 t g ;.g t t i T i l Y T i ^ i t q i ; $ a l 8 g g Y l i l i k i q g ^ g ",
"t i g T &.^ Y i Y t &.i i q # % a >.Y T i Y t i t i t 8 i g g t i i g Y i k T g i t t i 3 t * % a i t ~ ~ g g Y l k i i 8 i i q ",
"q q t g g i i i i i q t q 8 # % } } Y g i g t i q t 3 8 q i 8 q q t t i i i t t t q t 8 3 q * $ u i t i i i t t t i q q 3 8 t q ",
"* # ; * ; # * ; * * O * $ * O * r < ; ; * * # * # # # O # # O # * * % ; * # # # O O O # * # o $ 8 ; * # $ # # * # ; # # * # # # ",
"X o O + + + + + @ # $ @ + + $ 4 0 * $ $ @ O O @ @ @ # % + + + + + # $ O + + O o o + + + o O o : 4 $ @ O o O + + O O o o o X X . "
};
