/* XPM */
static char *_6bedeb0fcb34a569aabfb5014bee3ad[] = {
/* columns rows colors chars-per-pixel */
"64 64 160 2 ",
"   c #040403",
".  c #080807",
"X  c #0B0B09",
"o  c #11110F",
"O  c #141412",
"+  c #1A1A17",
"@  c #1D1D1B",
"#  c #22221E",
"$  c #252523",
"%  c #292926",
"&  c #2D2D2B",
"*  c #32322D",
"=  c #353532",
"-  c #3A3A35",
";  c #3D3D39",
":  c #414137",
">  c #43433C",
",  c #49493F",
"<  c #464641",
"1  c #4C4C42",
"2  c #4C4C41",
"3  c #4A4A44",
"4  c #4B4B44",
"5  c #4B4B45",
"6  c #4C4C44",
"7  c #4C4C45",
"8  c #4D4D45",
"9  c #4E4E44",
"0  c #4D4D46",
"q  c #4E4E46",
"w  c #4F4F46",
"e  c #4F4F47",
"r  c #4C4C44",
"t  c #4F4F48",
"y  c #4F4F48",
"u  c #505047",
"i  c #515147",
"p  c #525247",
"a  c #515146",
"s  c #515148",
"d  c #505049",
"f  c #515149",
"g  c #525248",
"h  c #535348",
"j  c #525249",
"k  c #535349",
"l  c #51514A",
"z  c #51514B",
"x  c #52524A",
"c  c #53534A",
"v  c #52524B",
"b  c #53534B",
"n  c #545448",
"m  c #54544A",
"M  c #55554A",
"N  c #54544B",
"B  c #55554B",
"V  c #56564B",
"C  c #57574B",
"Z  c #54544C",
"A  c #55554C",
"S  c #55554D",
"D  c #56564C",
"F  c #56564D",
"G  c #56564E",
"H  c #57574E",
"J  c #57574F",
"K  c #54544B",
"L  c #58584D",
"P  c #58584E",
"I  c #58584F",
"U  c #59594F",
"Y  c #5A5A4F",
"T  c #5B5B4F",
"R  c #59594E",
"E  c #575750",
"W  c #5A5A50",
"Q  c #5B5B50",
"!  c #5A5A51",
"~  c #5C5C51",
"^  c #5D5D51",
"/  c #5C5C52",
"(  c #5E5E52",
")  c #5F5F52",
"_  c #5D5D54",
"`  c #5F5F54",
"'  c #5C5C52",
"]  c #606053",
"[  c #606054",
"{  c #616155",
"}  c #626255",
"|  c #636355",
" . c #616156",
".. c #626256",
"X. c #636356",
"o. c #626257",
"O. c #636357",
"+. c #646456",
"@. c #646457",
"#. c #666657",
"$. c #626256",
"%. c #636358",
"&. c #646458",
"*. c #656558",
"=. c #646459",
"-. c #656559",
";. c #666658",
":. c #666659",
">. c #66665A",
",. c #67675A",
"<. c #67675B",
"1. c #666659",
"2. c #686859",
"3. c #68685A",
"4. c #69695A",
"5. c #68685B",
"6. c #6A6A5B",
"7. c #6B6B5B",
"8. c #68685C",
"9. c #69695C",
"0. c #6A6A5C",
"q. c #6B6B5C",
"w. c #6A6A5D",
"e. c #6B6B5D",
"r. c #6B6B5E",
"t. c #6C6C5E",
"y. c #6D6D5E",
"u. c #6D6D5F",
"i. c #6E6E5F",
"p. c #6F6F5F",
"a. c #6B6B5D",
"s. c #70705F",
"d. c #6E6E60",
"f. c #6F6F60",
"g. c #6F6F61",
"h. c #6F6F60",
"j. c #707060",
"k. c #707061",
"l. c #717161",
"z. c #727261",
"x. c #707062",
"c. c #717162",
"v. c #707063",
"b. c #727262",
"n. c #727263",
"m. c #737363",
"M. c #737365",
"N. c #747464",
"B. c #747465",
"V. c #757565",
"C. c #757566",
"Z. c #767666",
"A. c #737363",
"S. c #787867",
"D. c #777768",
"F. c #797968",
"G. c #797969",
"H. c #7A7A6A",
"J. c #7B7B6A",
"K. c #81816F",
/* pixels */
"n n > ; > 9 > - * & $ $ @ @ @ $ @ @ $ % - & % * - * - - > , - O ; 1 3 > 3 > > > 3 1 > 1 > - * & * & & & & * * & & * - * - > * X ",
"> 7.-.W i n r.o.f 5 > = ; = = % = ; ; > < = < 3 f t H I o.r.O   $ _ r.d.c.7.M.c.F.d.7.c.o.3 < 5 > > 3 3 9 f 9 H f 9 f 5 f f o   ",
"- ~ W f f 9 I -.9 > ; = ; & = % & = - & = - < 3 3 9 < 3 n n     - I -.~ 7.7.t.t.7.d.-.7.-.| 9 > 9 9 f r.~ ~ ~ ~ _ n n 9 i 9     ",
"> ~ I f 9 3 ~ o.f 9 - - = = & = % & * * & = > 5 > 9 f 5 H n     ; I ~ ] 7.7.t.7.c.c.7.d.d.c.c.H H o.c.c.B.d.7.o.o.| o.o.I i     ",
"- H f 9 > > n -.9 f ; ; & = = = = = = = = - > t f f 9 f 3 >     ; o.I r.t.-.-.B.t.t.d.r.t.F.c.-._ 7.F.r.d.c.c.c.B.F.t.r.-.i     ",
"; W i I 9 3 -.-.H < > ; = = = & $ & = = = - ; 9 9 9 3 3 > 3     , -.-.I o.r.d.c.c.t.c.7.7.c.t.r.-.| B.r.-.d.-.I n H H o.o.>     ",
"; W _ n 9 f ] %.f < > ; = = % & % = * ; = ; - - 9 H f I _ f     ; o.-.r.-.7.t.B.c.c.c.-.-.B.c.c.d.B.t.-.I H f > < < ; ; ; &     ",
"= n 9 H f 5 W r.~ f < - = = & = * = = - & = = = > 3 f H ~ H     % f f t.-.-.-.7.7.c.c.7.-.B.c.d.c.B.r.I 9 t 9 ; - - = ; = %     ",
"; H f 9 f 5 9 H W W > = & = % & & & - = ; ; - = < ; f H o.~ .   - 9 I o.o.r.o.o.-.M.r.t.d.d.c.B.B.r.-.H 9 > t > > ; - * = *     ",
"* 1 ~ I H > - 3 H o.f = & = & & $ * = - - - > 5 f f H n ~ ~     * 9 W H -.o.7.| -.-.-.7.7.c.B.-.r.| -.I 9 ; > ; > > - = & %     ",
"% f -.-._ 9 > > 3 9 3 ; = * = = = = = = ; ; > 9 9 9 H I -.o.  X * H n o.r.7.7.-.o.o.-.-.7.M.-.H i -.r.~ ~ 3 f < ; ; - * = &     ",
"& f f H 9 > < > f f 3 > - = = * = & = = ; ; < 9 3 f f o.r.I     ; ~ H ~ t.r.~ I i ~ o.-.-.c.c.I ~ o.r.d.d.9 9 9 9 ; ; - = %     ",
"% i ~ I < < ; < 5 > 3 ; * = & = = = & = = ; > 3 3 9 i I ] I .   * > n o.7.o.I I f ~ -.7.7.7.7.9 ~ -.-.| o.i 3 9 > ; - = * %     ",
"* 3 9 n 9 n = = ; , < * $ $ & % % % $ = & = * * - > > , n ,     $ > 3 i i i f 9 3 f I ~ I ~ > = ; > f i n 3 - = * * & % & $     ",
"@ X     .                                                       + X       .         .                   .                       ",
"o                                                             o +                                         .                     ",
"> n I a , 1 1 i 1 3 > 3 3 = # X i 3 ; 3 > > > > - = & $ $ $ $ @ $ % $ * * $ $ % & & & % * * & o 3 > > 3 > > 3 n 9 , C i i i 3 > ",
"J.B.J.J.F.B.B.B.t.c.7.c.r.f X   > B.t.o.r.t.-.W 3 9 > > ; ; ; = ; > 9 3 ; ; ; ; < 9 H > 5 9 X   - -.o.o.~ W t.J.S.-.-.S.F.c.r.c.",
"B.t.c.F.c.| c.c.-.7.-.o.I 3     : t.d.o.r.-.n 3 ; - > 3 ; - ; - ; > f > = > - ; ; 9 H < 5 >     - f i H H 9 o.c.B.-.o.t.r.7.t.B.",
"J.F.c.c.F.t.c.c.t.t.7.-.| 3     1 7.r.r.-.H 3 5 ; ; ; - ; ; > ; 5 f 9 9 < < > < 3 > 3 9 9 >     % f I ~ o.d.7.B.M.r.o.7.r.c.c.B.",
"B.7.S.c.F.t.d.c.B.r.c.t.c.H     > t.t.-.d.9 > > > = - ; - ; ; > 5 9 f f 3 < - < 3 3 5 9 9 >     # 9 I t.7.d.B.F.c.7.-.-.7.7.B.t.",
"| t.c.J.c.c.-.c.B.c.c.d.t.I   . > t.t.d.-.H 5 > ; - ; > ; - ; ; 5 < 9 3 < > > 3 3 9 f 9 9 ;     = > ~ -.t.d.t.S.B.B.7.-.~ t.-.~ ",
"B.B.c.F.F.B.| r.t.t.r.c.c.o.    > t.t.t.r.I > > ; - - ; > - < ; 5 > < < > > > 5 > 3 H f 9 ;     ; I ~ r.-.r.t.F.B.F.c.t.-.d.t.c.",
"B.c.c.F.t.F.B.D.c.c.t.t.c.~     : c.c.r.r.W < 5 5 ; ; > > ; > < > < 9 5 > > 5 ; < H H 9 9 ;     - ] r.~ ~ H c.F.B.B.c.B.c.t.7.B.",
"B.t.S.B.c.B.S.F.t.M.c.c.t.o.X   > t.t.c.o.9 5 3 > - = ; < > ; ; = > > < < ; ; > > f I f 3 >     - ~ ~ ~ W W t.c.B.B.S.B.t.7.r.c.",
"7.c.J.A.c.t.S.A.B.F.B.c.r.|     > 7.r.~ 5 9 > 3 > = = = = = - & = = = > > ; > 3 3 f f 5 > ;     ; ~ o.I ~ d.-.t.c.J.F.A.t.t.7.t.",
"c.c.B.S.B.c.c.t.r.B.7.t.c.]     > -.H < ; 5 > - = - * = = % - = ; & = 5 3 5 > < 3 H f f 9 >     - I -.~ o.c.-.] r.t.t.A.c.d.c.B.",
"B.c.B.B.A.r.-.-.~ t.t.d.B.|     > 7.n 5 > < ; = = = = = ; ; & - - * - > - > < < 3 E H f 3 >     - o.I o.~ o.~ ] t.B.c.B.7.B.7.B.",
"c.t.c.c.B.r._ n o.7.-.7.d.|   . : o.9 > ; ; ; = = - - - > - > ; > - * > - ; ; > > 9 9 3 > >     * W W -.r.7.o.-.t.s.c.F.B.t.c.c.",
"] I | -.] T i 1 , i n I T n . . & - - > ; = = = = = * - > * = - - % & & & = * & - > > > - *     = n i 1 i I I I I ] C o.| ] | T ",
"          X             . X X   O X                                                             # X             . . X X   .     ",
"                          X . o O                                                             X +             .       . . X .   ",
"> ; ; ; > ; - ; - - - > i 3 , 1 i f 9 ; ; = & - - - * - & & & O f ; > > 3 > 1 i , 1 i 3 1 ; > ; ; , > 1 n n i 1 n n , a n 1 ; O ",
"- ~ o.-.o.I I H H 9 H -.d.d.c.B.J.c.7.-.~ | ~ n I 3 9 3 f ; o   > ~ r.d.-.J.c.B.B.c.B.t.t.~ ~ W ~ -.B.F.B.F.F.B.F.J.F.J.F.t.X   ",
"* H H r.o.~ W f 3 3 i ~ o.r.d.t.B.t.t.d.d.o.W H H 9 t 9 9 >     - -.-.| -.r.t.t.t.-.t.7.o.~ I _ I -.r.c.B.t.t.c.S.J.F.F.B.o.. X ",
"* I ~ -.%.I W f H 9 n ~ 7.t.-.d.t.7.t.B.c.r.~ H f 9 9 > 3 -     > ] | 7.r.-.d.t.c.B.B.c.-.-.W o.I ~ t.7.c.B.c.c.c.S.J.J.F.o.X   ",
"= f I ~ H W i W H f f r.-.7.c.t.t.c.c.B.B.r._ I H H 9 < ; ;     ; ~ -.| 7.7.t.7.t.B.B.F.-.-.H I H W -.c.c.S.B.B.d.7.d.t.B.7.    ",
"- f o.~ H f H 3 f 9 W o.r.c.t.s.s.B.B.B.c.r.~ H 9 5 5 5 5 -     > -.o.-.t.r.r.t.B.c.B.t.-.-.o._ I -.c.c.c.c.d.-.W i H n I 9     ",
"; I ~ ~ I W f 3 > 9 W o.r.c.B.B.S.B.J.B.c.r.n I ~ 3 9 > > =     > o.] 7.7.B.t.B.r.B.t.-.-.I 9 I I o.t.M.F.B._ 9 9 9 H 9 9 -     ",
"- o.n W W _ f > 3 3 ~ o.r.B.B.A.F.K.J.B.F.-.W W n n H 9 3 -     > o.-.7.c.c.r.t.c.M.-.| ~ f I f n o.~ r.c.B.H 3 n 1 f 3 < ;     ",
"* n f f H H 3 9 9 f r.-.r.d.S.B.c.J.B.J.B.~ H W W H f H 3 >     ; o.-.B.F.J.r.c.M.c.d.-.9 f 3 I _ H ~ ~ B.c.W < 5 f 9 f 3 -     ",
"* i ~ W I H 9 > > 9 H I -.7.c.c.F.S.F.c.t.H H ~ I f 9 f f 3     > o.d.B.B.F.c.7.t.B.t.o.f 9 f H ~ o.o.%.B.F.-.o.9 f f 5 > ;     ",
"* 9 I ~ W ~ f 9 i 9 f o.t.7.d.c.M.c.t.o.I ~ W W W I H 9 9 1     > 7.B.t.M.B.D.c.t.d.d.7.~ 3 H W ~ %.~ ~ 7.F.B.r.~ f H 3 < -     ",
"$ > n ~ o.I H I ~ f 3 _ W _ -.c.7.-.c.r.%.~ W I o.n 3 9 f , X   > -.t.c.B.B.c.7.7.c.7.o.H < < f _ W I o.c.7.t.c.c.o.f 9 > ;     ",
"% 9 f W ~ f 5 t n 9 ; > 3 3 H I H I t.o.W ~ W I ~ 9 9 9 9 3     > | t.t.c.7.7.r.| t.~ -.> = > < 3 > f -.t.B.F.c.B.-.n > > -     ",
"% 3 > 3 < ; = = * * * * = - > ; ; > I i 9 3 3 3 > > ; - > ;     * n n n I ~ ~ I ~ I n > & * * - = - 3 3 i n n I | | 5 - - &     ",
"+ X                                                             & X               .                             .               ",
"O       X                                                     X @ . .   X       X                                             X ",
"* $ % $ % & - * % = * & % # + X T i 1 f i 3 3 i 1 ; ; : > * % @ $ % $ % * - ; - - - - & = > * X * ; - - > 3 > 3 1 , 3 & $ # & % ",
"t ; ; & > f f W f 9 9 5 > = X   , 7.c.B.B.B.B.c.B.d._ r.~ 5 ; ; > ; > ; > f W H f H ~ b f i o   * 9 H ~ o.| t.-.-.c.r.> = ; > t ",
"5 > = = = ; t > 3 5 < > ; %     , t.c.c.t.d.d.t.c.7.-.H 9 < = ; - - 5 > < 9 I 9 f ~ I 9 9 9     * 9 3 I I ~ -.n f W H ; - ; - f ",
"3 < ; - - ; ; = * - ; < > =     1 t.B.B.M.t.M.c.c.r.-.W < 5 3 9 5 > f 5 f n W _ d.-.~ 9 3 f     * f f > 3 7.r.W f H > ; ; > > 9 ",
"f > > ; = < 9 > = - ; > > =     > c.A.c.c.t.d.-.t.%.f f < ; < 9 f f 9 W < f 9 -.7.r.I H f 9     * 9 t 3 < I o.3 > > ; > < > < 9 ",
"H 3 < 3 > < f > > I f > > -     , B.c.B.c.c.r.~ I ~ I f < - ; - - 9 f 9 f f W d.o.| f f I n     = I ~ H 5 < > < 3 - ; > > > ; f ",
"3 < > f f 3 < < 3 o.o.-.W ;     1 c.F.F.c.B.t.~ I I f H 3 > > ; = ; 3 f 9 9 n c.o.~ W f I I     * n o.o.I H 9 > > ; < ; > < ; 9 ",
"; < < f %.3 > > < -.o.-.-.f     > B.F.c.t.B.B.r.o.W f i 9 3 ; > ; - < < 5 9 9 -.-.| o.W o.~ X X * W W 9 5 I f 3 < < 3 < > > > ; ",
"- 9 9 f H H f 9 I o.~ o.I n     , s.B.c.c.F.B.-.-.r.-.I 3 > > - > - > 5 3 f W | r.-.n o.-.n     - n 9 > > I H < > f > < > > 5 ; ",
"> f W o.-.n 9 W ~ _ -.o.I n     > B.c.F.c.F.B.t.7.d.o.H f 9 3 < > 3 f 9 < -.o.t.r.o.W I ] o.  . - 9 > 3 5 9 I ~ W I 9 ; ; < ; ; ",
"; > H ~ o.I I o.o.o.r.~ ~ H X   > c.s.B.B.B.J.c.7.d.r.~ H H < H -.9 f 9 I -.d.-.r.o.%.o.-.]   X * < 9 5 > 9 I o.~ W 9 > ; < ; = ",
"= = ; 3 E o.o.7.| o.~ -.~ n X   , c.c.A.B.c.B.-.c.t.~ -.W I ~ | r.W I H ~ 7.r.d.7.7.| c.t.o.    & 3 f 3 5 > H o.~ f t < > ; - - ",
"- ; - - > ~ ] o.o.o.~ W n f   . > c.s.c.c.-.r.t.B.r.~ H 9 I -.o.-.n I H ~ -.-.I r.-.I I ~ I     * 3 3 > > 5 I o.I W 9 < = ; ; - ",
"- = * = - ; > i i 3 f 1 9 -     > o.] T I I f T ] n 9 9 i i 1 3 3 > > > 3 > > 3 H 1 i i n 1   X & , > ; - - 1 1 i 3 - * * - * * ",
"                                * X   .   X       .         .                                   $ X                             ",
"                              X @   .           . .                                           X O                               "
};
